<svg width="2593" height="929" viewBox="0 0 2593 929" fill="none" xmlns="http://www.w3.org/2000/svg" preserveAspectRatio="xMidYMid slice">
<rect x="1685.67" y="649.705" width="626.267" height="103.237" transform="rotate(-45 1685.67 649.705)" fill="white" fill-opacity="0.1"/>
<rect x="605" y="660.551" width="690.917" height="103.237" transform="rotate(-45 605 660.551)" fill="white" fill-opacity="0.1"/>
<path d="M1453 837.012L1857.74 432.267L1857.74 445.614L1871.09 445.614L1466.35 850.359L1453 837.012Z" fill="white" fill-opacity="0.1"/>
<path d="M2592.09 164.348L2187.35 569.093L2187.35 555.745L2174 555.745L2578.74 151L2592.09 164.348Z" fill="white" fill-opacity="0.1"/>
<path d="M1219.73 259.709L1038.35 441.092L1034.66 431.428L1025 427.745L1206.38 246.361L1219.73 259.709Z" fill="white" fill-opacity="0.1"/>
<path d="M836.092 13.3477L431.347 418.093L431.347 404.745L417.999 404.745L822.744 0.000162851L836.092 13.3477Z" fill="white" fill-opacity="0.1"/>
<path d="M1838.36 666.488L2139.64 365.201L2157.06 392.555L2184.42 409.973L1883.13 711.26L1838.36 666.488Z" fill="white" fill-opacity="0.1"/>
<path d="M0 883.506L687.506 196L698.556 229.722L732.278 240.772L44.7718 928.278L0 883.506Z" fill="white" fill-opacity="0.1"/>
</svg>
