<svg>
    <symbol id="logo" width="100%" height="100%" viewBox="0 0 53 108" fill="none" xmlns="http://www.w3.org/2000/svg">
        <g>
            <path d="M0 0H53V108L27 96L0 108V0Z" fill="currentColor"/>
            <path d="M41.5052 36.2779C42.7657 35.0102 44.129 35.3207 43.9747 32.8628C43.9747 32.8628 43.3058 30.9956 40.8107 30.5861C34.6628 29.5771 27.7432 35.6311 21.4924 46.4197C15.2416 57.2084 13.9555 73.0679 23.6274 75.06C31.365 76.6537 39.6274 67.6175 42.7914 62.9002L44.6692 63.7022C44.5148 64.6422 42.8377 67.7693 37.3637 72.7574C30.5213 78.9925 22.8043 81.8643 14.4185 78.708C6.0327 75.5516 3.12596 64.7888 9.32529 50.5593C15.5246 36.3297 29.9812 28.3094 35.1001 27.3521C40.2191 26.3948 43.9747 27.4815 45.9554 29.4995C47.9361 31.5175 48.5534 34.9843 47.473 38.891C46.3927 42.7977 43.383 43.134 41.7367 41.7628C40.0904 40.3916 40.2448 37.5457 41.5052 36.2779Z" fill="white"/>
        </g>
    </symbol>
    <symbol id="logos" width="100%" height="100%" viewBox="0 0 53 108" fill="none" xmlns="http://www.w3.org/2000/svg">
        <g>
            <path d="M0 0H53V108L27 96L0 108V0Z" fill="currentColor"/>
            <path class="letter" id="letter" d="M41.5052 36.2779C42.7657 35.0102 44.129 35.3207 43.9747 32.8628C43.9747 32.8628 43.3058 30.9956 40.8107 30.5861C34.6628 29.5771 27.7432 35.6311 21.4924 46.4197C15.2416 57.2084 13.9555 73.0679 23.6274 75.06C31.365 76.6537 39.6274 67.6175 42.7914 62.9002L44.6692 63.7022C44.5148 64.6422 42.8377 67.7693 37.3637 72.7574C30.5213 78.9925 22.8043 81.8643 14.4185 78.708C6.0327 75.5516 3.12596 64.7888 9.32529 50.5593C15.5246 36.3297 29.9812 28.3094 35.1001 27.3521C40.2191 26.3948 43.9747 27.4815 45.9554 29.4995C47.9361 31.5175 48.5534 34.9843 47.473 38.891C46.3927 42.7977 43.383 43.134 41.7367 41.7628C40.0904 40.3916 40.2448 37.5457 41.5052 36.2779Z" fill="#0b2867"/>
        </g>
    </symbol>
    <symbol id="fb" width="16" height="16" viewBox="0 0 16 16" fill="none" xmlns="http://www.w3.org/2000/svg">
        <g>
            <path d="M10.6646 2.65667H12.1253V0.112667C11.8733 0.078 11.0066 0 9.9973 0C7.8913 0 6.44863 1.32467 6.44863 3.75933V6H4.12463V8.844H6.44863V16H9.29797V8.84467H11.528L11.882 6.00067H9.2973V4.04133C9.29797 3.21933 9.5193 2.65667 10.6646 2.65667Z" fill="currentColor"/>
        </g>
    </symbol>
    <symbol id="youtube" width="16" height="16" viewBox="0 0 16 16" fill="none" xmlns="http://www.w3.org/2000/svg">
        <g>
            <path d="M15.7235 4.21778C15.5276 3.36687 14.8316 2.73909 13.9938 2.64545C12.0097 2.42396 10.0015 2.42281 8.00256 2.42396C6.00328 2.42281 3.99476 2.42396 2.01067 2.64545C1.17331 2.73909 0.477812 3.36687 0.28193 4.21778C0.00313807 5.42957 0 6.75235 0 7.99998C0 9.2476 0 10.5702 0.278792 11.7818C0.474343 12.6326 1.17 13.2604 2.00787 13.3542C3.99178 13.5758 6.00014 13.577 7.99942 13.5758C9.99903 13.577 12.0069 13.5758 13.9906 13.3542C14.828 13.2605 15.5242 12.6327 15.7201 11.7818C15.999 10.5701 16 9.24744 16 7.99998C16 6.75235 16.0023 5.42957 15.7235 4.21778ZM5.93524 10.4833C5.93524 8.71347 5.93524 6.9621 5.93524 5.19207C7.63095 6.07684 9.31543 6.95566 11.0219 7.84588C9.32071 8.72817 7.63541 9.60171 5.93524 10.4833Z" fill="currentColor"/>
        </g>
    </symbol>
    <symbol id="instagram" width="16" height="16" viewBox="0 0 16 16" fill="none" xmlns="http://www.w3.org/2000/svg">
        <g>
            <path d="M15.9844 4.70404C15.9469 3.8539 15.8094 3.26944 15.6125 2.76299C15.4093 2.22541 15.0967 1.74412 14.6872 1.34401C14.2871 0.937683 13.8027 0.621948 13.2713 0.421957C12.7619 0.22502 12.1805 0.0875415 11.3304 0.0500586C10.4739 0.00940124 10.202 0 8.0297 0C5.8574 0 5.58549 0.00940124 4.73218 0.0468842C3.88204 0.0843671 3.29757 0.221967 2.79125 0.418783C2.25355 0.621948 1.77225 0.934509 1.37215 1.34401C0.96582 1.74412 0.650207 2.22858 0.450094 2.75994C0.253157 3.26944 0.115679 3.85073 0.0781958 4.70087C0.0375384 5.55736 0.0281372 5.82926 0.0281372 8.00156C0.0281372 10.1739 0.0375384 10.4458 0.0750213 11.2991C0.112504 12.1492 0.250104 12.7337 0.447042 13.2401C0.650207 13.7777 0.96582 14.259 1.37215 14.6591C1.77225 15.0654 2.25672 15.3812 2.78807 15.5812C3.29757 15.7781 3.87886 15.9156 4.72913 15.9531C5.58232 15.9907 5.85435 16 8.02664 16C10.1989 16 10.4708 15.9907 11.3242 15.9531C12.1743 15.9156 12.7588 15.7781 13.2651 15.5812C14.3404 15.1654 15.1905 14.3153 15.6062 13.2401C15.8031 12.7306 15.9407 12.1492 15.9781 11.2991C16.0156 10.4458 16.025 10.1739 16.025 8.00156C16.025 5.82926 16.0219 5.55736 15.9844 4.70404ZM14.5435 11.2366C14.5091 12.018 14.3779 12.4399 14.2685 12.7212C13.9996 13.4183 13.4464 13.9715 12.7494 14.2403C12.4681 14.3497 12.0431 14.481 11.2647 14.5153C10.4208 14.5529 10.1677 14.5622 8.03287 14.5622C5.89806 14.5622 5.64178 14.5529 4.80092 14.5153C4.01952 14.481 3.59756 14.3497 3.31625 14.2403C2.96938 14.1121 2.65365 13.909 2.39737 13.6433C2.1317 13.3838 1.92853 13.0713 1.80033 12.7244C1.69094 12.4431 1.55969 12.018 1.52538 11.2397C1.48777 10.3958 1.47849 10.1426 1.47849 8.00779C1.47849 5.87297 1.48777 5.6167 1.52538 4.77596C1.55969 3.99455 1.69094 3.5726 1.80033 3.29129C1.92853 2.9443 2.1317 2.62869 2.40055 2.37229C2.65988 2.10661 2.97244 1.90345 3.31943 1.77537C3.60073 1.66597 4.02586 1.53472 4.80409 1.50029C5.64801 1.46281 5.90123 1.45341 8.03592 1.45341C10.1739 1.45341 10.427 1.46281 11.2679 1.50029C12.0493 1.53472 12.4712 1.66597 12.7525 1.77537C13.0994 1.90345 13.4151 2.10661 13.6714 2.37229C13.9371 2.63174 14.1403 2.9443 14.2685 3.29129C14.3779 3.5726 14.5091 3.99761 14.5435 4.77596C14.581 5.61987 14.5904 5.87297 14.5904 8.00779C14.5904 10.1426 14.581 10.3927 14.5435 11.2366Z" fill="currentColor"/>
            <path d="M8.02955 3.89136C5.76043 3.89136 3.91937 5.73229 3.91937 8.00153C3.91937 10.2708 5.76043 12.1117 8.02955 12.1117C10.2988 12.1117 12.1397 10.2708 12.1397 8.00153C12.1397 5.73229 10.2988 3.89136 8.02955 3.89136ZM8.02955 10.6677C6.55746 10.6677 5.36338 9.47375 5.36338 8.00153C5.36338 6.52932 6.55746 5.33536 8.02955 5.33536C9.50176 5.33536 10.6957 6.52932 10.6957 8.00153C10.6957 9.47375 9.50176 10.6677 8.02955 10.6677Z" fill="currentColor"/>
            <path d="M13.2622 3.72883C13.2622 4.25871 12.8325 4.68836 12.3025 4.68836C11.7726 4.68836 11.343 4.25871 11.343 3.72883C11.343 3.19881 11.7726 2.76929 12.3025 2.76929C12.8325 2.76929 13.2622 3.19881 13.2622 3.72883Z" fill="currentColor"/>
        </g>
    </symbol>
    <symbol id="telegram" width="16" height="16" viewBox="0 0 16 16" fill="none" xmlns="http://www.w3.org/2000/svg">
        <g>
            <path d="M6.27797 10.1206L6.0133 13.8433C6.39197 13.8433 6.55597 13.6806 6.75263 13.4853L8.52797 11.7886L12.2066 14.4826C12.8813 14.8586 13.3566 14.6606 13.5386 13.8619L15.9533 2.54728L15.954 2.54661C16.168 1.54928 15.5933 1.15928 14.936 1.40394L0.742633 6.83795C-0.226034 7.21395 -0.211367 7.75395 0.577966 7.99861L4.20663 9.12728L12.6353 3.85328C13.032 3.59061 13.3926 3.73595 13.096 3.99861L6.27797 10.1206Z" fill="currentColor"/>
        </g>
    </symbol>
    <symbol id="sound" width="32" height="32" viewBox="0 0 32 32" fill="none" xmlns="http://www.w3.org/2000/svg">
        <g>
            <circle cx="16" cy="16" r="15.5" stroke="currentColor"/>
            <g clip-path="url(#clip0)">
                <path d="M20.064 17.9033C20.4991 17.1752 20.7878 16.2544 20.8438 15.3432C20.8793 14.7584 20.749 14.1445 20.4668 13.5672C20.0242 12.6604 19.2638 12.151 18.5292 11.6588C17.981 11.2915 17.463 10.9447 17.0968 10.4493L17.0311 10.3609C16.8146 10.0702 16.5702 9.74058 16.5314 9.46379C16.4926 9.18377 16.2384 8.98452 15.9606 9.00067C15.6784 9.02006 15.4597 9.25377 15.4597 9.53703V19.1333C15.0085 18.8597 14.4527 18.6917 13.8442 18.6917C12.3601 18.6917 11.1517 19.6578 11.1517 20.8457C11.1517 22.0337 12.3601 22.9998 13.8442 22.9998C15.3284 22.9998 16.5368 22.0337 16.5368 20.8457V14.5689C17.3456 14.878 18.6693 15.6653 19.0333 17.5037C18.9654 17.6039 18.9008 17.7116 18.8254 17.7978C18.6283 18.0207 18.6499 18.361 18.8739 18.5571C19.0958 18.7552 19.4361 18.7315 19.6332 18.5086C19.7775 18.3449 19.9057 18.1532 20.0285 17.9529C20.0414 17.9378 20.0533 17.9216 20.064 17.9033Z" fill="currentColor"/>
                <line x1="8.76471" y1="19.5588" x2="23.7647" y2="11.5588" stroke="currentColor"/>
            </g>
            <defs>
                <clipPath id="clip0">
                    <rect width="14" height="14" fill="currentColor" transform="translate(9 9)"/>
                </clipPath>
            </defs>
        </g>
    </symbol>
    <symbol id="video" width="141" height="141" viewBox="0 0 141 141" fill="none" xmlns="http://www.w3.org/2000/svg">
        <g>
            <circle cx="68.5" cy="72.5" r="68" stroke="currentColor"/>
            <path d="M116.937 120.937C126.517 111.357 133.041 99.1514 135.684 85.8637C138.327 72.576 136.97 58.8029 131.786 46.2862C126.601 33.7694 117.821 23.0712 106.557 15.5443C95.2918 8.01746 82.048 4 68.5 4" stroke="currentColor" stroke-width="7"/>
            <path d="M87 70L60.75 84.7224L60.75 55.2776L87 70Z" fill="currentColor"/>
        </g>
    </symbol>
    <symbol id="sun" width="19" height="19" viewBox="0 0 19 19" fill="none" xmlns="http://www.w3.org/2000/svg">
        <g>
            <path d="M9.49963 3.93359C6.4305 3.93359 3.93323 6.43087 3.93323 9.5C3.93323 12.5691 6.4305 15.0664 9.49963 15.0664C12.5688 15.0664 15.066 12.5691 15.066 9.5C15.066 6.43087 12.5688 3.93359 9.49963 3.93359Z" fill="currentColor"/>
            <path d="M15.2778 12.8398C14.6989 13.8529 13.8417 14.699 12.8286 15.2891L16.1796 16.1908L15.2778 12.8398Z" fill="currentColor"/>
            <path d="M9.49957 0L7.78516 3.05406C8.33066 2.89824 8.9095 2.82031 9.49957 2.82031C10.0896 2.82031 10.6685 2.89824 11.214 3.05406L9.49957 0Z" fill="currentColor"/>
            <path d="M2.81995 2.82031L3.7217 6.16016C4.30065 5.14703 5.13561 4.31207 6.14866 3.72207L2.81995 2.82031Z" fill="currentColor"/>
            <path d="M3.05371 7.77441L0.0107422 9.5L3.05371 11.2256C2.89785 10.6801 2.81989 10.1012 2.81989 9.5C2.81989 8.89879 2.89781 8.31992 3.05371 7.77441Z" fill="currentColor"/>
            <path d="M3.7217 12.8398L2.81995 16.1908L6.17092 15.2891C5.15784 14.699 4.30065 13.8529 3.7217 12.8398Z" fill="currentColor"/>
            <path d="M9.49991 16.1797C8.89877 16.1797 8.31983 16.1018 7.76318 15.9459L9.49991 19.0001L11.2366 15.9459C10.68 16.1018 10.101 16.1797 9.49991 16.1797Z" fill="currentColor"/>
            <path d="M12.8466 3.72779C13.8537 4.31393 14.693 5.1539 15.2777 6.16202L16.1842 2.82202L12.8466 3.72779Z" fill="currentColor"/>
            <path d="M18.989 9.50532L15.9479 7.78381C16.0941 8.33251 16.1796 8.90574 16.1796 9.4999C16.1796 10.0987 16.093 10.6764 15.9445 11.2289L18.989 9.50532Z" fill="currentColor"/>
        </g>
    </symbol>
    <symbol id="switch" width="57" height="24" viewBox="0 0 57 24" fill="none" xmlns="http://www.w3.org/2000/svg">
        <g>
            <rect x="0.5" y="0.5" width="56" height="23" rx="11.5" stroke="currentColor"/>
            <circle cx="45" cy="12" r="8" fill="currentColor"/>
        </g>
    </symbol>
    <symbol id="moon" width="17" height="17" viewBox="0 0 17 17" fill="none" xmlns="http://www.w3.org/2000/svg">
        <g>
            <path d="M8.95613 16.9994C12.2084 17.0337 15.1792 15.1596 16.5491 12.2099C15.6869 12.5861 14.7532 12.7703 13.8128 12.7498C10.1264 12.7457 7.13903 9.7583 7.13488 6.07193C7.17178 3.57839 8.54765 1.29753 10.736 0.101599C10.1458 0.0264547 9.55105 -0.0071898 8.95613 0.00111016C4.26206 0.00111016 0.45697 3.80634 0.45697 8.50026C0.45697 13.1943 4.26206 16.9994 8.95613 16.9994Z" fill="currentColor"/>
        </g>
    </symbol>
    <symbol id="3d" width="36" height="34" viewBox="0 0 36 34" fill="none" xmlns="http://www.w3.org/2000/svg">
        <g>
            <path d="M31.1764 13.6651C30.6677 13.3808 30.0249 13.558 29.7386 14.0626C29.4513 14.5694 29.6294 15.2131 30.1362 15.5005C32.5123 16.8467 33.8907 18.5028 33.8907 20.1641C33.8907 23.0512 29.922 25.7795 24.1191 26.9547C23.5475 27.0711 23.1788 27.6273 23.2941 28.1979C23.4115 28.7741 23.9753 29.1386 24.5373 29.0229C31.4576 27.6211 36.0001 24.144 36.0001 20.1641C36.0001 17.7097 34.2417 15.4016 31.1764 13.6651V13.6651Z" fill="currentColor"/>
            <path d="M12.7266 29.2426V32.8204C12.7266 33.2097 12.9408 33.5671 13.2838 33.7505C13.622 33.9319 14.0393 33.9159 14.3663 33.698L20.6944 29.4792C20.988 29.2835 21.1641 28.9539 21.1641 28.6017C21.1641 28.2495 20.988 27.9199 20.6944 27.7242L14.3663 23.5055C14.0419 23.2912 13.6247 23.2686 13.2838 23.453C12.9408 23.6362 12.7266 23.9936 12.7266 24.3829V27.0842C6.56002 26.0278 2.10938 23.2219 2.10938 20.1642C2.10938 18.5028 3.48778 16.8466 5.86385 15.5005C6.37059 15.2131 6.54877 14.5694 6.2614 14.0626C5.97509 13.5579 5.33341 13.3808 4.82358 13.6651C1.75845 15.4016 0 17.7098 0 20.1642C0 24.4608 5.12114 28.0438 12.7266 29.2426V29.2426Z" fill="currentColor"/>
            <path d="M26.4375 4.21914L18.4717 0.236217C18.1751 0.0879277 17.8249 0.0879277 17.5283 0.236217L9.56216 4.21935L18 8.43789L26.4375 4.21914Z" fill="currentColor"/>
            <path d="M27.4922 15.9454V6.05054L19.0547 10.2693C19.0547 10.4858 19.0547 21.0327 19.0547 20.8162L26.9092 16.8889C27.2666 16.7096 27.4922 16.3451 27.4922 15.9454V15.9454Z" fill="currentColor"/>
            <path d="M8.50781 15.9453C8.50781 16.345 8.73338 16.7095 9.09077 16.8887L16.9453 20.8161C16.9453 20.0757 16.9453 10.0525 16.9453 10.2692L8.50781 6.05078V15.9453Z" fill="currentColor"/>
        </g>
    </symbol>
    <symbol id="menu" width="23" height="17" viewBox="0 0 23 17" fill="none" xmlns="http://www.w3.org/2000/svg">
        <g>
            <line x1="1.5" y1="1.5" x2="21.5" y2="1.5" stroke="currentColor" stroke-width="3" stroke-linecap="round"/>
            <line x1="1.5" y1="8.5" x2="21.5" y2="8.5" stroke="currentColor" stroke-width="3" stroke-linecap="round"/>
            <line x1="1.5" y1="15.5" x2="21.5" y2="15.5" stroke="currentColor" stroke-width="3" stroke-linecap="round"/>
        </g>
    </symbol>
    <symbol id="close" width="20" height="20" viewBox="0 0 20 20" fill="none" xmlns="http://www.w3.org/2000/svg">
        <g>
            <line x1="3" y1="16.2634" x2="17.1421" y2="2.12131" stroke="currentColor" stroke-width="3" stroke-linecap="round"/>
            <line x1="17.1421" y1="16.2634" x2="2.99997" y2="2.12129" stroke="currentColor" stroke-width="3" stroke-linecap="round"/>
        </g>
    </symbol>
    <symbol id="phone" width="20" height="20" viewBox="0 0 20 20" fill="none" xmlns="http://www.w3.org/2000/svg">
        <g>
            <path d="M19.4561 14.678L16.6651 11.8869C15.6683 10.8901 13.9737 11.2889 13.575 12.5847C13.2759 13.4819 12.2791 13.9803 11.382 13.7809C9.38839 13.2825 6.69701 10.6908 6.1986 8.59746C5.89956 7.7003 6.49765 6.70349 7.39477 6.40448C8.69062 6.00576 9.08934 4.31119 8.09254 3.31438L5.30148 0.523324C4.50403 -0.174441 3.30786 -0.174441 2.6101 0.523324L0.716166 2.41726C-1.17777 4.41087 0.915528 9.69395 5.60052 14.3789C10.2855 19.0639 15.5686 21.2569 17.5622 19.2633L19.4561 17.3694C20.1539 16.5719 20.1539 15.3757 19.4561 14.678Z" fill="currentColor"/>
        </g>
    </symbol>
    <symbol id="mail" width="21" height="16" viewBox="0 0 21 16" fill="none" xmlns="http://www.w3.org/2000/svg">
        <g>
            <path d="M20.2492 0.142822H0.749268L10.4993 8.55625L20.3595 0.166394C20.3234 0.155345 20.2866 0.147472 20.2492 0.142822Z" fill="currentColor"/>
            <path d="M10.9732 10.1812C10.6969 10.4183 10.2993 10.4183 10.023 10.1812L0 1.53052V15.0715C0 15.5055 0.335786 15.8572 0.750014 15.8572H20.25C20.6642 15.8572 21 15.5055 21 15.0715V1.64681L10.9732 10.1812Z" fill="currentColor"/>
        </g>
    </symbol>
    <symbol id="address" width="17" height="24" viewBox="0 0 17 24" fill="none" xmlns="http://www.w3.org/2000/svg">
        <g>
            <path d="M8.28934 0.738525C3.79725 0.738525 0.142578 4.24701 0.142578 8.55942C0.142578 13.9797 8.29735 23.2385 8.29735 23.2385C8.29735 23.2385 16.4361 13.7131 16.4361 8.55942C16.4361 4.24701 12.7816 0.738525 8.28934 0.738525ZM10.7474 10.8494C10.0696 11.4999 9.17955 11.8252 8.28934 11.8252C7.39928 11.8252 6.50893 11.4999 5.83144 10.8494C4.47603 9.54832 4.47603 7.43126 5.83144 6.13007C6.48776 5.49972 7.3608 5.15256 8.28934 5.15256C9.21789 5.15256 10.0908 5.49986 10.7474 6.13007C12.1028 7.43126 12.1028 9.54832 10.7474 10.8494Z" fill="currentColor"/>
        </g>
    </symbol>
    <symbol id="btn" width="31" height="31" viewBox="0 0 31 31" fill="none" xmlns="http://www.w3.org/2000/svg">
        <g>
            <path d="M30.4024 27.005L25.9341 22.5458C25.5077 22.1194 24.927 21.9198 24.3645 21.947L22.2142 19.7968C25.875 14.9566 25.5031 8.0341 21.0937 3.6203C16.2717 -1.20177 8.44662 -1.20177 3.62454 3.62937C-1.20667 8.46051 -1.20667 16.2766 3.61547 21.0987C8.02933 25.5125 14.9518 25.8799 19.792 22.2192L21.9422 24.3694C21.915 24.9319 22.1146 25.5125 22.541 25.939L27.0002 30.3982C27.7986 31.1965 29.1005 31.1965 29.8989 30.3982L30.3934 29.9037C31.2008 29.1053 31.2008 27.8125 30.4024 27.005ZM18.4219 18.4268C15.0741 21.7746 9.63513 21.7837 6.28733 18.4359C2.93953 15.0881 2.93953 9.65816 6.2964 6.30123C9.6442 2.95343 15.0833 2.94436 18.4311 6.29216C21.7789 9.63995 21.7652 15.0699 18.4219 18.4268Z" fill="currentColor"/>
            <path d="M15.7192 11.0728H13.696V9.04959C13.696 8.31927 13.1063 7.72949 12.3851 7.72949H12.3715C11.6502 7.72949 11.0605 8.31921 11.0605 9.04959V11.0728H9.03732C8.30701 11.0728 7.71729 11.6625 7.71729 12.3838V12.3929C7.71729 13.1142 8.30701 13.7038 9.03732 13.7038H11.0605V15.727C11.0605 16.4574 11.6502 17.0471 12.3715 17.0471H12.3806C13.1018 17.0471 13.6915 16.4575 13.6915 15.727V13.7038H15.7147C16.445 13.7038 17.0348 13.1141 17.0348 12.3929V12.3838C17.0438 11.6625 16.4542 11.0728 15.7192 11.0728Z" fill="currentColor"/>
        </g>
    </symbol>
    <symbol id="cam" width="28" height="26" viewBox="0 0 28 26" fill="none" xmlns="http://www.w3.org/2000/svg">
        <g>
            <path d="M9.84806 13.7234L18.6517 4.9197L14.3452 0.613154C14.0197 0.287579 13.4922 0.287134 13.1661 0.61193L0 13.7234H9.84806Z" fill="currentColor"/>
            <path d="M27.1653 13.2782H25.2178C23.837 13.2782 22.7138 14.4015 22.7138 15.7822V18.6201H20.6845C20.1759 17.1145 18.4551 16.4102 17.0448 17.1126L15.6031 15.6709L18.5068 12.7672C19.483 11.791 19.483 10.2026 18.5068 9.22636L17.6063 8.32581L10.784 15.1482C10.6275 15.3047 10.4152 15.3927 10.1938 15.3927H5.40912L10.1368 20.1204C10.4694 20.3718 10.9346 20.3396 11.2291 20.0449L14.4228 16.8513L15.8645 18.2929C15.0034 20.0218 16.2672 22.07 18.2066 22.07C19.3568 22.07 20.3353 21.3232 20.6845 20.2894H22.7138V23.1272C22.7138 24.5079 23.8371 25.6312 25.2178 25.6312H27.1654C27.6263 25.6312 28 25.2575 28 24.7966V14.1128C28 13.6519 27.6263 13.2782 27.1653 13.2782Z" fill="currentColor"/>
            <path d="M3.83291 16.1772L2.92624 17.0839C2.60027 17.4098 2.60027 17.9383 2.92624 18.2643L6.04232 21.3804C6.36829 21.7064 6.89674 21.7064 7.22271 21.3804L8.12938 20.4737L3.83291 16.1772Z" fill="currentColor"/>
        </g>
    </symbol>
    <symbol id="arrow" width="34" height="8" viewBox="0 0 34 8" fill="none" xmlns="http://www.w3.org/2000/svg">
        <g>
            <path d="M0.646446 3.64644C0.451183 3.84171 0.451183 4.15829 0.646446 4.35355L3.82843 7.53553C4.02369 7.73079 4.34027 7.73079 4.53553 7.53553C4.7308 7.34027 4.7308 7.02369 4.53553 6.82842L1.70711 4L4.53553 1.17157C4.7308 0.976308 4.7308 0.659726 4.53553 0.464464C4.34027 0.269201 4.02369 0.269201 3.82843 0.464463L0.646446 3.64644ZM34 3.5L1 3.5L1 4.5L34 4.5L34 3.5Z" fill="currentColor"/>
        </g>
    </symbol>
    <symbol id="pdf" width="14" height="16" viewBox="0 0 14 16" fill="none" xmlns="http://www.w3.org/2000/svg">
        <g>
            <path d="M3.71315 10.2939C3.71315 10.0282 3.52877 9.86975 3.20346 9.86975C3.07062 9.86975 2.98065 9.88286 2.93359 9.8954V10.7479C2.98931 10.7605 3.05781 10.7647 3.15222 10.7647C3.49897 10.7647 3.71315 10.5895 3.71315 10.2939Z" fill="currentColor"/>
            <path d="M5.72667 9.8786C5.58098 9.8786 5.48684 9.89118 5.43115 9.90422V11.7923C5.48687 11.8054 5.57684 11.8054 5.65817 11.8054C6.24917 11.8096 6.63462 11.4843 6.63462 10.795C6.6388 10.1955 6.28757 9.8786 5.72667 9.8786Z" fill="currentColor"/>
            <path d="M9.46851 0H3.04226C2.10344 0 1.33935 0.764624 1.33935 1.70291V7.99997H1.17302C0.794113 7.99997 0.486816 8.30696 0.486816 8.68621V12.8478C0.486816 13.227 0.79408 13.534 1.17302 13.534H1.33935V14.2971C1.33935 15.2364 2.10344 16 3.04226 16H11.8106C12.7488 16 13.513 15.2363 13.513 14.2971V4.03033L9.46851 0ZM2.28702 9.43723C2.48813 9.40324 2.7708 9.37762 3.16906 9.37762C3.57153 9.37762 3.85839 9.45445 4.05113 9.60876C4.23524 9.75418 4.35948 9.99421 4.35948 10.2767C4.35948 10.5591 4.26534 10.7992 4.09403 10.9618C3.87123 11.1716 3.54173 11.2657 3.15628 11.2657C3.0705 11.2657 2.99361 11.2615 2.93348 11.2531V12.2851H2.28702V9.43723ZM11.8106 14.9571H3.04226C2.67874 14.9571 2.38273 14.6611 2.38273 14.2971V13.534H10.5566C10.9356 13.534 11.2429 13.227 11.2429 12.8478V8.68621C11.2429 8.30696 10.9356 7.99997 10.5566 7.99997H2.38273V1.70291C2.38273 1.33993 2.67878 1.04391 3.04226 1.04391L9.07835 1.03761V3.26876C9.07835 3.92045 9.60712 4.44973 10.2593 4.44973L12.445 4.44346L12.4696 14.297C12.4696 14.6611 12.1741 14.9571 11.8106 14.9571ZM4.77633 12.272V9.43723C5.01609 9.39906 5.3286 9.37762 5.65839 9.37762C6.20648 9.37762 6.5619 9.47595 6.84039 9.68565C7.14009 9.90846 7.32835 10.2636 7.32835 10.7735C7.32835 11.3258 7.12725 11.7071 6.84872 11.9424C6.54484 12.195 6.08227 12.3148 5.51716 12.3148C5.17873 12.3148 4.93897 12.2934 4.77633 12.272ZM9.44972 10.5936V11.1245H8.41334V12.2851H7.75827V9.39906H9.5224V9.93408H8.41334V10.5936H9.44972Z" fill="currentColor"/>
        </g>
    </symbol>
    <symbol id="check" width="21" height="17" viewBox="0 0 21 17" fill="none" xmlns="http://www.w3.org/2000/svg">
        <g>
            <path d="M2 8.5L9.48 15L19 2" stroke="currentColor" stroke-width="4" stroke-linecap="round" stroke-linejoin="round"/>
        </g>
    </symbol>
    <symbol id="qqqqqq" width="16" height="16" viewBox="0 0 16 16" fill="none" xmlns="http://www.w3.org/2000/svg">
        <g></g>
    </symbol>
</svg>


