<svg width="1920" height="5828" viewBox="0 0 1920 5828" fill="none" xmlns="http://www.w3.org/2000/svg">
<g clip-path="url(#clip0_53:2)">
<rect width="1920" height="5828" fill="white"/>
<path d="M1210.21 3363.37C1219 3360.32 1228.69 3358.8 1239.27 3358.8C1256.85 3358.8 1271.02 3363.81 1281.79 3373.85C1292.55 3383.7 1297.93 3398.93 1297.93 3419.54V3497.21C1297.93 3499.9 1296.68 3501.25 1294.16 3501.25H1270.75C1268.06 3501.25 1266.72 3499.9 1266.72 3497.21V3420.35C1266.72 3407.98 1264.21 3399.29 1259.18 3394.28C1254.16 3389.26 1246.45 3386.75 1236.04 3386.75C1225.28 3386.75 1216.67 3388.36 1210.21 3391.59V3497.21C1210.21 3499.9 1208.87 3501.25 1206.18 3501.25H1183.04C1180.35 3501.25 1179 3499.9 1179 3497.21V3313.11C1179 3310.42 1180.35 3309.08 1183.04 3309.08H1206.18C1208.87 3309.08 1210.21 3310.42 1210.21 3313.11V3363.37Z" fill="#0B2867" fill-opacity="0.05"/>
<path d="M1358.06 3501.25H1334.65C1331.96 3501.25 1330.61 3499.9 1330.61 3497.21V3365.79C1330.61 3363.28 1331.96 3362.02 1334.65 3362.02H1358.06C1360.57 3362.02 1361.82 3363.28 1361.82 3365.79V3497.21C1361.82 3499.9 1360.57 3501.25 1358.06 3501.25ZM1358.86 3313.11C1362.27 3316.33 1363.98 3320.45 1363.98 3325.47C1363.98 3330.49 1362.27 3334.7 1358.86 3338.1C1355.63 3341.51 1351.51 3343.21 1346.49 3343.21C1341.46 3343.21 1337.25 3341.51 1333.84 3338.1C1330.43 3334.7 1328.73 3330.49 1328.73 3325.47C1328.73 3320.45 1330.43 3316.33 1333.84 3313.11C1337.25 3309.7 1341.46 3308 1346.49 3308C1351.51 3308 1355.63 3309.7 1358.86 3313.11Z" fill="#0B2867" fill-opacity="0.05"/>
<path d="M1500.72 3459.86C1500.72 3474.37 1495.42 3485.48 1484.84 3493.18C1474.26 3500.71 1460.53 3504.47 1443.67 3504.47C1423.22 3504.47 1405.02 3498.65 1389.05 3487C1386.9 3485.75 1386.54 3483.96 1387.97 3481.63L1398.2 3464.16C1399.45 3461.83 1401.25 3461.47 1403.58 3463.08C1416.14 3472.22 1429.68 3476.79 1444.21 3476.79C1451.57 3476.79 1457.57 3475.44 1462.24 3472.76C1466.9 3470.07 1469.23 3466.22 1469.23 3461.2C1469.23 3456.36 1466.99 3452.87 1462.51 3450.72C1458.2 3448.57 1452.1 3446.78 1444.21 3445.34C1439.19 3444.45 1434.7 3443.46 1430.76 3442.39C1426.81 3441.31 1422.06 3439.61 1416.5 3437.28C1411.11 3434.95 1406.63 3432.35 1403.04 3429.48C1399.45 3426.44 1396.32 3422.5 1393.62 3417.66C1391.11 3412.64 1389.86 3407 1389.86 3400.73C1389.86 3386.75 1395.33 3376.27 1406.27 3369.28C1417.39 3362.11 1430.94 3358.53 1446.9 3358.53C1462.87 3358.53 1478.47 3362.65 1493.72 3370.89C1496.05 3372.15 1496.5 3373.94 1495.07 3376.27L1484.84 3393.47C1483.41 3395.44 1481.61 3395.89 1479.46 3394.81C1468.52 3388.9 1457.13 3385.94 1445.29 3385.94C1437.57 3385.94 1431.56 3387.29 1427.26 3389.97C1422.95 3392.66 1420.8 3396.25 1420.8 3400.73C1420.8 3405.74 1423.04 3409.33 1427.53 3411.48C1432.19 3413.63 1439.91 3415.78 1450.67 3417.93C1457.66 3419.18 1463.49 3420.53 1468.16 3421.96C1472.82 3423.39 1477.93 3425.63 1483.5 3428.68C1489.24 3431.72 1493.54 3435.85 1496.41 3441.04C1499.28 3446.24 1500.72 3452.51 1500.72 3459.86Z" fill="#0B2867" fill-opacity="0.05"/>
<path d="M1556.52 3452.6C1556.52 3459.94 1558.31 3465.68 1561.9 3469.8C1565.66 3473.92 1570.96 3475.98 1577.77 3475.98C1579.39 3475.98 1583.06 3475.8 1588.8 3475.44C1591.67 3475.44 1593.11 3476.7 1593.11 3479.21V3499.63C1593.11 3502.32 1591.85 3503.75 1589.34 3503.93C1583.24 3504.29 1578.49 3504.47 1575.08 3504.47C1560.19 3504.47 1548.17 3500.44 1539.03 3492.38C1529.88 3484.13 1525.3 3471.59 1525.3 3454.75V3331.92C1525.3 3329.41 1526.65 3328.16 1529.34 3328.16H1549.79C1552.12 3328.16 1553.47 3329.32 1553.82 3331.65L1556.25 3363.9H1585.04C1587.73 3363.9 1589.07 3365.16 1589.07 3367.67V3387.29C1589.07 3389.8 1587.73 3391.05 1585.04 3391.05H1556.52V3452.6Z" fill="#0B2867" fill-opacity="0.05"/>
<path d="M1732.79 3450.18C1732.79 3466.84 1727.23 3480.1 1716.1 3489.96C1704.98 3499.63 1690.09 3504.47 1671.44 3504.47C1652.78 3504.47 1637.89 3499.63 1626.77 3489.96C1615.65 3480.1 1610.09 3466.84 1610.09 3450.18V3414.16C1610.09 3397.32 1615.65 3383.88 1626.77 3373.85C1637.89 3363.81 1652.78 3358.8 1671.44 3358.8C1690.09 3358.8 1704.98 3363.81 1716.1 3373.85C1727.23 3383.88 1732.79 3397.32 1732.79 3414.16V3450.18ZM1641.57 3450.18C1641.57 3467.74 1651.53 3476.52 1671.44 3476.52C1681.12 3476.52 1688.48 3474.28 1693.5 3469.8C1698.7 3465.32 1701.3 3458.78 1701.3 3450.18V3414.16C1701.3 3405.38 1698.7 3398.67 1693.5 3394.01C1688.3 3389.17 1680.94 3386.75 1671.44 3386.75C1661.75 3386.75 1654.31 3389.08 1649.1 3393.74C1644.08 3398.4 1641.57 3405.21 1641.57 3414.16V3450.18Z" fill="#0B2867" fill-opacity="0.05"/>
<path d="M1788.98 3501.25H1765.84C1763.15 3501.25 1761.81 3499.9 1761.81 3497.21V3373.58C1761.81 3371.25 1762.79 3369.73 1764.77 3369.01C1778.76 3362.2 1794.45 3358.8 1811.85 3358.8C1821 3358.8 1830.15 3359.51 1839.3 3360.95C1841.63 3361.13 1842.8 3362.47 1842.8 3364.98V3384.33C1842.8 3387.02 1841.36 3388.09 1838.49 3387.56C1834.01 3386.84 1826.74 3386.48 1816.7 3386.48C1806.83 3386.48 1798.94 3387.74 1793.02 3390.24V3497.21C1793.02 3499.9 1791.67 3501.25 1788.98 3501.25Z" fill="#0B2867" fill-opacity="0.05"/>
<path d="M1948.79 3463.62V3365.79C1948.79 3363.28 1950.13 3362.02 1952.82 3362.02H1975.96C1978.65 3362.02 1980 3363.28 1980 3365.79V3492.38C1980 3534.13 1960 3555 1920 3555C1898.47 3555 1880.89 3549.36 1867.26 3538.07C1865.28 3536.63 1865.02 3534.84 1866.45 3532.69L1878.02 3516.3C1879.46 3513.97 1881.16 3513.52 1883.13 3514.95C1895.15 3523.2 1907.35 3527.32 1919.73 3527.32C1929.77 3527.32 1937.31 3524.63 1942.33 3519.25C1947.35 3514.06 1949.59 3505.1 1949.06 3492.38C1938.65 3495.6 1929.06 3497.21 1920.27 3497.21C1904.84 3497.21 1891.38 3492.47 1879.9 3482.97C1868.42 3473.29 1862.68 3459.77 1862.68 3442.39V3365.79C1862.68 3363.28 1864.03 3362.02 1866.72 3362.02H1890.13C1892.64 3362.02 1893.9 3363.28 1893.9 3365.79V3441.04C1893.9 3450.72 1896.77 3457.79 1902.51 3462.27C1908.25 3466.75 1915.6 3468.99 1924.57 3468.99C1933.72 3469.17 1941.79 3467.38 1948.79 3463.62Z" fill="#0B2867" fill-opacity="0.05"/>
<path d="M1598.14 1403.3C1622.64 1378.8 1649.14 1384.8 1646.14 1337.3C1646.14 1337.3 1633.13 1301.22 1584.63 1293.3C1465.13 1273.8 1330.63 1390.8 1209.13 1599.3C1087.63 1807.8 1062.63 2114.3 1250.63 2152.8C1401.03 2183.6 1561.63 2008.97 1623.13 1917.8L1659.63 1933.3C1656.63 1951.47 1624.03 2011.9 1517.63 2108.3C1384.63 2228.8 1234.64 2284.3 1071.64 2223.3C908.636 2162.3 852.136 1954.3 972.636 1679.3C1093.14 1404.3 1374.14 1249.3 1473.64 1230.8C1573.14 1212.3 1646.14 1233.3 1684.64 1272.3C1723.14 1311.3 1735.14 1378.3 1714.14 1453.8C1693.14 1529.3 1634.64 1535.8 1602.64 1509.3C1570.64 1482.8 1573.64 1427.8 1598.14 1403.3Z" fill="#E2E9FA"/>
<rect x="634" y="5704.64" width="1920" height="428.07" transform="rotate(-45 634 5704.64)" fill="#E2E9FA"/>
<rect x="-956.154" y="3945.49" width="2747.11" height="56.2417" transform="rotate(-45 -956.154 3945.49)" fill="#E2E9FA"/>
<rect x="-850" y="3967.64" width="1920" height="160.693" transform="rotate(-45 -850 3967.64)" fill="#E2E9FA"/>
<rect x="-376" y="1994.64" width="1920" height="243.489" transform="rotate(-45 -376 1994.64)" fill="#E2E9FA"/>
<rect x="-616.064" y="2133.58" width="1920" height="34.2763" transform="rotate(-45 -616.064 2133.58)" fill="#E2E9FA"/>
<path d="M-400.787 3363.37C-391.998 3360.32 -382.311 3358.8 -371.727 3358.8C-354.148 3358.8 -339.977 3363.81 -329.214 3373.85C-318.451 3383.7 -313.069 3398.93 -313.069 3419.54V3497.21C-313.069 3499.9 -314.325 3501.25 -316.836 3501.25H-340.246C-342.936 3501.25 -344.282 3499.9 -344.282 3497.21V3420.35C-344.282 3407.98 -346.793 3399.29 -351.816 3394.28C-356.839 3389.26 -364.552 3386.75 -374.956 3386.75C-385.719 3386.75 -394.33 3388.36 -400.787 3391.59V3497.21C-400.787 3499.9 -402.133 3501.25 -404.824 3501.25H-427.964C-430.655 3501.25 -432 3499.9 -432 3497.21V3313.11C-432 3310.42 -430.655 3309.08 -427.964 3309.08H-404.824C-402.133 3309.08 -400.787 3310.42 -400.787 3313.11V3363.37Z" fill="#0B2867" fill-opacity="0.05"/>
<path d="M-252.944 3501.25H-276.353C-279.044 3501.25 -280.389 3499.9 -280.389 3497.21V3365.79C-280.389 3363.28 -279.044 3362.02 -276.353 3362.02H-252.944C-250.432 3362.02 -249.177 3363.28 -249.177 3365.79V3497.21C-249.177 3499.9 -250.432 3501.25 -252.944 3501.25ZM-252.137 3313.11C-248.728 3316.33 -247.024 3320.45 -247.024 3325.47C-247.024 3330.49 -248.728 3334.7 -252.137 3338.1C-255.365 3341.51 -259.491 3343.21 -264.514 3343.21C-269.537 3343.21 -273.752 3341.51 -277.16 3338.1C-280.569 3334.7 -282.273 3330.49 -282.273 3325.47C-282.273 3320.45 -280.569 3316.33 -277.16 3313.11C-273.752 3309.7 -269.537 3308 -264.514 3308C-259.491 3308 -255.365 3309.7 -252.137 3313.11Z" fill="#0B2867" fill-opacity="0.05"/>
<path d="M-110.284 3459.86C-110.284 3474.37 -115.576 3485.48 -126.159 3493.18C-136.743 3500.71 -150.466 3504.47 -167.328 3504.47C-187.777 3504.47 -205.985 3498.65 -221.95 3487C-224.102 3485.75 -224.461 3483.96 -223.026 3481.63L-212.801 3464.16C-211.546 3461.83 -209.752 3461.47 -207.42 3463.08C-194.863 3472.22 -181.32 3476.79 -166.79 3476.79C-159.435 3476.79 -153.426 3475.44 -148.762 3472.76C-144.098 3470.07 -141.766 3466.22 -141.766 3461.2C-141.766 3456.36 -144.008 3452.87 -148.493 3450.72C-152.798 3448.57 -158.897 3446.78 -166.79 3445.34C-171.812 3444.45 -176.297 3443.46 -180.243 3442.39C-184.19 3441.31 -188.943 3439.61 -194.504 3437.28C-199.886 3434.95 -204.37 3432.35 -207.958 3429.48C-211.546 3426.44 -214.685 3422.5 -217.376 3417.66C-219.887 3412.64 -221.143 3407 -221.143 3400.73C-221.143 3386.75 -215.671 3376.27 -204.729 3369.28C-193.607 3362.11 -180.064 3358.53 -164.099 3358.53C-148.134 3358.53 -132.528 3362.65 -117.28 3370.89C-114.948 3372.15 -114.5 3373.94 -115.935 3376.27L-126.159 3393.47C-127.594 3395.44 -129.388 3395.89 -131.541 3394.81C-142.483 3388.9 -153.874 3385.94 -165.713 3385.94C-173.427 3385.94 -179.436 3387.29 -183.741 3389.97C-188.046 3392.66 -190.199 3396.25 -190.199 3400.73C-190.199 3405.74 -187.957 3409.33 -183.472 3411.48C-178.808 3413.63 -171.095 3415.78 -160.332 3417.93C-153.336 3419.18 -147.506 3420.53 -142.842 3421.96C-138.178 3423.39 -133.066 3425.63 -127.505 3428.68C-121.765 3431.72 -117.459 3435.85 -114.589 3441.04C-111.719 3446.24 -110.284 3452.51 -110.284 3459.86Z" fill="#0B2867" fill-opacity="0.05"/>
<path d="M-54.4848 3452.6C-54.4848 3459.94 -52.691 3465.68 -49.1033 3469.8C-45.3363 3473.92 -40.0445 3475.98 -33.2279 3475.98C-31.6135 3475.98 -27.9361 3475.8 -22.1959 3475.44C-19.3257 3475.44 -17.8907 3476.7 -17.8907 3479.21V3499.63C-17.8907 3502.32 -19.1464 3503.75 -21.6577 3503.93C-27.7567 3504.29 -32.5104 3504.47 -35.9187 3504.47C-50.8074 3504.47 -62.8261 3500.44 -71.9746 3492.38C-81.1231 3484.13 -85.6974 3471.59 -85.6974 3454.75V3331.92C-85.6974 3329.41 -84.3521 3328.16 -81.6613 3328.16H-61.2116C-58.8797 3328.16 -57.5343 3329.32 -57.1755 3331.65L-54.7539 3363.9H-25.9629C-23.2722 3363.9 -21.9268 3365.16 -21.9268 3367.67V3387.29C-21.9268 3389.8 -23.2722 3391.05 -25.9629 3391.05H-54.4848V3452.6Z" fill="#0B2867" fill-opacity="0.05"/>
<path d="M121.786 3450.18C121.786 3466.84 116.225 3480.1 105.103 3489.96C93.9817 3499.63 79.093 3504.47 60.4372 3504.47C41.7814 3504.47 26.8926 3499.63 15.7709 3489.96C4.64914 3480.1 -0.911688 3466.84 -0.911688 3450.18V3414.16C-0.911688 3397.32 4.64914 3383.88 15.7709 3373.85C26.8926 3363.81 41.7814 3358.8 60.4372 3358.8C79.093 3358.8 93.9817 3363.81 105.103 3373.85C116.225 3383.88 121.786 3397.32 121.786 3414.16V3450.18ZM30.57 3450.18C30.57 3467.74 40.5257 3476.52 60.4372 3476.52C70.1239 3476.52 77.4785 3474.28 82.5013 3469.8C87.7034 3465.32 90.3044 3458.78 90.3044 3450.18V3414.16C90.3044 3405.38 87.7034 3398.67 82.5013 3394.01C77.2992 3389.17 69.9445 3386.75 60.4372 3386.75C50.7505 3386.75 43.3061 3389.08 38.104 3393.74C33.0813 3398.4 30.57 3405.21 30.57 3414.16V3450.18Z" fill="#0B2867" fill-opacity="0.05"/>
<path d="M177.983 3501.25H154.842C152.152 3501.25 150.806 3499.9 150.806 3497.21V3373.58C150.806 3371.25 151.793 3369.73 153.766 3369.01C167.758 3362.2 183.454 3358.8 200.854 3358.8C210.002 3358.8 219.151 3359.51 228.3 3360.95C230.631 3361.13 231.797 3362.47 231.797 3364.98V3384.33C231.797 3387.02 230.362 3388.09 227.492 3387.56C223.008 3386.84 215.743 3386.48 205.697 3386.48C195.831 3386.48 187.938 3387.74 182.019 3390.24V3497.21C182.019 3499.9 180.673 3501.25 177.983 3501.25Z" fill="#0B2867" fill-opacity="0.05"/>
<path d="M337.787 3463.62V3365.79C337.787 3363.28 339.133 3362.02 341.824 3362.02H364.964C367.655 3362.02 369 3363.28 369 3365.79V3492.38C369 3534.13 348.999 3555 308.997 3555C287.471 3555 269.891 3549.36 256.258 3538.07C254.285 3536.63 254.016 3534.84 255.451 3532.69L267.021 3516.3C268.456 3513.97 270.16 3513.52 272.133 3514.95C284.152 3523.2 296.35 3527.32 308.727 3527.32C318.773 3527.32 326.307 3524.63 331.33 3519.25C336.352 3514.06 338.595 3505.1 338.057 3492.38C327.652 3495.6 318.055 3497.21 309.266 3497.21C293.839 3497.21 280.385 3492.47 268.904 3482.97C257.424 3473.29 251.684 3459.77 251.684 3442.39V3365.79C251.684 3363.28 253.029 3362.02 255.72 3362.02H279.129C281.641 3362.02 282.896 3363.28 282.896 3365.79V3441.04C282.896 3450.72 285.766 3457.79 291.507 3462.27C297.247 3466.75 304.602 3468.99 313.571 3468.99C322.719 3469.17 330.792 3467.38 337.787 3463.62Z" fill="#0B2867" fill-opacity="0.05"/>
<rect x="1304.67" y="5842.71" width="626.267" height="103.237" transform="rotate(-45 1304.67 5842.71)" fill="white" fill-opacity="0.1"/>
<rect x="224" y="5853.55" width="690.917" height="103.237" transform="rotate(-45 224 5853.55)" fill="white" fill-opacity="0.1"/>
<path d="M1072 6030.01L1476.74 5625.27L1476.74 5638.61L1490.09 5638.61L1085.35 6043.36L1072 6030.01Z" fill="white" fill-opacity="0.1"/>
<path d="M2211.09 5357.35L1806.35 5762.09L1806.35 5748.75L1793 5748.75L2197.74 5344L2211.09 5357.35Z" fill="white" fill-opacity="0.1"/>
<path d="M838.73 5452.71L657.347 5634.09L653.664 5624.43L644 5620.74L825.383 5439.36L838.73 5452.71Z" fill="white" fill-opacity="0.1"/>
<path d="M450.092 5206.35L45.3468 5611.09L45.3468 5597.75L31.9994 5597.75L436.744 5193L450.092 5206.35Z" fill="white" fill-opacity="0.1"/>
<path d="M1457.36 5859.49L1758.64 5558.2L1776.06 5585.56L1803.42 5602.97L1502.13 5904.26L1457.36 5859.49Z" fill="white" fill-opacity="0.1"/>
<path d="M-386 6076.51L301.506 5389L312.556 5422.72L346.278 5433.77L-341.228 6121.28L-386 6076.51Z" fill="white" fill-opacity="0.1"/>
</g>
<defs>
<clipPath id="clip0_53:2">
<rect width="1920" height="5828" fill="white"/>
</clipPath>
</defs>
</svg>
