<?xml version="1.0" encoding="UTF-8" standalone="no"?>
<!-- Created with Inkscape (http://www.inkscape.org/) -->

<svg
   width="210mm"
   height="297mm"
   viewBox="0 0 210 297"
   version="1.1"
   id="svg933"
   inkscape:version="1.1.1 (3bf5ae0d25, 2021-09-20)"
   sodipodi:docname="1.svg"
   xmlns:inkscape="http://www.inkscape.org/namespaces/inkscape"
   xmlns:sodipodi="http://sodipodi.sourceforge.net/DTD/sodipodi-0.dtd"
   xmlns="http://www.w3.org/2000/svg"
   xmlns:svg="http://www.w3.org/2000/svg">
  <sodipodi:namedview
     id="namedview935"
     pagecolor="#ffffff"
     bordercolor="#666666"
     borderopacity="1.0"
     inkscape:pageshadow="2"
     inkscape:pageopacity="0.0"
     inkscape:pagecheckerboard="0"
     inkscape:document-units="mm"
     showgrid="false"
     inkscape:zoom="0.26547419"
     inkscape:cx="581.97749"
     inkscape:cy="685.56571"
     inkscape:window-width="1600"
     inkscape:window-height="831"
     inkscape:window-x="0"
     inkscape:window-y="0"
     inkscape:window-maximized="1"
     inkscape:current-layer="layer1" />
  <defs
     id="defs930">
    <clipPath
       clipPathUnits="userSpaceOnUse"
       id="clipPath84">
      <path
         d="M 0,1080 H 1920 V 0 H 0 Z"
         id="path82" />
    </clipPath>
  </defs>
  <g
     inkscape:label="Слой 1"
     inkscape:groupmode="layer"
     id="layer1">
    <g
       id="g78"
       transform="matrix(0.35277777,0,0,-0.35277777,-362.47873,411.91794)">
      <g
         id="g80"
         clip-path="url(#clipPath84)">
        <g
           id="g86"
           transform="translate(445.3018,894.1123)">
          <path
             d="m 0,0 c -5.812,0 -10.524,4.713 -10.524,10.525 0,5.811 4.712,10.525 10.524,10.525 5.812,0 10.524,-4.714 10.524,-10.525 C 10.524,4.713 5.812,0 0,0 m 0,31.654 c -11.647,0 -21.129,-9.482 -21.129,-21.129 0,-11.655 9.482,-21.129 21.129,-21.129 11.655,0 21.129,9.474 21.129,21.129 0,11.647 -9.474,21.129 -21.129,21.129"
             style="fill:#ffffff;fill-opacity:1;fill-rule:nonzero;stroke:none"
             id="path88" />
        </g>
        <g
           id="g90"
           transform="translate(491.4609,894.1123)">
          <path
             d="m 0,0 c -5.812,0 -10.517,4.713 -10.517,10.525 0,5.811 4.705,10.525 10.517,10.525 5.819,0 10.524,-4.714 10.524,-10.525 C 10.524,4.713 5.819,0 0,0 m 0.008,31.654 c -11.655,0 -21.137,-9.482 -21.137,-21.129 0,-11.655 9.482,-21.129 21.137,-21.129 11.646,0 21.129,9.474 21.129,21.129 0,11.647 -9.483,21.129 -21.129,21.129"
             style="fill:#ffffff;fill-opacity:1;fill-rule:nonzero;stroke:none"
             id="path92" />
        </g>
        <g
           id="g94"
           transform="translate(530.7285,833.1426)">
          <path
             d="m 0,0 -21.283,15.313 -6.446,4.639 c -0.003,0.003 -0.007,0.005 -0.011,0.008 L -28.09,20.211 0,40.424 Z m -34.522,-0.511 h -55.645 v 41.446 h 55.645 V 29.605 23.953 16.47 10.818 Z m 37.707,47.15 -23.84,-17.156 v 0.001 l -8.933,-6.427 c -0.496,-0.358 -0.969,-0.18 -1.148,-0.087 -0.181,0.092 -0.602,0.374 -0.602,0.983 v 5.652 14.514 H -93.352 V -3.694 h 62.014 v 14.512 5.652 c 0,0.61 0.421,0.891 0.602,0.984 0.178,0.091 0.648,0.268 1.142,-0.083 L 3.185,-6.215 Z"
             style="fill:#ffffff;fill-opacity:1;fill-rule:nonzero;stroke:none"
             id="path96" />
        </g>
        <g
           id="g98"
           transform="translate(861.4385,178.8135)">
          <path
             d="m 0,0 c 0,-5.353 -4.357,-9.703 -9.709,-9.703 -5.353,0 -9.703,4.35 -9.703,9.703 0,5.352 4.35,9.709 9.703,9.709 C -4.357,9.709 0,5.352 0,0"
             style="fill:#ffffff;fill-opacity:1;fill-rule:nonzero;stroke:none"
             id="path100" />
        </g>
        <g
           id="g102"
           transform="translate(888.6445,178.8135)">
          <path
             d="m 0,0 c 0,-5.353 -4.357,-9.703 -9.71,-9.703 -5.352,0 -9.71,4.35 -9.71,9.703 0,5.352 4.358,9.709 9.71,9.709 C -4.357,9.709 0,5.352 0,0"
             style="fill:#ffffff;fill-opacity:1;fill-rule:nonzero;stroke:none"
             id="path104" />
        </g>
        <g
           id="g106"
           transform="translate(915.8369,178.8135)">
          <path
             d="m 0,0 c 0,-5.353 -4.352,-9.703 -9.703,-9.703 -5.353,0 -9.703,4.35 -9.703,9.703 0,5.352 4.35,9.709 9.703,9.709 C -4.352,9.709 0,5.352 0,0"
             style="fill:#ffffff;fill-opacity:1;fill-rule:nonzero;stroke:none"
             id="path108" />
        </g>
        <g
           id="g110"
           transform="translate(875.042,202.623)">
          <path
             d="m 0,0 c 0,-5.353 -4.358,-9.71 -9.71,-9.71 -5.353,0 -9.71,4.357 -9.71,9.71 0,5.352 4.357,9.71 9.71,9.71 C -4.358,9.71 0,5.352 0,0"
             style="fill:#ffffff;fill-opacity:1;fill-rule:nonzero;stroke:none"
             id="path112" />
        </g>
        <g
           id="g114"
           transform="translate(902.2402,202.623)">
          <path
             d="m 0,0 c 0,-5.353 -4.357,-9.71 -9.703,-9.71 -5.352,0 -9.709,4.357 -9.709,9.71 0,5.352 4.357,9.71 9.709,9.71 C -4.357,9.71 0,5.352 0,0"
             style="fill:#ffffff;fill-opacity:1;fill-rule:nonzero;stroke:none"
             id="path116" />
        </g>
        <g
           id="g118"
           transform="translate(888.6445,226.4258)">
          <path
             d="m 0,0 c 0,-5.358 -4.357,-9.709 -9.71,-9.709 -5.352,0 -9.71,4.351 -9.71,9.709 0,5.353 4.358,9.703 9.71,9.703 C -4.357,9.703 0,5.353 0,0"
             style="fill:#ffffff;fill-opacity:1;fill-rule:nonzero;stroke:none"
             id="path120" />
        </g>
        <g
           id="g122"
           transform="translate(867.9785,242.5391)">
          <path
             d="m 0,0 -35.858,-62.108 c -2.288,-3.96 -2.288,-8.689 0,-12.648 2.285,-3.96 6.38,-6.324 10.952,-6.324 h 71.718 c 4.572,0 8.667,2.364 10.953,6.324 2.286,3.959 2.286,8.688 0,12.648 L 21.905,0 C 19.62,3.96 15.525,6.323 10.953,6.323 6.381,6.323 2.286,3.96 0,0 m 46.812,-84.265 h -71.718 c -5.724,0 -10.849,2.959 -13.711,7.916 -2.862,4.957 -2.862,10.875 0,15.832 l 35.858,62.11 c 2.863,4.956 7.988,7.915 13.712,7.915 5.724,0 10.849,-2.959 13.711,-7.915 l 35.858,-62.11 c 2.863,-4.957 2.863,-10.875 0,-15.832 -2.861,-4.957 -7.987,-7.916 -13.71,-7.916"
             style="fill:#ffffff;fill-opacity:1;fill-rule:nonzero;stroke:none"
             id="path124" />
        </g>
        <g
           id="g126"
           transform="translate(1298.9248,859.2197)">
          <path
             d="m 0,0 v -25.284 c 0,-2.373 1.378,-3.614 9.203,-4.212 3.909,-0.311 4.992,-3.057 5.231,-3.893 0.358,-1.242 0.135,-2.54 -0.614,-3.55 -0.796,-1.051 -2.061,-1.665 -3.399,-1.665 h -30.737 c -1.338,0 -2.604,0.614 -3.392,1.648 -0.765,1.027 -0.987,2.325 -0.613,3.583 0.231,0.82 1.313,3.566 5.222,3.877 7.827,0.598 9.203,1.839 9.203,4.212 V 0 c 0,4.268 -2.149,5.493 -4.879,7.046 -5.869,3.344 -12.078,8.049 -13.615,17.57 -1.472,9.131 4.188,27.02 4.841,29.027 l 0.112,0.349 h 2.5 l -0.343,-1.074 c -0.255,-0.788 -6.154,-19.194 -4.753,-27.92 1.378,-8.526 7.061,-12.81 12.435,-15.882 C -10.739,7.5 -7.507,5.66 -7.507,0 v -25.284 c 0,-5.286 -5.167,-6.114 -11.409,-6.592 -2.221,-0.176 -2.905,-1.434 -3.112,-2.174 -0.167,-0.533 -0.08,-1.051 0.23,-1.465 0.335,-0.437 0.884,-0.7 1.482,-0.7 h 30.737 c 0.598,0 1.155,0.263 1.489,0.7 0.295,0.407 0.382,0.932 0.223,1.465 -0.207,0.74 -0.892,1.998 -3.112,2.174 -6.243,0.478 -11.409,1.306 -11.409,6.592 V 0 c 0,5.66 3.24,7.5 6.09,9.124 5.382,3.064 11.058,7.355 12.436,15.874 1.401,8.726 -4.498,27.132 -4.753,27.912 l -0.359,1.082 h 2.516 L 13.653,53.65 C 14.307,51.636 19.967,33.747 18.494,24.616 16.966,15.11 10.756,10.397 4.889,7.046 2.157,5.493 0,4.268 0,0"
             style="fill:#ffffff;fill-opacity:1;fill-rule:nonzero;stroke:none"
             id="path128" />
        </g>
        <g
           id="g130"
           transform="translate(1301.7588,888.5332)">
          <path
             d="m 0,0 c 0.73,10.396 2.822,41.592 2.822,41.592 0.046,0.684 0.722,1.154 1.379,0.955 8.234,-2.497 10.983,-10.06 11.013,-10.143 h 2.161 C 16.349,38.086 11.515,47.768 1.083,51.198 L -1.946,6.647 c -1.827,2.49 -4.766,4.116 -8.083,4.116 -5.532,0 -10.032,-4.5 -10.032,-10.031 0,-5.531 4.5,-10.03 10.032,-10.03 5.284,0 9.665,4.107 10.029,9.298"
             style="fill:#ffffff;fill-opacity:1;fill-rule:nonzero;stroke:none"
             id="path132" />
        </g>
        <path
           d="m 1230.814,643.694 h 6.485 v 16.843 h -6.485 z"
           style="fill:#ffffff;fill-opacity:1;fill-rule:nonzero;stroke:none"
           id="path134" />
        <g
           id="g136"
           transform="translate(1332.3457,653.708)">
          <path
             d="m 0,0 h -85.267 v 14.584 h -6.485 v -32.353 h 6.485 V -3.185 H 0 V -17.769 H 6.485 V 14.584 H 0 Z"
             style="fill:#ffffff;fill-opacity:1;fill-rule:nonzero;stroke:none"
             id="path138" />
        </g>
        <path
           d="m 1342.125,643.694 h 6.486 v 16.843 h -6.486 z"
           style="fill:#ffffff;fill-opacity:1;fill-rule:nonzero;stroke:none"
           id="path140" />
        <g
           id="g142"
           transform="translate(842.6377,692.3213)">
          <path
             d="m 0,0 -8.9,-8.9 c -0.24,0.693 -0.359,1.433 -0.359,2.197 0,3.901 3.16,7.061 7.062,7.061 C -1.434,0.358 -0.692,0.239 0,0"
             style="fill:#ffffff;fill-opacity:1;fill-rule:nonzero;stroke:none"
             id="path144" />
        </g>
        <g
           id="g146"
           transform="translate(847.4941,685.6182)">
          <path
             d="m 0,0 c 0,-3.893 -3.161,-7.054 -7.054,-7.054 -0.772,0 -1.512,0.12 -2.205,0.351 l 8.908,8.909 C -0.12,1.513 0,0.772 0,0"
             style="fill:#ffffff;fill-opacity:1;fill-rule:nonzero;stroke:none"
             id="path148" />
        </g>
        <path
           d="m 857.394,684.427 h -5.877 v 2.388 h 5.877 z"
           style="fill:#ffffff;fill-opacity:1;fill-rule:nonzero;stroke:none"
           id="path150" />
        <path
           d="m 841.632,696.699 h -2.388 v 5.877 h 2.388 z"
           style="fill:#ffffff;fill-opacity:1;fill-rule:nonzero;stroke:none"
           id="path152" />
        <g
           id="g154"
           transform="translate(831.7598,692.6104)">
          <path
             d="M 0,0 -4.155,4.155 -2.467,5.844 1.688,1.689 Z"
             style="fill:#ffffff;fill-opacity:1;fill-rule:nonzero;stroke:none"
             id="path156" />
        </g>
        <path
           d="m 829.359,684.427 h -5.876 v 2.388 h 5.876 z"
           style="fill:#ffffff;fill-opacity:1;fill-rule:nonzero;stroke:none"
           id="path158" />
        <path
           d="m 841.632,668.666 h -2.388 v 5.877 h 2.388 z"
           style="fill:#ffffff;fill-opacity:1;fill-rule:nonzero;stroke:none"
           id="path160" />
        <g
           id="g162"
           transform="translate(851.583,672.7881)">
          <path
             d="m 0,0 -4.155,4.154 1.688,1.69 4.155,-4.156 z"
             style="fill:#ffffff;fill-opacity:1;fill-rule:nonzero;stroke:none"
             id="path164" />
        </g>
        <g
           id="g166"
           transform="translate(824.0459,668.1035)">
          <path
             d="M 0,0 -1.126,1.125 32.785,35.035 33.91,33.91 Z"
             style="fill:#ffffff;fill-opacity:1;fill-rule:nonzero;stroke:none"
             id="path168" />
        </g>
        <g
           id="g170"
           transform="translate(917.3818,661.7568)">
          <path
             d="m 0,0 c -7.844,0 -14.225,-6.382 -14.225,-14.226 0,-7.843 6.381,-14.224 14.225,-14.224 7.844,0 14.225,6.381 14.225,14.224 C 14.225,-6.382 7.844,0 0,0"
             style="fill:#ffffff;fill-opacity:1;fill-rule:nonzero;stroke:none"
             id="path172" />
        </g>
        <g
           id="g174"
           transform="translate(938.208,618.5693)">
          <path
             d="m 0,0 c -3.24,-1.369 -6.306,-2.659 -10.317,-2.659 -3.829,0 -8.926,0.923 -21.114,12.874 -3.452,3.386 -7.658,7.714 -13.271,12.873 -13.065,12.021 -28.931,19.894 -56.237,-3.727 l -0.319,-0.278 6.87,-6.87 0.28,0.223 c 4.975,3.949 14.552,10.397 22.753,9.235 3.359,-0.486 6.161,-2.222 8.334,-5.183 -4.334,-5.868 -18.738,-19.147 -30.817,-19.147 -4.005,0 -7.069,1.29 -10.318,2.659 -3.176,1.346 -6.464,2.739 -10.565,2.739 V 0.12 c 7.731,0 12.42,-5.397 20.883,-5.397 8.471,0 13.159,5.397 20.882,5.397 7.73,0 12.42,-5.397 20.882,-5.397 8.47,0 13.152,5.397 20.883,5.397 7.729,0 12.411,-5.397 20.881,-5.397 8.463,0 13.152,5.397 20.874,5.397 V 2.739 C 6.473,2.739 3.185,1.346 0,0"
             style="fill:#ffffff;fill-opacity:1;fill-rule:nonzero;stroke:none"
             id="path176" />
        </g>
        <g
           id="g178"
           transform="translate(884.1904,866.6045)">
          <path
             d="m 0,0 c -0.716,-4.442 -3.526,-6.074 -7.802,-6.074 h -21.415 c -0.844,0 -1.529,-0.685 -1.529,-1.529 v -26.168 h -3.185 v 26.168 c 0,2.595 2.111,4.713 4.714,4.713 h 14.314 c 4.379,0 6.871,3.073 6.871,6.87 0,3.791 -2.492,6.863 -6.871,6.863 h -15.843 v 3.184 h 11.616 c 3.025,0 4.195,0.924 5.127,3.296 1.465,3.742 4.673,11.926 6.926,17.674 l 3.909,1.528 C 0.884,23.374 1.02,6.345 0,0"
             style="fill:#ffffff;fill-opacity:1;fill-rule:nonzero;stroke:none"
             id="path180" />
        </g>
        <g
           id="g182"
           transform="translate(882.8965,916.6865)">
          <path
             d="m 0,0 c 0,-5.539 -4.508,-10.047 -10.047,-10.047 -5.538,0 -10.043,4.508 -10.043,10.047 0,5.538 4.505,10.043 10.043,10.043 C -4.508,10.043 0,5.538 0,0"
             style="fill:#ffffff;fill-opacity:1;fill-rule:nonzero;stroke:none"
             id="path184" />
        </g>
        <g
           id="g186"
           transform="translate(844.4414,869.3867)">
          <path
             d="m 0,0 c -1.627,0 -3.121,0.889 -3.898,2.318 l -9.842,18.117 2.099,1.139 L -1.8,3.459 C -1.441,2.799 -0.751,2.388 0,2.388 L 20.616,2.389 V 0 Z"
             style="fill:#ffffff;fill-opacity:1;fill-rule:nonzero;stroke:none"
             id="path188" />
        </g>
        <g
           id="g190"
           transform="translate(899.4141,866.6045)">
          <path
             d="m 0,0 c 0.716,-4.442 3.526,-6.074 7.802,-6.074 h 21.415 c 0.845,0 1.529,-0.685 1.529,-1.529 v -26.168 h 3.185 v 26.168 c 0,2.595 -2.111,4.713 -4.714,4.713 H 14.903 c -4.379,0 -6.871,3.073 -6.871,6.87 0,3.791 2.492,6.863 6.871,6.863 h 15.843 v 3.184 H 19.131 c -3.026,0 -4.196,0.924 -5.127,3.296 C 12.539,21.065 9.33,29.249 7.077,34.997 L 3.168,36.525 C -0.884,23.374 -1.02,6.345 0,0"
             style="fill:#ffffff;fill-opacity:1;fill-rule:nonzero;stroke:none"
             id="path192" />
        </g>
        <g
           id="g194"
           transform="translate(900.708,916.6865)">
          <path
             d="m 0,0 c 0,-5.539 4.508,-10.047 10.047,-10.047 5.538,0 10.043,4.508 10.043,10.047 0,5.538 -4.505,10.043 -10.043,10.043 C 4.508,10.043 0,5.538 0,0"
             style="fill:#ffffff;fill-opacity:1;fill-rule:nonzero;stroke:none"
             id="path196" />
        </g>
        <g
           id="g198"
           transform="translate(939.1631,869.3867)">
          <path
             d="M 0,0 C 1.627,0 3.121,0.889 3.898,2.318 L 13.74,20.435 11.641,21.574 1.8,3.459 C 1.441,2.799 0.751,2.388 0,2.388 L -20.616,2.389 V 0 Z"
             style="fill:#ffffff;fill-opacity:1;fill-rule:nonzero;stroke:none"
             id="path200" />
        </g>
        <g
           id="g202"
           transform="translate(473.2119,460.3174)">
          <path
             d="m 0,0 c 0,-4.264 3.471,-7.734 7.733,-7.734 4.264,0 7.731,3.47 7.731,7.734 0,4.263 -3.467,7.729 -7.731,7.729 C 3.471,7.729 0,4.263 0,0"
             style="fill:#ffffff;fill-opacity:1;fill-rule:nonzero;stroke:none"
             id="path204" />
        </g>
        <g
           id="g206"
           transform="translate(496.4863,429.416)">
          <path
             d="m 0,0 h -31.12 c 2.468,9.456 5.899,18.311 15.58,18.311 C -6.218,18.311 -3.073,10.796 0,0"
             style="fill:#ffffff;fill-opacity:1;fill-rule:nonzero;stroke:none"
             id="path208" />
        </g>
        <g
           id="g210"
           transform="translate(446.584,407.5781)">
          <path
             d="m 0,0 v 2.388 h -14.636 c -4.905,0 -7.123,1.915 -8.179,7.065 -1.762,8.581 -4.272,21.119 -4.297,21.244 l -2.342,-0.468 c 0.025,-0.125 2.536,-12.668 4.299,-21.256 C -23.881,2.768 -20.637,0 -14.636,0 h 1.269 v -17.468 h -7.522 v -2.388 h 17.431 v 2.388 h -7.521 V 0 Z"
             style="fill:#ffffff;fill-opacity:1;fill-rule:nonzero;stroke:none"
             id="path212" />
        </g>
        <g
           id="g214"
           transform="translate(433.625,423.3018)">
          <path
             d="m 0,0 c 0,-1.839 0.597,-6.114 6.114,-6.114 h 10.071 c 2.206,0 3.997,-1.791 3.997,-3.996 v -20.508 h -3.185 v 20.508 c 0,0.445 -0.366,0.811 -0.812,0.811 H 0.677 c -3.742,0 -6.322,1.975 -6.322,6.584 v 25.412 h 3.854 C 0,18.805 1.967,14.537 3.001,12.284 4.076,9.943 5.7,9.299 8.072,9.299 h 12.11 V 6.114 H 6.114 C 0.597,6.114 0,1.839 0,0"
             style="fill:#ffffff;fill-opacity:1;fill-rule:nonzero;stroke:none"
             id="path216" />
        </g>
        <g
           id="g218"
           transform="translate(423.2041,458.6074)">
          <path
             d="m 0,0 c 0,-4.263 3.471,-7.733 7.733,-7.733 4.264,0 7.731,3.47 7.731,7.733 0,4.263 -3.467,7.73 -7.731,7.73 C 3.471,7.73 0,4.263 0,0"
             style="fill:#ffffff;fill-opacity:1;fill-rule:nonzero;stroke:none"
             id="path220" />
        </g>
        <path
           d="m 439.822,422.106 h 82.243 v 2.388 h -82.243 z"
           style="fill:#ffffff;fill-opacity:1;fill-rule:nonzero;stroke:none"
           id="path222" />
        <g
           id="g224"
           transform="translate(515.3037,407.5781)">
          <path
             d="m 0,0 v 2.388 h 14.636 c 4.905,0 7.123,1.915 8.179,7.065 1.762,8.581 4.272,21.119 4.297,21.244 l 2.342,-0.468 C 29.429,30.104 26.918,17.561 25.155,8.973 23.881,2.768 20.637,0 14.636,0 h -1.269 v -17.468 h 7.522 v -2.388 H 3.458 v 2.388 h 7.521 V 0 Z"
             style="fill:#ffffff;fill-opacity:1;fill-rule:nonzero;stroke:none"
             id="path226" />
        </g>
        <g
           id="g228"
           transform="translate(528.2627,423.3018)">
          <path
             d="m 0,0 c 0,-1.839 -0.597,-6.114 -6.114,-6.114 h -10.071 c -2.206,0 -3.997,-1.791 -3.997,-3.996 v -20.508 h 3.185 v 20.508 c 0,0.445 0.366,0.811 0.812,0.811 h 15.508 c 3.742,0 6.322,1.975 6.322,6.584 V 22.697 H 1.791 C 0,18.805 -1.966,14.537 -3.001,12.284 -4.076,9.943 -5.7,9.299 -8.072,9.299 h -12.11 V 6.114 H -6.114 C -0.597,6.114 0,1.839 0,0"
             style="fill:#ffffff;fill-opacity:1;fill-rule:nonzero;stroke:none"
             id="path230" />
        </g>
        <g
           id="g232"
           transform="translate(538.6836,458.6074)">
          <path
             d="m 0,0 c 0,-4.263 -3.471,-7.733 -7.733,-7.733 -4.264,0 -7.731,3.47 -7.731,7.733 0,4.263 3.467,7.73 7.731,7.73 C -3.471,7.73 0,4.263 0,0"
             style="fill:#ffffff;fill-opacity:1;fill-rule:nonzero;stroke:none"
             id="path234" />
        </g>
        <g
           id="g236"
           transform="translate(506.9912,241.8018)">
          <path
             d="m 0,0 h 14.409 c 4.828,0 8.756,3.928 8.756,8.757 0,4.829 -3.928,8.758 -8.756,8.758 H 0 Z m 0,-18.894 h -3.185 v 39.592 h 17.594 c 6.584,0 11.941,-5.356 11.941,-11.941 0,-6.585 -5.357,-11.942 -11.941,-11.942 L 0,-3.185 Z"
             style="fill:#ffffff;fill-opacity:1;fill-rule:nonzero;stroke:none"
             id="path238" />
        </g>
        <path
           d="M 535.388,160.558 H 410.996 v 2.388 h 124.392 z"
           style="fill:#ffffff;fill-opacity:1;fill-rule:nonzero;stroke:none"
           id="path240" />
        <g
           id="g242"
           transform="translate(450.8125,181.4336)">
          <path
             d="M 0,0 C -0.008,-1.099 -0.144,-2.166 -0.406,-3.185 H 47.011 C 46.748,-2.166 46.612,-1.099 46.604,0 Z m 85.94,4.633 -1.599,5.811 C 82.056,18.589 76.762,20.937 68.96,22.092 l -16.83,2.5 c -3.614,0.533 -7.023,2.253 -9.609,4.832 l -9.817,9.824 -2.253,-2.253 9.824,-9.824 c 1.059,-1.059 2.246,-1.99 3.511,-2.786 l -57.384,1.131 c -1.743,0 -3.232,0.182 -4.561,0.556 l -0.454,0.136 c -0.773,0.223 -1.505,0.43 -2.341,0.565 -1.791,0.287 -3.375,0.167 -5.302,-0.398 -1.752,-0.51 -4.251,-1.616 -5.573,-2.349 -4.275,-2.372 -7.149,-6.13 -8.319,-10.875 -0.82,-3.319 -1.258,-6.599 -1.218,-9.004 0.088,-4.315 3.272,-7.332 7.754,-7.332 h 7.364 c -0.263,1.019 -0.398,2.086 -0.406,3.185 h -6.958 c -3.312,0 -4.53,2.269 -4.57,4.211 -0.04,2.101 0.382,5.167 1.13,8.176 0.948,3.869 3.288,6.926 6.768,8.853 1.178,0.653 3.43,1.64 4.928,2.086 0.955,0.278 1.767,0.414 2.587,0.414 0.43,0 0.86,-0.04 1.306,-0.112 0.652,-0.103 1.266,-0.278 1.974,-0.485 l 0.462,-0.135 c 1.608,-0.454 3.383,-0.677 5.389,-0.677 h 0.008 c 0,0 37.729,-0.78 50.307,-0.995 15.214,-0.263 22.681,-1.035 31.821,-2.389 6.87,-1.018 10.939,-2.818 12.77,-9.354 L 82.876,3.781 C 83.146,2.794 82.899,1.751 82.199,0.971 81.609,0.326 80.742,0 79.866,0 h -6.607 c -0.008,-1.099 -0.144,-2.166 -0.406,-3.185 h 7.14 c 1.944,0 3.735,0.892 4.912,2.436 1.179,1.545 1.553,3.511 1.035,5.382"
             style="fill:#ffffff;fill-opacity:1;fill-rule:nonzero;stroke:none"
             id="path244" />
        </g>
        <g
           id="g246"
           transform="translate(437.4863,190.9336)">
          <path
             d="m 0,0 c -5.197,0 -9.424,-4.227 -9.424,-9.423 0,-5.197 4.227,-9.425 9.424,-9.425 5.196,0 9.424,4.228 9.424,9.425 C 9.424,-4.227 5.196,0 0,0"
             style="fill:#ffffff;fill-opacity:1;fill-rule:nonzero;stroke:none"
             id="path248" />
        </g>
        <g
           id="g250"
           transform="translate(510.7422,190.9336)">
          <path
             d="m 0,0 c -5.196,0 -9.424,-4.227 -9.424,-9.423 0,-5.197 4.228,-9.425 9.424,-9.425 5.197,0 9.424,4.228 9.424,9.425 C 9.424,-4.227 5.197,0 0,0"
             style="fill:#ffffff;fill-opacity:1;fill-rule:nonzero;stroke:none"
             id="path252" />
        </g>
        <g
           id="g254"
           transform="translate(437.916,212.8125)">
          <path
             d="m 0,0 c -0.913,0.054 -1.868,-0.364 -2.407,-1.128 -1.672,-2.364 -0.422,-6.355 -0.367,-6.523 l 8.524,0.456 c 0,0 -1.501,3.034 -2.654,4.858 C 2.117,-0.788 1.237,-0.052 0,0"
             style="fill:#ffffff;fill-opacity:1;fill-rule:nonzero;stroke:none"
             id="path256" />
        </g>
        <g
           id="g258"
           transform="translate(460.3457,212.8125)">
          <path
             d="m 0,0 c -0.913,0.054 -1.868,-0.364 -2.407,-1.128 -1.672,-2.364 -0.422,-6.355 -0.367,-6.523 l 8.524,0.456 c 0,0 -1.501,3.034 -2.654,4.858 C 2.117,-0.788 1.237,-0.052 0,0"
             style="fill:#ffffff;fill-opacity:1;fill-rule:nonzero;stroke:none"
             id="path260" />
        </g>
        <g
           id="g262"
           transform="translate(1348.8428,426.8018)">
          <path
             d="m 0,0 -9.063,-21.086 c -3.872,-9.011 -12.711,-14.833 -22.52,-14.833 h -54.551 c -9.96,0 -18.063,8.104 -18.063,18.064 0,9.959 8.103,18.063 18.063,18.063 h 15.701 37.797 c 6.349,0 11.512,-5.164 11.512,-11.512 0,-6.347 -5.163,-11.511 -11.512,-11.511 h -53.498 c -2.734,0 -4.959,2.225 -4.959,4.96 0,2.734 2.225,4.959 4.959,4.959 h 53.498 v 3.185 h -53.498 c -4.49,0 -8.143,-3.654 -8.143,-8.144 0,-4.492 3.653,-8.145 8.143,-8.145 h 53.498 c 8.104,0 14.697,6.593 14.697,14.696 0,8.104 -6.593,14.697 -14.697,14.697 h -37.797 -4.559 c -0.671,0 -0.995,0.455 -1.104,0.65 -0.108,0.195 -0.322,0.713 0.035,1.282 L -56.9,35.854 c 0.876,1.397 2.383,2.231 4.031,2.231 h 6.544 20.577 C -10.39,38.085 2.105,25.589 2.105,10.23 2.105,6.693 1.397,3.251 0,0 m -101.651,3.393 c -1.376,0 -2.589,0.72 -3.248,1.928 -0.659,1.208 -0.607,2.62 0.14,3.776 l 16.061,24.888 c 1.655,2.567 4.469,4.1 7.522,4.1 h 9.998 2.772 c 0.675,0 0.998,-0.458 1.106,-0.656 0.109,-0.197 0.321,-0.717 -0.043,-1.285 L -86.841,5.593 c -0.879,-1.378 -2.379,-2.2 -4.013,-2.2 h -4.851 z m 75.204,37.876 h -19.878 -24.853 -9.998 c -4.14,0 -7.953,-2.078 -10.199,-5.557 l -16.061,-24.889 c -1.367,-2.119 -1.481,-4.699 -0.314,-6.925 1.221,-2.328 3.732,-3.69 6.361,-3.69 h 3.346 c 0.217,0 0.297,-0.276 0.116,-0.396 -5.96,-3.993 -9.798,-10.917 -9.43,-18.693 0.539,-11.407 10.281,-20.223 21.701,-20.223 h 54.075 c 11.068,0 21.074,6.59 25.444,16.76 L 2.927,-1.257 C 5.04,3.662 5.749,8.974 5,14.408 2.861,29.924 -10.785,41.269 -26.447,41.269"
             style="fill:#ffffff;fill-opacity:1;fill-rule:nonzero;stroke:none"
             id="path264" />
        </g>
        <g
           id="g266"
           transform="translate(602.1152,840.6377)">
          <path
             d="m 0,0 66.448,66.448 v -44.85 h 3.185 V 71.884 H 19.346 V 68.699 H 64.197 L -2.252,2.251 Z"
             style="fill:#ffffff;fill-opacity:1;fill-rule:nonzero;stroke:none"
             id="path268" />
        </g>
        <g
           id="g270"
           transform="translate(648.9229,685.4219)">
          <path
             d="m 0,0 31.714,-31.714 h -93.973 v -3.184 H 31.714 L 0,-66.613 2.251,-68.864 37.81,-33.306 2.251,2.252 Z"
             style="fill:#ffffff;fill-opacity:1;fill-rule:nonzero;stroke:none"
             id="path272" />
        </g>
        <g
           id="g274"
           transform="translate(668.5635,397.1455)">
          <path
             d="M 0,0 -66.448,66.448 -68.7,64.196 -2.251,-2.252 H -47.103 V -5.437 H 3.185 V 44.852 H 0 Z"
             style="fill:#ffffff;fill-opacity:1;fill-rule:nonzero;stroke:none"
             id="path276" />
        </g>
        <g
           id="g278"
           transform="translate(637.165,158.5889)">
          <path
             d="M 0,0 V 93.973 H -3.185 V 0 l -31.714,31.715 -2.252,-2.252 35.558,-35.559 35.559,35.559 -2.252,2.252 z"
             style="fill:#ffffff;fill-opacity:1;fill-rule:nonzero;stroke:none"
             id="path280" />
        </g>
        <g
           id="g282"
           transform="translate(1437.0576,685.1064)">
          <path
             d="m 0,0 h 44.852 l -66.449,-66.448 2.252,-2.252 66.449,66.448 v -44.851 h 3.184 V 3.185 H 0 Z"
             style="fill:#ffffff;fill-opacity:1;fill-rule:nonzero;stroke:none"
             id="path284" />
        </g>
        <g
           id="g286"
           transform="translate(1041.7793,921.4111)">
          <path
             d="M 0,0 V -93.973 H 3.185 V 0 l 31.713,-31.715 2.252,2.252 -35.558,35.559 -35.558,-35.559 2.251,-2.252 z"
             style="fill:#ffffff;fill-opacity:1;fill-rule:nonzero;stroke:none"
             id="path288" />
        </g>
        <g
           id="g290"
           transform="translate(1056.7207,685.4219)">
          <path
             d="m 0,0 31.715,-31.714 h -93.973 v -3.184 H 31.715 L 0,-66.613 2.252,-68.864 37.811,-33.306 2.252,2.252 Z"
             style="fill:#ffffff;fill-opacity:1;fill-rule:nonzero;stroke:none"
             id="path292" />
        </g>
        <g
           id="g294"
           transform="translate(1029.2598,391.709)">
          <path
             d="M 0,0 H 50.287 V 50.288 H 47.103 V 5.437 L -19.346,71.885 -21.597,69.633 44.852,3.185 H 0 Z"
             style="fill:#ffffff;fill-opacity:1;fill-rule:nonzero;stroke:none"
             id="path296" />
        </g>
        <g
           id="g298"
           transform="translate(1056.7207,236.96)">
          <path
             d="m 0,0 31.715,-31.715 h -93.973 v -3.183 H 31.715 L 0,-66.613 2.252,-68.865 37.811,-33.307 2.252,2.252 Z"
             style="fill:#ffffff;fill-opacity:1;fill-rule:nonzero;stroke:none"
             id="path300" />
        </g>
        <g
           id="g302"
           transform="translate(1484.1611,397.1455)">
          <path
             d="M 0,0 -66.448,66.448 -68.7,64.196 -2.252,-2.252 H -47.104 V -5.437 H 3.185 V 44.852 H 0 Z"
             style="fill:#ffffff;fill-opacity:1;fill-rule:nonzero;stroke:none"
             id="path304" />
        </g>
        <g
           id="g306"
           transform="translate(1437.0576,912.5215)">
          <path
             d="m 0,0 v -3.185 h 44.852 l -66.449,-66.448 2.252,-2.251 66.449,66.448 v -44.85 h 3.184 V 0 Z"
             style="fill:#ffffff;fill-opacity:1;fill-rule:nonzero;stroke:none"
             id="path308" />
        </g>
        <g
           id="g310"
           transform="translate(510.8125,661.7568)">
          <path
             d="m 0,0 c -7.843,0 -14.225,-6.382 -14.225,-14.226 0,-7.843 6.382,-14.224 14.225,-14.224 7.844,0 14.225,6.381 14.225,14.224 C 14.225,-6.382 7.844,0 0,0"
             style="fill:#ffffff;fill-opacity:1;fill-rule:nonzero;stroke:none"
             id="path312" />
        </g>
        <g
           id="g314"
           transform="translate(531.6387,618.5693)">
          <path
             d="m 0,0 c -3.24,-1.369 -6.305,-2.659 -10.317,-2.659 -3.829,0 -8.926,0.923 -21.114,12.874 -3.452,3.386 -7.658,7.714 -13.27,12.873 -13.065,12.021 -28.932,19.894 -56.238,-3.727 l -0.319,-0.278 6.871,-6.87 0.279,0.223 c 4.975,3.949 14.552,10.397 22.753,9.235 3.359,-0.486 6.162,-2.222 8.334,-5.183 -4.333,-5.868 -18.738,-19.147 -30.817,-19.147 -4.004,0 -7.069,1.29 -10.317,2.659 -3.177,1.346 -6.465,2.739 -10.565,2.739 V 0.12 c 7.731,0 12.419,-5.397 20.882,-5.397 8.471,0 13.16,5.397 20.882,5.397 7.73,0 12.42,-5.397 20.883,-5.397 8.47,0 13.151,5.397 20.882,5.397 7.73,0 12.411,-5.397 20.881,-5.397 8.463,0 13.153,5.397 20.874,5.397 V 2.739 C 6.473,2.739 3.185,1.346 0,0"
             style="fill:#ffffff;fill-opacity:1;fill-rule:nonzero;stroke:none"
             id="path316" />
        </g>
        <g
           id="g318"
           transform="translate(440.9268,685.6211)">
          <path
             d="m 0,0 c 0,-3.896 -3.158,-7.056 -7.056,-7.056 -3.896,0 -7.055,3.16 -7.055,7.056 0,3.896 3.159,7.056 7.055,7.056 C -3.158,7.056 0,3.896 0,0"
             style="fill:#ffffff;fill-opacity:1;fill-rule:nonzero;stroke:none"
             id="path320" />
        </g>
        <path
           d="m 450.826,684.427 h -5.876 v 2.388 h 5.876 z"
           style="fill:#ffffff;fill-opacity:1;fill-rule:nonzero;stroke:none"
           id="path322" />
        <g
           id="g324"
           transform="translate(442.5498,692.6104)">
          <path
             d="M 0,0 -1.689,1.689 2.467,5.844 4.155,4.155 Z"
             style="fill:#ffffff;fill-opacity:1;fill-rule:nonzero;stroke:none"
             id="path326" />
        </g>
        <path
           d="m 435.065,696.699 h -2.388 v 5.877 h 2.388 z"
           style="fill:#ffffff;fill-opacity:1;fill-rule:nonzero;stroke:none"
           id="path328" />
        <g
           id="g330"
           transform="translate(425.1934,692.6104)">
          <path
             d="M 0,0 -4.155,4.155 -2.467,5.844 1.688,1.689 Z"
             style="fill:#ffffff;fill-opacity:1;fill-rule:nonzero;stroke:none"
             id="path332" />
        </g>
        <path
           d="m 422.793,684.427 h -5.877 v 2.388 h 5.877 z"
           style="fill:#ffffff;fill-opacity:1;fill-rule:nonzero;stroke:none"
           id="path334" />
        <g
           id="g336"
           transform="translate(422.7266,672.7881)">
          <path
             d="M 0,0 -1.688,1.688 2.467,5.844 4.155,4.154 Z"
             style="fill:#ffffff;fill-opacity:1;fill-rule:nonzero;stroke:none"
             id="path338" />
        </g>
        <path
           d="m 435.065,668.666 h -2.388 v 5.877 h 2.388 z"
           style="fill:#ffffff;fill-opacity:1;fill-rule:nonzero;stroke:none"
           id="path340" />
        <g
           id="g342"
           transform="translate(445.0166,672.7881)">
          <path
             d="m 0,0 -4.156,4.154 1.689,1.69 4.155,-4.156 z"
             style="fill:#ffffff;fill-opacity:1;fill-rule:nonzero;stroke:none"
             id="path344" />
        </g>
        <g
           id="g346"
           transform="translate(931.4023,448.1816)">
          <path
             d="m 0,0 -24.058,-58.186 c -1.066,-2.577 -3.07,-4.589 -5.648,-5.664 -1.297,-0.533 -2.657,-0.803 -4.009,-0.803 -0.74,0 -1.48,0.08 -2.212,0.247 0.541,0.923 0.939,1.941 1.169,3.014 1.281,-0.19 2.602,-0.023 3.827,0.486 1.798,0.74 3.19,2.14 3.938,3.938 L -2.936,1.218 c 1.528,3.707 -0.239,7.97 -3.946,9.498 l -35.775,14.789 c -1.79,0.748 -3.771,0.748 -5.561,0 -1.798,-0.747 -3.198,-2.14 -3.938,-3.938 L -52.228,21.4 h -3.444 l 0.572,1.384 c 1.075,2.578 3.079,4.591 5.657,5.657 2.578,1.074 5.425,1.074 8.003,0.008 L -5.665,13.66 C -0.335,11.456 2.203,5.33 0,0"
             style="fill:#ffffff;fill-opacity:1;fill-rule:nonzero;stroke:none"
             id="path348" />
        </g>
        <g
           id="g350"
           transform="translate(869.1943,416.8594)">
          <path
             d="m 0,0 c -0.884,0.334 -1.48,0.835 -1.966,1.209 0,-4.996 2.976,-10.311 2.976,-10.311 h -9.181 c 0,0 2.976,5.315 2.976,10.311 C -5.681,0.835 -6.277,0.334 -7.16,0 c -5.529,-2.101 -11.241,3.373 -9.284,9.952 1.599,5.354 8.114,8.575 12.864,13.564 C 1.169,18.527 7.692,15.306 9.291,9.952 11.24,3.373 5.528,-2.101 0,0 m 17.239,49.538 h -41.615 c -4.009,0 -7.279,-3.262 -7.279,-7.271 V -27.86 c 0,-4.009 3.27,-7.271 7.279,-7.271 h 41.615 c 4.009,0 7.271,3.262 7.271,7.271 v 70.127 c 0,4.009 -3.262,7.271 -7.271,7.271"
             style="fill:#ffffff;fill-opacity:1;fill-rule:nonzero;stroke:none"
             id="path352" />
        </g>
      </g>
    </g>
  </g>
</svg>
