<?xml version="1.0" encoding="UTF-8" standalone="no"?>
<!-- Created with Inkscape (http://www.inkscape.org/) -->

<svg
   width="23"
   height="23"
   viewBox="0 0 34 31"
   version="1.1"
   id="svg1571"
   xmlns="http://www.w3.org/2000/svg"
   xmlns:svg="http://www.w3.org/2000/svg">
  <defs
     id="defs1568" />
  <g
     id="layer1"
     transform="translate(299.73322,-34.151164)">
    <g
       id="g638"
       transform="matrix(0.35277777,0,0,-0.35277777,-282.87326,36.86835)">
      <path
         d="M 0,0 C 0.008,0.575 0.109,7.675 0.109,7.675"
         style="fill:none;stroke:#000000;stroke-width:3.833;stroke-linecap:butt;stroke-linejoin:miter;stroke-miterlimit:10;stroke-dasharray:none;stroke-opacity:1"
         id="path640" />
    </g>
    <g
       id="g642"
       transform="matrix(0.35277777,0,0,-0.35277777,-265.79384,59.688309)">
      <path
         d="M 0,0 H -96.206"
         style="fill:none;stroke:#000000;stroke-width:3.833;stroke-linecap:butt;stroke-linejoin:miter;stroke-miterlimit:10;stroke-dasharray:none;stroke-opacity:1"
         id="path644" />
    </g>
    <g
       id="g646"
       transform="matrix(0.35277777,0,0,-0.35277777,-274.22985,43.880126)">
      <path
         d="M 0,0 C 0.158,11.021 -10.659,20.112 -24.161,20.306 -37.663,20.499 -48.736,11.722 -48.895,0.7 Z"
         style="fill:none;stroke:#000000;stroke-width:3.833;stroke-linecap:butt;stroke-linejoin:miter;stroke-miterlimit:10;stroke-dasharray:none;stroke-opacity:1"
         id="path648" />
    </g>
    <g
       id="g650"
       transform="matrix(0.35277777,0,0,-0.35277777,-279.70722,43.80195)">
      <path
         d="m 0,0 c 0.158,11.021 -3.708,20.014 -8.636,20.084 -4.927,0.07 -9.051,-8.807 -9.209,-19.828 z"
         style="fill:#060707;fill-opacity:1;fill-rule:nonzero;stroke:none"
         id="path652" />
    </g>
    <g
       id="g654"
       transform="matrix(0.35277777,0,0,-0.35277777,-282.94149,59.343434)">
      <path
         d="M 0,0 C 0.008,0.576 0.497,43.753 0.497,43.753"
         style="fill:none;stroke:#000000;stroke-width:3.833;stroke-linecap:butt;stroke-linejoin:miter;stroke-miterlimit:10;stroke-dasharray:none;stroke-opacity:1"
         id="path656" />
    </g>
    <g
       id="g658"
       transform="matrix(0.35277777,0,0,-0.35277777,-292.26389,51.084165)">
      <path
         d="M 0,0 7.101,-13.625 H 53.349"
         style="fill:none;stroke:#000000;stroke-width:3.833;stroke-linecap:butt;stroke-linejoin:miter;stroke-miterlimit:10;stroke-dasharray:none;stroke-opacity:1"
         id="path660" />
    </g>
    <g
       id="g662"
       transform="matrix(0.35277777,0,0,-0.35277777,-276.05026,55.958284)">
      <path
         d="M 0,0 5.565,-10.363"
         style="fill:none;stroke:#000000;stroke-width:3.833;stroke-linecap:butt;stroke-linejoin:miter;stroke-miterlimit:10;stroke-dasharray:none;stroke-opacity:1"
         id="path664" />
    </g>
    <g
       id="g666"
       transform="matrix(0.35277777,0,0,-0.35277777,-289.65767,55.958284)">
      <path
         d="M 0,0 -5.564,-10.363"
         style="fill:none;stroke:#000000;stroke-width:3.833;stroke-linecap:butt;stroke-linejoin:miter;stroke-miterlimit:10;stroke-dasharray:none;stroke-opacity:1"
         id="path668" />
    </g>
    <g
       id="g670"
       transform="matrix(0.35277777,0,0,-0.35277777,-299.73322,62.676231)">
      <path
         d="M 0,0 C 5.936,0 9.536,-5.165 16.035,-5.165 22.54,-5.165 26.141,0 32.07,0 c 5.937,0 9.537,-5.165 16.035,-5.165 6.505,0 10.1,5.165 16.037,5.165 5.935,0 9.53,-5.165 16.035,-5.165 6.498,0 10.098,5.165 16.029,5.165"
         style="fill:none;stroke:#000000;stroke-width:3.24;stroke-linecap:butt;stroke-linejoin:miter;stroke-miterlimit:10;stroke-dasharray:none;stroke-opacity:1"
         id="path672" />
    </g>
  </g>
</svg>
