<?xml version="1.0" encoding="UTF-8" standalone="no"?>
<!-- Created with Inkscape (http://www.inkscape.org/) -->

<svg
   width="23"
   height="23"
   viewBox="0 0 34 34"
   version="1.1"
   id="svg1779"
   xmlns="http://www.w3.org/2000/svg"
   xmlns:svg="http://www.w3.org/2000/svg">
  <defs
     id="defs1776" />
  <g
     id="layer1"
     transform="translate(57.154258,-170.07529)">
    <g
       id="g346"
       transform="matrix(0.35277777,0,0,-0.35277777,-24.041795,180.39316)">
      <path
         d="m 0,0 -24.057,-58.186 c -1.066,-2.577 -3.071,-4.589 -5.649,-5.664 -1.296,-0.533 -2.656,-0.803 -4.009,-0.803 -0.74,0 -1.48,0.08 -2.211,0.247 0.54,0.923 0.938,1.941 1.169,3.014 1.281,-0.19 2.601,-0.023 3.826,0.486 1.798,0.74 3.191,2.14 3.938,3.938 L -2.936,1.218 c 1.528,3.707 -0.238,7.97 -3.945,9.498 l -35.776,14.789 c -1.79,0.748 -3.771,0.748 -5.561,0 -1.798,-0.747 -3.198,-2.14 -3.938,-3.938 L -52.227,21.4 h -3.445 l 0.573,1.384 c 1.074,2.578 3.079,4.591 5.657,5.657 2.577,1.074 5.425,1.074 8.003,0.008 L -5.664,13.66 C -0.334,11.456 2.204,5.33 0,0"
         id="path348" />
    </g>
    <g
       id="g350"
       transform="matrix(0.35277777,0,0,-0.35277777,-45.98743,191.44294)">
      <path
         d="m 0,0 c -0.883,0.334 -1.479,0.835 -1.965,1.209 0,-4.996 2.975,-10.311 2.975,-10.311 h -9.18 c 0,0 2.975,5.315 2.975,10.311 C -5.68,0.835 -6.277,0.334 -7.16,0 c -5.529,-2.101 -11.241,3.373 -9.284,9.952 1.599,5.354 8.115,8.575 12.864,13.564 C 1.169,18.527 7.693,15.306 9.292,9.952 11.241,3.373 5.529,-2.101 0,0 m 17.239,49.538 h -41.614 c -4.01,0 -7.279,-3.262 -7.279,-7.271 V -27.86 c 0,-4.009 3.269,-7.271 7.279,-7.271 h 41.614 c 4.01,0 7.272,3.262 7.272,7.271 v 70.127 c 0,4.009 -3.262,7.271 -7.272,7.271"
         id="path352" />
    </g>
  </g>
  <style>
    path{
        fill:#000000;
        fill-opacity:1;
        fill-rule:nonzero;
        stroke:none
    }
  </style>
</svg>
