<?xml version="1.0" encoding="UTF-8" standalone="no"?>

<svg
   version="1.1"
   id="svg2"
   width="1612"
   height="924"
   viewBox="0 0 1612 924"
   sodipodi:docname="choose-bg.svg"
   inkscape:version="1.1 (c68e22c387, 2021-05-23)"
   xmlns:inkscape="http://www.inkscape.org/namespaces/inkscape"
   xmlns:sodipodi="http://sodipodi.sourceforge.net/DTD/sodipodi-0.dtd"
   xmlns="http://www.w3.org/2000/svg"
   xmlns:svg="http://www.w3.org/2000/svg"
   preserveAspectRatio="xMidYMid slice">

   <g>
      <path
         d="m 790.61853,859.90597 149.44236,-111.73469 -0.23694,-3.31112 -2.17789,-1.66464 -2.03368,-211.23738 5.69415,-19.55861 -1.44587,-0.56813 -3.58666,0.42241 -1.42998,-129.31865 2.74867,-1.45647 0.10749,-6.00755 -79.25712,-61.54976 -62.92258,47.9389 -0.0704,2.42278 -30.82124,21.1941 -18.54423,7.97537 0.28804,6.05297 -36.3394,27.55518 -30.06992,16.49161 -0.72899,7.13246 c 0,0 -0.78729,0.68886 -1.18243,1.03179 -0.10385,0.53116 -0.20869,1.0613 -0.31454,1.59045 0.21801,0.56246 0.43501,1.12389 0.65102,1.68433 1.16365,1.22736 3.19454,3.26229 3.19454,3.26229 l 0.33449,0.3039 43.58967,346.63213 z"
         id="path-1" class="blur"/>
      <path
         d="m 938.2112,713.18845 c 0,0 7.00949,5.06295 7.00949,5.06295 0,0 5.3081,-3.17207 5.3081,-3.17207 0,0 16.41542,11.54331 16.41542,11.54331 0,0 197.51719,-146.12852 197.51719,-146.12852 0,0 38.7175,-383.60085 38.7175,-383.60085 0,0 12.5705,-12.77499 12.5705,-12.77499 0,0 0.045,-3.33319 0.045,-3.33319 0,0 -2.1414,-1.03817 -2.1414,-1.03817 0,0 13.1238,-118.60433 13.1238,-118.60433 0,0 2.8918,-3.024063 2.8918,-3.024063 0,0 0.2058,-3.719391 0.2058,-3.719391 0,0 -86.8799,-32.864834 -86.8799,-32.864834 0,0 -56.933,57.773538 -56.933,57.773538 0,0 0.1075,2.467252 0.1075,2.467252 0,0 -22.8217,11.194702 -22.8217,11.194702 -0.279,0.204453 -0.5578,0.408779 -0.7357,0.689396 -0.1778,0.280617 -0.2543,0.636672 -0.3069,1.958124 -0.053,1.321453 -0.082,3.607063 -0.1106,5.893706 0,0 2.066,1.56851 2.066,1.56851 0,0 -0.3338,8.87147 -0.3338,8.87147 0,0 -4.937,-2.71555 -4.937,-2.71555 0,0 -54.3579,27.23678 -54.3579,27.23678 0,0 -6.13646,-2.98284 -6.13646,-2.98284 0,0 -24.11435,11.36559 -24.11435,11.36559 0,0 -0.17584,5.19034 -0.17584,5.19034 0,0 -6.55595,3.34441 -6.55595,3.34441 -0.43206,0.40941 -0.86409,0.8188 -1.08275,1.26405 -0.21866,0.44525 -0.2239,0.92529 -0.23528,2.16983 -0.0114,1.24453 -0.0289,3.25245 -0.0464,5.2614 0,0 1.78216,1.03463 1.78216,1.03463 0,0 0.0871,4.8255 0.0871,4.8255 0,0 -73.38451,35.26426 -73.38451,35.26426 0,0 -2.53027,2.95779 -2.53027,2.95779 0,0 0.18036,6.52534 0.18036,6.52534 0,0 0.85389,1.22956 0.85389,1.22956 0,0 8.00092,4.12053 8.00092,4.12053 0,0 0.15935,37.02997 0.15935,37.02997 0,0 0.80098,0.49803 0.80098,0.49803 0,0 0.85297,70.16045 0.85297,70.16045 0,0 -11.53554,-0.3846 -11.53554,-0.3846 0,0 -0.39879,2.19117 -0.39879,2.19117 0,0 0.11027,10.30413 0.11027,10.30413 0,0 47.79679,37.04818 47.79679,37.04818 0,0 -0.15746,7.35426 -0.15746,7.35426 0,0 -2.90461,1.46593 -2.90461,1.46593 0,0 1.39856,127.2897 1.39856,127.2897 0,0 2.8185,-0.33119 2.8185,-0.33119 0,0 2.56623,1.08157 2.56623,1.08157 0,0 -5.91141,20.3296 -5.91141,20.3296 0,0 1.34144,181.10863 1.34144,181.10863 0,0 -6e-5,0 -6e-5,0 z"
         id="path-2" class="blur"/>
      <path
         d="m 589.6964,665.37216 c 0,0 35.44349,57.27385 35.44349,57.27385 0,0 83.90737,-33.52298 83.90737,-33.52298 0,0 -28.30176,-229.99244 -28.30176,-229.99244 0,0 -3.36978,-3.55118 -3.36978,-3.55118 0,0 -0.77356,-2.24337 -0.77356,-2.24337 0,0 0.50605,-2.24933 0.50605,-2.24933 0,0 1.11336,-1.02412 1.11336,-1.02412 0,0 0.74526,-7.33864 0.74526,-7.33864 0,0 30.20061,-16.3775 30.20061,-16.3775 0,0 36.23266,-27.3118 36.23266,-27.3118 0,0 -0.25417,-6.24591 -0.25417,-6.24591 0,0 18.78779,-8.06451 18.78779,-8.06451 0,0 30.58339,-20.95097 30.58339,-20.95097 0,0 0.0236,-2.49587 0.0236,-2.49587 0,0 63.87099,-48.66335 63.87099,-48.66335 0,0 30.39676,23.38297 30.39676,23.38297 0,0 -3.13196,-128.18002 -3.13196,-128.18002 0,0 4.91333,-1.58042 4.91333,-1.58042 0,0 2.86281,-3.3281 2.86281,-3.3281 0,0 -0.0318,-5.45303 -0.0318,-5.45303 0,0 -44.54502,-38.13007 -44.54502,-38.13007 -0.88523,-0.26759 -1.76926,-0.53481 -2.72454,-0.72393 -0.95527,-0.18911 -1.98048,-0.29951 -2.86534,-0.31418 -0.88487,-0.0147 -1.62913,0.0666 -2.16665,0.1604 -0.53751,0.0938 -0.86859,0.20042 -1.19906,0.30684 0,0 -45.92405,12.42965 -45.92405,12.42965 0,0 -17.14577,-15.4903 -17.14577,-15.4903 0,0 -40.73274,11.04907 -40.73274,11.04907 0,0 0.0886,6.03168 0.0886,6.03168 0,0 -76.64388,20.61539 -76.64388,20.61539 0,0 -2.51327,-2.31829 -2.51327,-2.31829 -0.96484,-0.35775 -1.92847,-0.71505 -3.14724,-0.8406 -1.21877,-0.12556 -2.69112,-0.0184 -3.99335,0.20104 -1.30224,0.21945 -2.43467,0.55151 -3.56648,0.88338 0,0 -31.95499,8.74379 -31.95499,8.74379 -0.60085,0.36903 -1.20142,0.73789 -1.65288,1.22435 -0.45146,0.48646 -0.75304,1.08975 -0.80147,1.63851 -0.0484,0.54876 0.1551,1.04094 0.35913,1.53433 0,0 -0.27754,1.66472 -0.27754,1.66472 0,0 -14.05663,3.81791 -14.05663,3.81791 0,0 -92.5947,-10.65288 -92.5947,-10.65288 0,0 -3.26273,0.76858 -3.26273,0.76858 0,0 -0.19565,3.71183 -0.19565,3.71183 1.48036,1.80853 2.96161,3.61815 17.59354,80.55395 14.63192,76.9358 42.41478,228.99158 70.1984,381.05155 0,0 -1.3e-4,0 -1.3e-4,0 z"
         id="path-3" class="blur"/>
   </g>
   <style>
      .blur {
         fill: #0B286799;
         transition: .4s
      }
      .active {
         fill: #CDB13400
      }
   </style>
</svg>
