<?xml version="1.0" encoding="UTF-8" standalone="no"?>
<!-- Created with Inkscape (http://www.inkscape.org/) -->

<svg
   width="23"
   height="23"
   viewBox="0 0 39 35"
   version="1.1"
   id="svg1294"
   xmlns="http://www.w3.org/2000/svg"
   xmlns:svg="http://www.w3.org/2000/svg">
  <defs
     id="defs1291" />
  <g
     id="layer1"
     transform="translate(182.05141,47.886751)">
    <g
       id="g86"
       transform="matrix(0.35277777,0,0,-0.35277777,-174.59757,-36.719923)">
      <path
         d="m 0,0 c -5.812,0 -10.524,4.713 -10.524,10.525 0,5.811 4.712,10.525 10.524,10.525 5.812,0 10.525,-4.714 10.525,-10.525 C 10.525,4.713 5.812,0 0,0 m 0,31.654 c -11.647,0 -21.129,-9.482 -21.129,-21.129 0,-11.655 9.482,-21.129 21.129,-21.129 11.655,0 21.129,9.474 21.129,21.129 0,11.647 -9.474,21.129 -21.129,21.129"
         id="path88" />
    </g>
    <g
       id="g90"
       transform="matrix(0.35277777,0,0,-0.35277777,-158.31385,-36.719923)">
      <path
         d="m 0,0 c -5.812,0 -10.517,4.713 -10.517,10.525 0,5.811 4.705,10.525 10.517,10.525 5.82,0 10.525,-4.714 10.525,-10.525 C 10.525,4.713 5.82,0 0,0 m 0.008,31.654 c -11.655,0 -21.137,-9.482 -21.137,-21.129 0,-11.655 9.482,-21.129 21.137,-21.129 11.647,0 21.129,9.474 21.129,21.129 0,11.647 -9.482,21.129 -21.129,21.129"
         id="path92" />
    </g>
    <g
       id="g94"
       transform="matrix(0.35277777,0,0,-0.35277777,-144.46093,-15.211169)">
      <path
         d="m 0,0 -21.283,15.313 -6.445,4.639 c -0.004,0.003 -0.008,0.005 -0.012,0.008 L -28.089,20.211 0,40.424 Z m -34.522,-0.511 h -55.645 v 41.446 h 55.645 V 29.605 23.953 16.47 10.818 Z m 37.707,47.15 -23.84,-17.156 -10e-4,0.001 -8.932,-6.427 c -0.495,-0.358 -0.969,-0.18 -1.149,-0.087 -0.18,0.092 -0.601,0.374 -0.601,0.983 v 5.652 14.514 H -93.352 V -3.694 h 62.014 v 14.512 5.652 c 0,0.61 0.421,0.891 0.601,0.984 0.18,0.091 0.649,0.268 1.143,-0.083 L 3.185,-6.215 Z"
         id="path96" />
    </g>
  </g>
  <style>
    path{
        fill:#000000;
        fill-opacity:1;
        fill-rule:nonzero;
        stroke:none
    }
  </style>
</svg>
