<?xml version="1.0" encoding="iso-8859-1"?>
<!-- Generator: Adobe Illustrator 16.0.0, SVG Export Plug-In . SVG Version: 6.00 Build 0)  -->
<!DOCTYPE svg PUBLIC "-//W3C//DTD SVG 1.1//EN" "http://www.w3.org/Graphics/SVG/1.1/DTD/svg11.dtd">
<svg version="1.1" id="Capa_1" xmlns="http://www.w3.org/2000/svg" xmlns:xlink="http://www.w3.org/1999/xlink" x="0px" y="0px"
	 width="478.2px" height="478.2px" viewBox="0 0 478.2 478.2" style="enable-background:new 0 0 478.2 478.2;" xml:space="preserve"
	>
<g>
	<g>
		<path d="M239.1,365.3c-5.699,0-9.6,3.8-9.6,9.601V432.3c0,5.7,3.8,9.601,9.6,9.601c5.801,0,9.601-3.801,9.601-9.601V374.9
			C248.6,369.1,244.8,365.3,239.1,365.3z"/>
		<path d="M114.7,239.1c0-5.699-3.8-9.6-9.6-9.6H47.7c-5.7,0-9.6,5.7-9.6,9.6c0,5.7,3.8,9.601,7.7,9.601h57.4
			C109,248.6,114.7,244.8,114.7,239.1z"/>
		<path d="M239.1,114.7c5.7,0,9.601-3.8,9.601-9.6V47.7c0-5.7-3.8-9.6-9.601-9.6c-5.8,0-9.6,3.8-9.6,9.6v57.4
			C229.5,110.9,233.3,114.7,239.1,114.7z"/>
		<path d="M239.1,0C107.1,0,0,107.1,0,239.1C0,371.1,107.1,478.2,239.1,478.2C371.1,478.2,478.2,371.1,478.2,239.1
			C478.2,107.1,371,0,239.1,0z M239.1,459C116.7,459,19.2,361.5,19.2,239.1C19.2,116.7,116.7,19.2,239.1,19.2
			C361.5,19.2,459,116.7,459,239.1C459,361.5,361.5,459,239.1,459z"/>
		<path d="M204.6,204.6c-34.4,34.4-93.7,162.6-93.7,162.6s128.2-61.2,162.6-93.7s93.7-162.6,93.7-162.6S239.1,172.1,204.6,204.6z
			 M153,327c0,0,45.9-86.1,66.9-107.1l40.2,40.2C239.1,281.1,153,327,153,327z"/>
		<path d="M432.2,229.5h-57.4c-5.7,0-9.6,3.8-9.6,9.6c0,5.801,3.8,9.601,9.6,9.601h57.4c5.7,0,9.6-3.8,9.6-9.601
			C439.9,235.2,436,229.5,432.2,229.5z"/>
	</g>
</g>
<g>
</g>
<g>
</g>
<g>
</g>
<g>
</g>
<g>
</g>
<g>
</g>
<g>
</g>
<g>
</g>
<g>
</g>
<g>
</g>
<g>
</g>
<g>
</g>
<g>
</g>
<g>
</g>
<g>
</g>
</svg>
