<?xml version="1.0" encoding="UTF-8" standalone="no"?>
<!-- Created with Inkscape (http://www.inkscape.org/) -->

<svg
   width="23"
   height="23"
   viewBox="0 0 46 29"
   version="1.1"
   id="svg1540"
   xmlns="http://www.w3.org/2000/svg"
   xmlns:svg="http://www.w3.org/2000/svg">
  <defs
     id="defs1537" />
  <g
     id="layer1"
     transform="translate(248.81952,-120.56316)">
    <g
       id="g202"
       transform="matrix(0.35277777,0,0,-0.35277777,-229.03489,123.28978)">
      <path
         d="m 0,0 c 0,-4.264 3.47,-7.734 7.733,-7.734 4.264,0 7.731,3.47 7.731,7.734 0,4.263 -3.467,7.729 -7.731,7.729 C 3.47,7.729 0,4.263 0,0"
         id="path204" />
    </g>
    <g
       id="g206"
       transform="matrix(0.35277777,0,0,-0.35277777,-220.82438,134.19111)">
      <path
         d="m 0,0 h -31.12 c 2.468,9.456 5.899,18.311 15.58,18.311 C -6.218,18.311 -3.073,10.796 0,0"
         id="path208" />
    </g>
    <g
       id="g210"
       transform="matrix(0.35277777,0,0,-0.35277777,-238.4288,141.89504)">
      <path
         d="m 0,0 v 2.388 h -14.635 c -4.906,0 -7.123,1.915 -8.18,7.065 -1.762,8.581 -4.272,21.119 -4.297,21.244 l -2.342,-0.468 c 0.025,-0.125 2.537,-12.668 4.299,-21.256 C -23.881,2.768 -20.637,0 -14.635,0 h 1.268 v -17.468 h -7.522 v -2.388 h 17.431 v 2.388 h -7.521 V 0 Z"
         id="path212" />
    </g>
    <g
       id="g214"
       transform="matrix(0.35277777,0,0,-0.35277777,-243.00045,136.34806)">
      <path
         d="m 0,0 c 0,-1.839 0.597,-6.114 6.114,-6.114 h 10.071 c 2.205,0 3.997,-1.791 3.997,-3.996 v -20.508 h -3.185 v 20.508 c 0,0.445 -0.366,0.811 -0.812,0.811 H 0.677 c -3.742,0 -6.322,1.975 -6.322,6.584 v 25.412 h 3.853 C 0,18.805 1.966,14.537 3.001,12.284 4.076,9.943 5.7,9.299 8.073,9.299 H 20.182 V 6.114 H 6.114 C 0.597,6.114 0,1.839 0,0"
         id="path216" />
    </g>
    <g
       id="g218"
       transform="matrix(0.35277777,0,0,-0.35277777,-246.67671,123.89303)">
      <path
         d="m 0,0 c 0,-4.263 3.471,-7.733 7.733,-7.733 4.264,0 7.731,3.47 7.731,7.733 0,4.263 -3.467,7.73 -7.731,7.73 C 3.471,7.73 0,4.263 0,0"
         id="path220" />
    </g>
    <path
       d="m -240.81393,136.76992 h 29.01315 v -0.84244 h -29.01315 z"
       id="path222" />
    <g
       id="g224"
       transform="matrix(0.35277777,0,0,-0.35277777,-214.18602,141.89504)">
      <path
         d="m 0,0 v 2.388 h 14.635 c 4.906,0 7.123,1.915 8.18,7.065 1.762,8.581 4.272,21.119 4.297,21.244 l 2.342,-0.468 C 29.429,30.104 26.918,17.561 25.155,8.973 23.881,2.768 20.637,0 14.635,0 h -1.267 v -17.468 h 7.521 v -2.388 H 3.458 v 2.388 h 7.521 V 0 Z"
         id="path226" />
    </g>
    <g
       id="g228"
       transform="matrix(0.35277777,0,0,-0.35277777,-209.61437,136.34806)">
      <path
         d="m 0,0 c 0,-1.839 -0.597,-6.114 -6.114,-6.114 h -10.071 c -2.205,0 -3.997,-1.791 -3.997,-3.996 v -20.508 h 3.185 v 20.508 c 0,0.445 0.366,0.811 0.812,0.811 h 15.508 c 3.742,0 6.322,1.975 6.322,6.584 V 22.697 H 1.792 C 0,18.805 -1.966,14.537 -3.001,12.284 -4.076,9.943 -5.7,9.299 -8.073,9.299 H -20.182 V 6.114 H -6.114 C -0.597,6.114 0,1.839 0,0"
         id="path230" />
    </g>
    <g
       id="g232"
       transform="matrix(0.35277777,0,0,-0.35277777,-205.93811,123.89303)">
      <path
         d="m 0,0 c 0,-4.263 -3.47,-7.733 -7.733,-7.733 -4.264,0 -7.731,3.47 -7.731,7.733 0,4.263 3.467,7.73 7.731,7.73 C -3.47,7.73 0,4.263 0,0"
         id="path234" />
    </g>
  </g>
  <style>
    path{
        fill:#000000;
        fill-opacity:1;
        fill-rule:nonzero;
        stroke:none
    }
  </style>
</svg>
