<?xml version="1.0" encoding="UTF-8" standalone="no"?>
<!-- Created with Inkscape (http://www.inkscape.org/) -->

<svg
    version="1.1"
    id="svg2"
    width="3840"
    height="2160"
    viewBox="0 0 3840 2160"
    xmlns="http://www.w3.org/2000/svg"
    xmlns:svg="http://www.w3.org/2000/svg"
    preserveAspectRatio="xMidYMid slice"
    >

    <g>
        <path d="m 2140.7574,1317.9198 v 30.6115 l 128.056,20.4022 346.0687,-24.2287 0.4948,-30.4253 -346.5162,22.4774 z"
        id="path-8" data-floor="11" data-block="A" class="area" />
        <path d="m 2140.7047,1286.8 v 29.9049 l 128.1042,18.9153 346.5086,-22.4862 -0.469,-29.8134 -345.9804,19.7215 z"
        id="path-9" data-floor="12" data-block="A" class="area" />
        <path d="m 2140.7682,1255.4907 -0.018,30.1572 128.0502,16.0795 345.9471,-19.5627 0.337,-30.6723 -346.2083,18.8228 z"
        id="path-10" data-floor="13" data-block="A" class="area" />
        <path d="m 2140.742,1220.7387 v 33.7011 l 128.2157,14.6211 346.0325,-18.8249 -0.082,-29.3853 -346.1,15.0582 z"
        id="path-11" data-floor="14" data-block="A" class="area" />
        <path d="m 2140.6608,1189.8724 0.1096,29.7844 128.0339,14.9609 346.0275,-14.8565 0.087,-30.8065 -346.0529,13.6938 z"
        id="path-12" data-floor="15" data-block="A" class="area" />
        <path d="m 2140.7848,1158.1696 -0.1146,30.4943 128.136,12.5619 345.959,-13.6319 -0.015,-28.2586 -345.8393,10.8986 z"
        id="path-13" data-floor="16" data-block="A" class="area" />
        <path d="m 2140.7378,1127.1067 0.084,30.0603 127.9869,11.7473 345.9528,-10.9803 0.4702,-30.0147 -346.3281,8.9368 z"
        id="path-14" data-floor="17" data-block="A" class="area" />
        <path d="m 2140.7445,1095.628 v 30.0712 l 128.1574,9.5107 346.1795,-8.6662 -0.3534,-29.5695 -345.865,6.5251 z"
        id="path-15" data-floor="18" data-block="A" class="area" />
        <path d="m 2140.7664,1064.5358 v 30.0353 l 128.0196,7.588 345.8664,-6.6891 0.5917,-29.686 -346.3773,4.5427 z"
        id="path-16" data-floor="19" data-block="A" class="area" />
        <path d="m 2140.725,1031.921 -0.05,31.4676 128.139,5.5613 346.2691,-4.8895 -0.2857,-29.3261 -345.8346,2.2945 z"
        id="path-17" data-floor="20" data-block="A" class="area" />
        <path d="m 2140.7716,1000.6496 v 30.0962 l 128.197,4.7858 345.6347,-2.7781 0.6877,-29.6992 -346.3583,0.1187 z"
        id="path-18" data-floor="21" data-block="A" class="area" />
        <path d="m 2140.7557,969.46464 0.2063,29.74331 127.9456,2.58515 346.2783,-0.2268 -0.4154,-29.09282 -345.8353,-1.66952 z"
        id="path-19" data-floor="22" data-block="A" class="area" />
        <path d="m 2140.7368,938.30704 v 29.68027 l 128.0302,1.47551 345.8597,1.25494 0.4165,-30.11334 -346.1333,-3.37757 z"
        id="path-20" data-floor="23" data-block="A" class="area" />
        <path d="m 2140.7626,905.63394 -0.059,31.41024 128.2047,-1.10853 346.0274,3.3882 -0.2042,-29.32834 -345.8694,-6.70671 z"
        id="path-21" data-floor="24" data-block="A" class="area" />
        <path d="m 2140.7637,874.55681 v 30.20632 l 128.0747,-2.51867 346.0411,6.54658 v -29.52427 l -345.9273,-8.45926 z"
        id="path-22" data-floor="25" data-block="A" class="area" />
        <path d="m 2140.757,843.17423 -0.034,30.13912 128.1175,-4.08656 345.8836,8.40307 -0.097,-29.81725 -345.7073,-10.75071 z"
        id="path-23" data-floor="26" data-block="A" class="area" />
        <path d="m 2140.8382,811.96155 v 29.99615 l 127.9769,-6.29839 345.7163,10.54341 0.7525,-29.47297 -346.3635,-13.18793 z"
        id="path-24" data-floor="27" data-block="A" class="area" />
        <path d="m 2140.7643,780.56958 0.01,29.86671 128.1311,-8.32181 346.3169,13.03455 -0.2693,-29.84928 -346.0542,-14.42591 z"
        id="path-25" data-floor="28" data-block="A" class="area" />
        <path d="m 2140.7434,749.30806 v 30.31061 l 128.1287,-9.94073 345.9028,13.81375 0.024,-29.32349 -345.9844,-16.66499 z"
        id="path-26" data-floor="29" data-block="A" class="area" />
        <path d="m 2140.747,717.95855 -0.1061,29.90917 128.1921,-11.91268 345.9003,16.68817 -0.01,-29.87063 -345.9003,-19.04505 z"
        id="path-27" data-floor="30" data-block="A" class="area" />
        <path d="m 2140.7606,686.71831 v 30.25567 l 128.1597,-14.25933 345.8137,18.75547 0.5845,-30.61693 -346.4022,-21.22539 z"
        id="path-28" data-floor="31" data-block="A" class="area" />
        <path d="m 2140.7554,655.19225 -0.01,30.319 128.1929,-17.19674 346.3114,20.98825 -0.5024,-29.0334 -345.9004,-22.90791 z"
        id="path-29" data-floor="32" data-block="A" class="area" />
        <path d="m 2140.7719,623.98732 0.01,30.20669 128.1667,-18.21413 345.7838,22.97381 0.3593,-29.64285 -346.0939,-26.41322 z"
        id="path-30" data-floor="33" data-block="A" class="area" />
        <path d="m 2141.4451,592.20472 -0.6954,30.65833 128.195,-21.14824 346.1035,26.42056 -0.1979,-30.74779 -346.3355,-27.91045 z"
        id="path-31" data-floor="34" data-block="A" class="area" />
        <path d="m 2617.455,1515.2919 v 23.2946 l 72.7321,13.2206 463.6614,-51.662 0.044,-24.2948 -463.3575,50.6647 z"
        id="path-32" data-floor="2" data-block="B" class="area" />
        <path d="m 3153.8012,1474.6328 -0.042,-26.8583 -463.6505,47.3777 -72.7186,-10.8661 0.1674,29.8631 72.7153,11.1437 z"
        id="path-33" data-floor="3" data-block="B" class="area" />
        <path d="m 3153.751,1446.4867 0.089,-25.9627 -463.7166,43.576 -72.7456,-9.4407 0.039,28.4135 72.6651,10.8276 z"
        id="path-34" data-floor="4" data-block="B" class="area" />
        <path d="m 3153.7801,1419.2417 v -26.7298 l -463.6229,41.3699 -72.6944,-9.0356 -0.054,28.563 72.7622,9.476 z"
        id="path-35" data-floor="5" data-block="B" class="area" />
        <path d="m 3153.7544,1391.286 v -26.5855 l -463.4751,37.8347 -72.8507,-8.2547 0.092,29.3539 72.6128,9.012 z"
        id="path-36" data-floor="6" data-block="B" class="area" />
        <path d="m 3153.6896,1363.5327 0.1646,-27.0487 -463.6831,35.4244 -72.7031,-7.6233 v 28.837 l 72.8233,8.2317 z"
        id="path-37" data-floor="7" data-block="B" class="area" />
        <path d="m 3153.8144,1335.226 v -26.7931 l -463.6299,32.8615 -72.8231,-7.6579 0.1195,29.4252 72.6395,7.644 z"
        id="path-38" data-floor="8" data-block="B" class="area" />
        <path d="M 3153.7705,1307.1688 V 1280.47 l -463.5677,29.8217 -72.7784,-6.2917 v 28.4699 l 72.7982,7.674 z"
        id="path-39" data-floor="9" data-block="B" class="area" />
        <path d="m 3153.7556,1279.1698 0.097,-26.168 -463.6522,26.8772 -72.7991,-5.5859 0.053,28.5906 72.7321,6.2982 z"
        id="path-40" data-floor="10" data-block="B" class="area" />
        <path d="m 3153.8114,1251.8361 v -26.8705 l -463.6493,24.0401 -72.803,-4.4858 0.036,28.6856 72.7252,5.5145 z"
        id="path-41" data-floor="11" data-block="B" class="area" />
        <path d="m 3153.7747,1223.8173 v -27.0359 l -463.6067,21.6698 -72.7771,-4.4346 0.014,29.3632 72.7014,4.4297 z"
        id="path-42" data-floor="12" data-block="B" class="area" />
        <path d="m 3153.7302,1195.5501 v -26.4186 l -463.4208,18.0595 -72.8643,-3.1669 -0.01,28.8199 72.6987,4.4431 z"
        id="path-43" data-floor="13" data-block="B" class="area" />
        <path d="m 3153.6541,1167.9063 v -26.0637 l -463.4044,14.7128 -72.8386,-2.0613 v 28.3047 l 72.849,3.2345 z"
        id="path-44" data-floor="14" data-block="B" class="area" />
        <path d="m 3153.6601,1140.6535 v -27.0008 l -463.4323,12.1094 -72.7378,-1.1604 -0.065,28.683 72.7485,2.1016 z"
        id="path-45" data-floor="15" data-block="B" class="area" />
        <path d="m 3153.6348,1112.4448 v -26.2976 l -463.495,9.2215 -72.7441,-1.175 0.1551,29.2218 72.6083,1.2257 z"
        id="path-46" data-floor="16" data-block="B" class="area" />
        <path d="m 3153.639,1084.9515 0.1681,-27.5192 -463.6941,6.569 -72.6543,-0.1841 v 29.1147 l 72.6916,1.1953 z"
        id="path-47" data-floor="17" data-block="B" class="area" />
        <path d="m 3153.7601,1056.1969 0.02,-26.6071 -463.5879,4.2391 -72.6972,-0.032 -0.03,28.8196 72.5818,0.1826 z"
        id="path-48" data-floor="18" data-block="B" class="area" />
        <path d="m 3153.7802,1028.439 0.054,-26.5273 -463.6261,0.7661 -72.7713,1.0357 0.016,28.9084 72.7141,-0.082 z"
        id="path-49" data-floor="19" data-block="B" class="area" />
        <path d="m 3153.8041,1000.7216 v -26.61233 l -463.631,-1.99836 -72.7165,2.13873 -0.068,28.26426 72.8969,-1.0572 z"
        id="path-50" data-floor="20" data-block="B" class="area" />
        <path d="m 3153.7983,972.93131 v -26.54034 l -463.616,-5.12646 -72.7023,2.92195 0.013,28.76837 72.7599,-2.04463 z"
        id="path-51" data-floor="21" data-block="B" class="area" />
        <path d="M 3153.7723,945.22079 V 918.2426 l -463.6441,-7.65656 -72.7176,3.23491 0.044,29.16012 72.6681,-3.00003 z"
        id="path-52" data-floor="22" data-block="B" class="area" />
        <path d="m 3153.7597,917.05944 v -26.71509 l -463.5916,-10.20019 -72.7622,3.98617 0.066,28.51576 72.753,-3.31883 z"
        id="path-53" data-floor="23" data-block="B" class="area" />
        <path d="m 3153.7192,889.1441 v -26.65229 l -463.4951,-13.33635 -72.8406,5.08138 0.027,28.5682 72.8291,-3.92616 z"
        id="path-54" data-floor="24" data-block="B" class="area" />
        <path d="m 3153.7145,861.24258 0.1588,-26.21065 -463.6873,-16.54503 -72.7684,6.23082 -0.021,28.36569 72.7603,-5.16911 z"
        id="path-55" data-floor="25" data-block="B" class="area" />
        <path d="m 3153.8427,833.84367 -0.01,-26.90698 -463.6087,-18.99195 -72.8065,6.13908 0.022,29.44352 72.8066,-6.35084 z"
        id="path-56" data-floor="26" data-block="B" class="area" />
        <path d="m 3153.8004,805.75613 v -26.61909 l -463.5556,-22.46315 -72.8584,7.35557 0.113,28.73691 72.7115,-6.10139 z"
        id="path-57" data-floor="27" data-block="B" class="area" />
        <path d="m 3153.7813,777.8957 -0.01,-26.73932 -463.7545,-25.55889 -72.599,7.76695 0.01,29.40298 72.8606,-7.32396 z"
        id="path-58" data-floor="28" data-block="B" class="area" />
        <path d="m 3153.8075,749.99187 0.1316,-26.99331 -463.7203,-28.25652 -72.7169,8.92494 -0.1207,28.47213 72.512,-7.80221 z"
        id="path-59" data-floor="29" data-block="B" class="area" />
        <path d="m 3153.936,721.81717 v -25.85728 l -464.0312,-31.24166 -72.3657,9.83314 0.013,27.84115 72.6293,-8.99812 z"
        id="path-60" data-floor="30" data-block="B" class="area" />
        <path d="m 3153.9057,694.91733 -0.1386,-27.18986 -463.748,-33.45676 -72.5785,9.98963 0.1026,29.11069 72.7107,-10.00807 z"
        id="path-61" data-floor="31" data-block="B" class="area" />
        <path d="m 3153.7987,666.37808 -0.033,-26.27368 -463.6724,-36.9149 -72.7005,10.57136 0.049,29.15874 72.6546,-9.99509 z"
        id="path-62" data-floor="32" data-block="B" class="area" />
        <path d="m 3153.7862,638.94809 v -27.01147 l -463.6062,-40.00029 -72.6935,11.87484 -0.1051,28.81217 72.887,-10.74967 z"
        id="path-63" data-floor="33" data-block="B" class="area" />
        <path d="m 3153.7535,610.74721 0.047,-26.20127 -463.6413,-42.77984 -72.7804,12.63778 0.084,28.13672 72.7078,-12.06385 z"
        id="path-64" data-floor="34" data-block="B" class="area" />
        <path d="m 3153.7924,583.28917 v -26.4484 l -463.5846,-45.80554 -121.5526,22.53135 v 13.09861 l 48.6662,4.44854 7e-4,2.12903 72.8599,-12.73592 z"
        id="path-65" data-floor="35" data-block="B" class="area" />
        <path d="m 3153.771,555.6217 0.026,-27.21198 -463.4962,-48.15345 -121.2715,23.14385 -0.3483,28.90287 121.6156,-22.51013 z"
        id="path-66" data-floor="36" data-block="B" class="area" />
        <path d="m 3153.7546,527.13798 0.055,-26.24474 -463.7656,-52.00498 -121.0182,24.91311 v 28.26302 l 121.2416,-23.06391 z"
        id="path-67" data-floor="37" data-block="B" class="area" />
        <path d="m 3153.7741,499.7135 0.076,-27.55899 -463.7677,-54.26213 -121.1531,26.24565 0.098,28.46429 121.1909,-25.11509 z"
        id="path-68" data-floor="38" data-block="B" class="area" />
        <path d="m 3153.87,471.00287 0.02,-26.41873 -463.3535,-57.37176 -121.734,26.99915 0.081,28.70139 121.4226,-26.31621 z"
        id="path-69" data-floor="39" data-block="B" class="area" />
        <path d="m 3153.8807,443.40619 v -26.16958 l -463.7451,-60.346 -121.2445,29.62168 -0.1416,26.4309 121.7963,-27.06324 z"
        id="path-70" data-floor="40" data-block="B" class="area" />
        <path d="m 3153.9237,416.10119 -0.1355,-29.28399 -463.6564,-61.72835 -121.4763,31.48172 0.214,28.6043 121.3671,-29.69059 z"
        id="path-71" data-floor="41" data-block="B" class="area" />
        <path d="m 3153.757,385.5693 -330.1294,-44.14562 -0.3598,-28.01192 330.5805,48.39897 z"
        id="path-72" data-floor="42" data-block="B" class="area" />
        <path d="m 2048.6165,1507.2758 v -18.0368 l -96.9064,4.652 -54.0692,-26.2405 v 16.5458 l 53.9429,28.7573 z"
        id="path-73" data-floor="1" data-block="C" class="area" />
        <path d="m 2048.532,1487.8649 v -0.9851 l 83.54,-14.3967 v -14.6907 l -180.3548,7.8893 -54.1574,-23.6063 0.09,24.1137 54.1586,26.4619 z"
        id="path-74" data-floor="2" data-block="C" class="area" />
        <path d="m 2132.0535,1456.6228 -0.1479,-25.2825 -180.1391,5.4569 -54.1086,-21.0106 -0.091,24.96 54.196,23.6234 z"
        id="path-75" data-floor="3" data-block="C" class="area" />
        <path d="m 2131.8596,1430.0869 0.1668,-28.2998 -180.2083,4.733 -54.0584,-18.729 -0.1364,26.7259 54.2033,21.0658 z"
        id="path-76" data-floor="4" data-block="C" class="area" />
        <path d="m 2131.9785,1400.5122 0.1136,-27.8043 -180.2609,4.2192 -54.2869,-17.1166 0.2104,26.7848 54.0515,18.6641 z"
        id="path-77" data-floor="5" data-block="C" class="area" />
        <path d="m 2132.0793,1371.434 0.026,-26.8283 -180.2378,3.5831 -54.1961,-15.1456 -0.045,25.6145 54.233,17.0708 z"
        id="path-78" data-floor="6" data-block="C" class="area" />
        <path d="m 2132.0301,1343.3483 0.076,-27.9217 -180.2371,4.2097 -53.9359,-14.8531 -0.1944,27.0904 54.1245,15.1334 z"
        id="path-79" data-floor="7" data-block="C" class="area" />
        <path d="m 2132.0527,1314.1709 v -26.6621 l -180.2028,3.6093 -54.3482,-13.8019 0.3975,26.1614 54.0133,14.9408 z"
        id="path-80" data-floor="8" data-block="C" class="area" />
        <path d="m 2132.0843,1286.388 v -26.9367 l -180.1412,2.0203 -54.3979,-11.6405 -0.067,26.2142 54.3475,13.9479 z"
        id="path-81" data-floor="9" data-block="C" class="area" />
        <path d="m 2132.0646,1258.1841 0.01,-26.8468 -180.2742,1.3283 -54.3351,-10.2516 0.09,26.3425 54.3169,11.5908 z"
        id="path-82" data-floor="10" data-block="C" class="area" />
        <path d="m 2132.0299,1230.1658 0.1325,-28.3814 -180.294,2.4533 -54.1932,-9.5486 -0.1468,26.4959 54.1732,10.2489 z"
        id="path-83" data-floor="11" data-block="C" class="area" />
        <path d="m 2132.0936,1200.5419 v -26.6604 l -180.2417,1.4696 -54.3915,-8.2607 0.2286,26.3194 54.1258,9.725 z"
        id="path-84" data-floor="12" data-block="C" class="area" />
        <path d="m 2132.0668,1172.6459 v -27.6725 l -180.2236,1.0571 -54.4653,-6.5194 -0.01,26.2227 54.3138,8.3419 z"
        id="path-85" data-floor="13" data-block="C" class="area" />
        <path d="m 2132.1029,1143.7503 -0.037,-26.706 -180.2229,0.01 -54.3203,-4.9669 -0.084,26.2072 54.352,6.6226 z"
        id="path-86" data-floor="14" data-block="C" class="area" />
        <path d="m 2132.0975,1115.7571 0.03,-27.4669 -180.3711,-0.2398 -54.3802,-3.4725 0.1522,26.2437 54.236,5.0337 z"
        id="path-87" data-floor="15" data-block="C" class="area" />
        <path d="m 2132.1364,1087.1229 -0.023,-27.2978 -180.3059,-1.0696 -54.3323,-1.7552 -0.049,26.3785 54.3463,3.4978 z"
        id="path-88" data-floor="16" data-block="C" class="area" />
        <path d="m 2132.1274,1058.6009 -0.2731,-27.3553 -180.0884,-0.3168 -54.3885,-1.3052 0.084,26.1141 54.3021,1.8352 z"
        id="path-89" data-floor="17" data-block="C" class="area" />
        <path d="m 2131.8507,1030.0988 0.099,-26.9651 -180.1286,-1.279 -54.3781,0.229 -0.075,26.1959 54.392,1.4361 z"
        id="path-90" data-floor="18" data-block="C" class="area" />
        <path d="m 2131.9322,1001.9228 0.1303,-28.24269 -180.3218,-1.08436 -54.2074,1.84815 -0.1522,26.365 54.4141,-0.302 z"
        id="path-91" data-floor="19" data-block="C" class="area" />
        <path d="m 2132.0356,972.45192 0.056,-26.93809 -180.4472,-1.68625 -54.1719,3.25883 0.059,26.02183 54.369,-1.77458 z"
        id="path-92" data-floor="20" data-block="C" class="area" />
        <path d="m 2132.1299,944.19346 -0.063,-26.85367 -180.2877,-2.23658 -54.3136,4.26425 -0.01,26.43849 54.1222,-3.20935 z"
        id="path-93" data-floor="21" data-block="C" class="area" />
        <path d="m 2132.0885,916.07345 -0.1376,-27.21366 -180.0334,-2.84351 -54.4469,5.96802 0.028,26.25824 54.2863,-4.39535 z"
        id="path-94" data-floor="22" data-block="C" class="area" />
        <path d="m 2131.9293,887.71064 0.1171,-27.28978 -180.1699,-3.56517 -54.484,7.59766 0.076,26.36441 54.4707,-5.92969 z"
        id="path-95" data-floor="23" data-block="C" class="area" />
        <path d="m 2132.0206,859.15062 v -27.1116 l -180.3773,-4.27486 -54.2646,8.64248 -10e-5,26.8903 54.5333,-7.64783 z"
        id="path-96" data-floor="24" data-block="C" class="area" />
        <path d="m 2131.979,830.81065 0.05,-27.73159 -180.2807,-4.21512 -54.3355,10.48619 -0.1134,25.83307 54.3329,-8.73363 z"
        id="path-97" data-floor="25" data-block="C" class="area" />
        <path d="m 2131.9971,801.85366 -0.1023,-26.95836 -180.1102,-5.23946 -54.3004,12.22727 -0.082,26.08385 54.4288,-10.43174 z"
        id="path-98" data-floor="26" data-block="C" class="area" />
        <path d="m 2131.8183,773.58402 0.036,-26.30093 -180.1608,-5.42298 -54.1973,12.40106 -0.065,26.42289 54.3198,-12.33881 z"
        id="path-99" data-floor="27" data-block="C" class="area" />
        <path d="m 2131.8505,746.08656 v -28.21618 l -180.1661,-5.439 -54.2913,14.33102 0.077,26.2887 54.1906,-12.38099 z"
        id="path-100" data-floor="28" data-block="C" class="area" />
        <path d="m 2131.8641,716.50793 0.2311,-27.72093 -180.6169,-5.55282 -53.9813,16.042 -0.1036,26.28076 54.3898,-14.40559 z"
        id="path-101" data-floor="29" data-block="C" class="area" />
        <path d="m 2132.0488,687.56384 0.06,-26.56987 -180.2119,-7.14318 -54.5309,17.823 0.095,26.34853 54.0452,-16.24334 z"
        id="path-102" data-floor="30" data-block="C" class="area" />
        <path d="m 2132.1201,659.7316 -0.1216,-28.29433 -180.35,-5.63432 -54.14,18.41236 -0.1511,26.2131 54.6214,-17.93061 z"
        id="path-103" data-floor="31" data-block="C" class="area" />
        <path d="m 2131.9878,630.19548 v -26.53495 l -180.1488,-7.02208 -54.444,20.18596 0.1129,26.16452 54.2341,-18.55025 z"
        id="path-104" data-floor="32" data-block="C" class="area" />
        <path d="m 2131.9751,602.4487 0.1069,-26.75212 -180.5431,-8.37013 -54.0492,21.7327 -0.152,26.44496 54.4086,-20.16915 z"
        id="path-105" data-floor="33" data-block="C" class="area" />
        <path d="m 1897.6632,561.65832 -0.1321,26.10107 53.9463,-21.86308 185.4032,8.89845 109.5724,-20.91623 -294.6267,-15.66488 z"
        id="path-106" data-floor="34" data-block="C" class="area" />
        <path d="m 1897.6511,534.34687 -0.063,26.0567 54.1579,-23.59428 300.1184,15.84838 11.056,-1.95668 14.1469,0.69163 98.6692,-18.10728 19.5358,-1.1953 18.6038,0.14166 72.7592,3.64321 62.3055,5.98225 v -6.76558 l -597.1581,-25.8717 z"
        id="path-107" data-floor="35" data-block="C" class="area" />
        <path d="m 1897.5443,506.81859 0.05,25.99115 54.0535,-25.14532 597.2,26.0965 v -25.87495 l -597.0085,-25.57658 z"
        id="path-108" data-floor="36" data-block="C" class="area" />
        <path d="m 1897.6361,479.64388 -0.1378,25.84604 54.0454,-24.55553 472.4353,20.10227 V 475.05949 L 1951.4665,453.1825 Z"
        id="path-109" data-floor="37" data-block="C" class="area" />
    </g>
    <style type="text/css" id="style">
        .area {
            cursor: pointer;
            fill: #fff;
            fill-opacity: 0.1;
            stroke-opacity: 1;
            transition: .3s;
        }
        .area:hover {
            fill-opacity: .6;
        }
    </style>
</svg>
