<?xml version="1.0" encoding="UTF-8" standalone="no"?>
<!-- Created with Inkscape (http://www.inkscape.org/) -->

<svg
   version="1.1"
   id="svg3"
   width="3555"
   height="1551"
   viewBox="0 0 3555 1551"
   sodipodi:docname="layouts-bg.svg"
   inkscape:version="1.1 (c68e22c387, 2021-05-23)"
   xmlns:inkscape="http://www.inkscape.org/namespaces/inkscape"
   xmlns:sodipodi="http://sodipodi.sourceforge.net/DTD/sodipodi-0.dtd"
   xmlns="http://www.w3.org/2000/svg"
   xmlns:svg="http://www.w3.org/2000/svg"
   preserveAspectRatio="xMidYMid slice">

   <g>
      <path d="m 1974.7421,1272.7597 120.7121,31.913 308.7097,-33.8024 -0.041,-19.358 8.262,-0.8482 6.6881,-3.1332 2.3999,-4.432 0.5635,-566.61065 9.9294,-31.54056 -10.4563,-5.89106 0.5346,-284.30886 4.93,-1.39436 -0.1718,-12.80208 -185.9335,-16.00283 -19.1033,-0.10325 -19.1621,1.00066 -12.1825,1.6192 -94.888,18.15951 0.6639,-3.59833 -120.525,22.45936 0.5887,16.47276 -5.8998,0.36861 0.2181,8.45495 3.8135,1.71183 z"
         id="path-1" class="blur"/>
      <path d="m 2476.8889,117.40835 -115.7049,29.78834 -0.1764,11.63436 13.0246,1.699 0.9863,174.26597 53.0864,4.56818 0.2349,14.82406 -4.9324,1.37864 -0.6429,282.73072 10.7555,6.11024 -10.1922,32.31364 -0.5164,579.5581 19.2294,3.7655 10.9772,-1.0624 20.4661,4.8967 445.2103,-47.904 -1.9323,-901.01422 20.4117,-11.01449 -0.179,-4.03352 -3.0468,0.0314 0.1862,-223.433163 1.1271,-1.095225 2.642,-0.22194 -0.2229,-6.975667 -7.1242,0.0743 -140.9579,32.532045 -12.1845,5.59627 -65.4612,14.97403 -89.5667,-13.71921 -10.1199,-0.14158 -5.8025,0.76353 0.1368,10.47679 -28.3811,4.84418 0.01,-6.89048 -45.6013,-5.3532 -23.9214,7.40461 -18.2017,-1.72697 -7.4954,-0.1699 z"
         id="path-2" class="blur"/>
      <path d="m 2356.2746,303.92691 v 28.96726 l -114.946,-9.92578 -19.2963,-0.0458 -19.3985,0.99125 -12.1181,1.66769 -93.2524,17.82925 0.6612,-3.48687 -123.5696,23.03205 0.6446,16.44189 -5.811,0.29335 0.1474,10.49317 3.8311,1.67155 v 802.19618 l -78.4584,12.777 0.1626,19.5688 -89.077,3.8748 -48.642,-26.0196 0.8752,-988.96764 -0.036,-0.0904 -4.6185,-0.3995 v -8.22664 l 49.4445,-32.58436 4.6588,6.8e-4 144.4855,70.4652 303.7898,14.0652 1.3389,0.98474 0.033,10.06932 -15.1744,5.31787 v 8.07716 l 125.0858,6.13713 1.8576,0.5119 -0.027,9.92409 z"
         id="path-3" class="blur"/>
   </g>
   <style>
      .blur {
         fill: #E0B5B588;
         transition: .4s
      }
      .active {
         fill: #E0B5B500
      }
   </style>
</svg>
