<?xml version="1.0" encoding="UTF-8" standalone="no"?>
<svg
    version="1.1"
    id="svg2"
    width="4740"
    height="2068"
    viewBox="0 0 4740 2068"
    sodipodi:docname="flat.svg"
    inkscape:version="1.1.1 (3bf5ae0d25, 2021-09-20)"
    xmlns:inkscape="http://www.inkscape.org/namespaces/inkscape"
    xmlns:sodipodi="http://sodipodi.sourceforge.net/DTD/sodipodi-0.dtd"
    xmlns:xlink="http://www.w3.org/1999/xlink"
    xmlns="http://www.w3.org/2000/svg"
    xmlns:svg="http://www.w3.org/2000/svg"
    preserveAspectRatio="xMidYMid slice">

    <g>
        <path d="m 2640.6261,1672.2084 v 28.1246 l 157.6651,41.3394 424.4987,-48.1681 -0.1145,-26.4179 -424.5157,45.0007 z"
        id="" class="area" data-active="0" data-block="1" data-floor="" />
        <path d="m 2640.7023,1632.5546 v 37.3593 l 157.2687,40.4817 424.5941,-45.2614 v -38.0722 l -424.4449,43.0566 z"
        id="" class="area" data-active="0" data-block="1" data-floor="" />
        <path d="m 2640.6696,1593.6461 v 36.817 l 157.3307,38.201 424.4006,-43.2382 v -36.7444 l -424.324,40.3226 z"
        id="" class="area" data-active="0" data-block="1" data-floor="" />
        <path d="m 2640.6919,1555.2045 v 36.86 l 157.545,35.103 424.5279,-40.5501 0.5973,-36.9755 -425.2776,38.4901 z"
        id="" class="area" data-active="0" data-block="1" data-floor="" />
        <path d="m 2640.689,1516.8947 v 37.1087 l 157.1544,32.403 425.4593,-38.1824 -0.3828,-35.8626 -424.8923,34.3838 z"
        id="" class="area" data-active="0" data-block="1" data-floor="" />
        <path d="m 2640.6525,1478.1916 v 37.3546 l 157.4733,29.7181 424.7145,-34.3692 0.4565,-37.47 -425.2024,31.6346 z"
        id="" class="area" data-active="0" data-block="1" data-floor="" />
        <path d="m 2640.5865,1439.1284 v 37.2965 l 157.5253,26.9358 425.2337,-31.385 -0.3497,-36.9281 -424.9637,29.497 z"
        id="" class="area" data-active="0" data-block="1" data-floor="" />
        <path d="m 2640.6961,1400.1677 v 37.8098 l 157.2453,25.1999 424.9521,-29.9262 0.6076,-37.5799 -425.5016,27.7631 z"
        id="" class="area" data-active="0" data-block="1" data-floor="" />
        <path d="m 2640.6314,1361.73 v 36.9371 l 157.3045,23.3633 425.4923,-27.7739 -0.5759,-36.8241 -424.8438,24.359 z"
        id="" class="area" data-active="0" data-block="1" data-floor="" />
        <path d="m 2640.7094,1323.0582 -0.022,37.2488 157.2382,19.8606 424.8027,-24.1629 0.4138,-37.885 -425.1235,23.249 z"
        id="" class="area" data-active="0" data-block="1" data-floor="" />
        <path d="m 2640.6772,1280.1342 v 41.626 l 157.4414,18.0593 424.9077,-23.2516 -0.1014,-36.2953 -424.9905,18.5991 z"
        id="" class="area" data-active="0" data-block="1" data-floor="" />
        <path d="m 2640.5775,1242.0096 0.1346,36.7883 157.2181,18.479 424.9015,-18.35 0.1073,-38.0508 -424.9327,16.9139 z"
        id="" class="area" data-active="0" data-block="1" data-floor="" />
        <path d="m 2640.7297,1202.8518 -0.1407,37.6652 157.3436,15.5158 424.8174,-16.8375 -0.019,-34.9037 -424.6704,13.4615 z"
        id="" class="area" data-active="0" data-block="1" data-floor="" />
        <path d="m 2640.6721,1164.4844 0.1025,37.1291 157.1604,14.5097 424.8098,-13.5624 0.5774,-37.0727 -425.2707,11.0383 z"
        id="" class="area" data-active="0" data-block="1" data-floor="" />
        <path d="m 2640.6803,1125.6034 v 37.1426 l 157.3697,11.7471 425.0882,-10.704 -0.4339,-36.5229 -424.702,8.0595 z"
        id="" class="area" data-active="0" data-block="1" data-floor="" />
        <path d="m 2640.7072,1087.1999 v 37.0981 l 157.2005,9.3724 424.7037,-8.2621 0.7266,-36.6667 -425.3311,5.6109 z"
        id="" class="area" data-active="0" data-block="1" data-floor="" />
        <path d="m 2640.6563,1046.9156 -0.061,38.8673 157.3472,6.869 425.1982,-6.0393 -0.3509,-36.2222 -424.6646,2.8341 z"
        id="" class="area" data-active="0" data-block="1" data-floor="" />
        <path d="m 2640.7135,1008.2907 v 37.1734 l 157.4185,5.9112 424.4192,-3.4314 0.8444,-36.6831 -425.3077,0.1466 z"
        id="" class="area" data-active="0" data-block="1" data-floor="" />
        <path d="m 2640.694,969.77249 0.2534,36.73751 157.1097,3.193 425.2095,-0.2801 -0.5102,-35.93404 -424.6655,-2.06211 z"
        id="" class="area" data-active="0" data-block="1" data-floor="" />
        <path d="m 2640.6708,931.28811 v 36.65965 l 157.2136,1.82248 424.6955,1.55004 0.5114,-37.19455 -425.0314,-4.17182 z"
        id="" class="area" data-active="0" data-block="1" data-floor="" />
        <path d="m 2640.7025,890.93186 -0.072,38.79643 157.4279,-1.36921 424.9014,4.18494 -0.2507,-36.22496 -424.7074,-8.28381 z"
        id="" class="area" data-active="0" data-block="1" data-floor="" />
        <path d="m 2640.7039,852.54687 v 37.30941 l 157.2682,-3.11095 424.9182,8.08603 v -36.46697 l -424.7785,-10.44848 z"
        id="" class="area" data-active="0" data-block="1" data-floor="" />
        <path d="m 2640.6956,813.78461 -0.042,37.2264 157.3208,-5.04753 424.7248,10.37907 -0.1197,-36.82884 -424.5083,-13.27876 z"
        id="" class="area" data-active="0" data-block="1" data-floor="" />
        <path d="m 2640.7953,775.2322 v 37.04981 l 157.1482,-7.77947 424.5193,13.02272 0.9241,-36.40361 -425.3141,-16.2891 z"
        id="" class="area" data-active="0" data-block="1" data-floor="" />
        <path d="m 2640.7046,736.45834 0.01,36.88993 157.3376,-10.2787 425.2568,16.09965 -0.3306,-36.8684 -424.9343,-17.8182 z"
        id="" class="area" data-active="0" data-block="1" data-floor="" />
        <path d="m 2640.6789,697.8456 v 37.43822 l 157.3346,-12.27832 424.7484,17.06209 0.03,-36.21898 -424.8486,-20.5838 z"
        id="" class="area" data-active="0" data-block="1" data-floor="" />
        <path d="m 2640.6834,659.12418 -0.1303,36.94238 157.4123,-14.71397 424.7454,20.61243 -0.011,-36.89478 -424.7453,-23.52354 z"
        id="" class="area" data-active="0" data-block="1" data-floor="" />
        <path d="m 2640.7,620.53773 v 37.37036 l 157.3726,-17.61245 424.6391,23.16586 0.7177,-37.81656 -425.3616,-26.21659 z"
        id="" class="area" data-active="0" data-block="1" data-floor="" />
        <path d="m 2640.6937,581.59824 -0.011,37.44858 157.4134,-21.24059 425.2501,25.92369 -0.6169,-35.86067 -424.7454,-28.29476 z"
        id="" class="area" data-active="0" data-block="1" data-floor="" />
        <path d="m 2640.7139,543.05541 0.01,37.30986 157.3812,-22.49723 424.6023,28.37616 0.4412,-36.61344 -424.9831,-32.62434 z"
        id="" class="area" data-active="0" data-block="1" data-floor="" />
        <path d="m 2641.5406,503.79906 -0.8539,37.8677 157.4159,-26.12129 424.9948,32.63341 -0.243,-37.9782 -425.2797,-34.47366 z"
        id="" class="area" data-active="0" data-block="1" data-floor="" />
        <path d="m 3226.0529,1643.9522 v 28.7724 l 89.3107,16.3295 569.3491,-63.8104 0.054,-30.0078 -568.9759,62.5786 z"
        id="" class="area" data-active="1" data-block="2" data-floor="1" />
        <path d="m 3884.6546,1593.7321 -0.051,-33.1741 -569.3358,58.5186 -89.2941,-13.4212 0.2055,36.8854 89.2902,13.7642 z"
        id="" class="area" data-active="1" data-block="2" data-floor="2" />
        <path d="m 3884.593,1558.9673 0.1096,-32.0678 -569.4168,53.8229 -89.3273,-11.6607 0.048,35.0951 89.2284,13.3737 z"
        id="" class="area" data-active="1" data-block="2" data-floor="3" />
        <path d="m 3884.6287,1525.3156 v -33.0153 l -569.3018,51.0981 -89.2644,-11.1604 -0.067,35.2797 89.3477,11.7043 z"
        id="" class="area" data-active="1" data-block="2" data-floor="4" />
        <path d="m 3884.5972,1490.7861 v -32.8372 l -569.1204,46.7316 -89.4564,-10.1958 0.1126,36.2566 89.1643,11.1312 z"
        id="" class="area" data-active="1" data-block="2" data-floor="5" />
        <path d="m 3884.5176,1456.5065 0.2021,-33.4092 -569.3757,43.7545 -89.2752,-9.4159 v 35.618 l 89.4228,10.1674 z"
        id="" class="area" data-active="1" data-block="2" data-floor="6" />
        <path d="m 3884.6708,1421.5434 v -33.0935 l -569.3104,40.5889 -89.4225,-9.4586 0.1468,36.3446 89.197,9.4415 z"
        id="" class="area" data-active="1" data-block="2" data-floor="7" />
        <path d="m 3884.6169,1386.8885 v -32.977 l -569.234,36.8343 -89.3676,-7.7712 v 35.1646 l 89.3919,9.4786 z"
        id="" class="area" data-active="1" data-block="2" data-floor="8" />
        <path d="m 3884.5986,1352.3055 0.1196,-32.3215 -569.3378,33.1975 -89.393,-6.8994 0.065,35.3137 89.3107,7.7792 z"
        id="" class="area" data-active="0" data-block="2" data-floor="" />
        <path d="m 3884.6671,1318.5442 v -33.1891 l -569.3342,29.6932 -89.3978,-5.5407 0.044,35.4311 89.3023,6.8112 z"
        id="" class="area" data-active="0" data-block="2" data-floor="" />
        <path d="m 3884.6221,1283.9368 v -33.3935 l -569.2819,26.7655 -89.3661,-5.4774 0.017,36.268 89.2731,5.4714 z"
        id="" class="area" data-active="0" data-block="2" data-floor="" />
        <path d="m 3884.5674,1249.0224 v -32.631 l -569.0536,22.3063 -89.4731,-3.9116 -0.01,35.5969 89.2697,5.4879 z"
        id="" class="area" data-active="0" data-block="2" data-floor="" />
        <path d="m 3884.474,1214.8782 v -32.1927 l -569.0335,18.1725 -89.4415,-2.546 v 34.9606 l 89.4543,3.9952 z"
        id="" class="area" data-active="0" data-block="2" data-floor="" />
        <path d="m 3884.4814,1181.2168 v -33.3501 l -569.0678,14.957 -89.3177,-1.4333 -0.08,35.4279 89.3309,2.5957 z"
        id="" class="area" data-active="0" data-block="2" data-floor="" />
        <path d="m 3884.4503,1146.3748 v -32.4816 l -569.1448,11.39 -89.3254,-1.4513 0.1904,36.0933 89.1588,1.514 z"
        id="" class="area" data-active="0" data-block="2" data-floor="" />
        <path d="m 3884.4555,1112.4163 0.2064,-33.9904 -569.3893,8.1137 -89.2152,-0.2273 v 35.9611 l 89.261,1.4763 z"
        id="" class="area" data-active="0" data-block="2" data-floor="" />
        <path d="m 3884.6042,1076.9 0.025,-32.8638 -569.2588,5.236 -89.2679,-0.04 -0.037,35.5966 89.1262,0.2256 z"
        id="" class="area" data-active="0" data-block="2" data-floor="" />
        <path d="m 3884.6288,1042.6148 0.066,-32.7652 -569.3057,0.9462 -89.359,1.2792 0.02,35.7063 89.2886,-0.1016 z"
        id="" class="area" data-active="0" data-block="2" data-floor="" />
        <path d="m 3884.6582,1008.3796 v -32.87028 l -569.3117,-2.46828 -89.2917,2.64165 -0.083,34.91061 89.5132,-1.3057 z"
        id="" class="area" data-active="0" data-block="2" data-floor="" />
        <path d="M 3884.651,974.05435 V 941.273 l -569.2933,-6.33196 -89.2741,3.60905 0.016,35.53332 89.345,-2.52543 z"
        id="" class="area" data-active="0" data-block="2" data-floor="" />
        <path d="m 3884.6191,939.82764 v -33.32217 l -569.3278,-9.45701 -89.293,3.9956 0.054,36.01719 89.2321,-3.70549 z"
        id="" class="area" data-active="0" data-block="2" data-floor="" />
        <path d="m 3884.6037,905.04409 v -32.9972 l -569.2634,-12.59879 -89.3477,4.92353 0.081,35.2213 89.3365,-4.09926 z"
        id="" class="area" data-active="0" data-block="2" data-floor="" />
        <path d="m 3884.5539,870.5644 v -32.91964 l -569.1448,-16.47242 -89.444,6.27627 0.033,35.28608 89.4299,-4.84941 z"
        id="" class="area" data-active="0" data-block="2" data-floor="" />
        <path d="m 3884.5482,836.10177 0.195,-32.37414 -569.3809,-20.43563 -89.3553,7.69601 -0.026,35.03594 89.3454,-6.38463 z"
        id="" class="area" data-active="0" data-block="2" data-floor="" />
        <path d="m 3884.7056,802.25994 -0.011,-33.23421 -569.2843,-23.45795 -89.4021,7.5827 0.027,36.36723 89.4022,-7.84426 z"
        id="" class="area" data-active="0" data-block="2" data-floor="" />
        <path d="m 3884.6537,767.56756 v -32.87863 l -569.2192,-27.74541 -89.4659,9.08525 0.1388,35.49446 89.2855,-7.53615 z"
        id="" class="area" data-active="0" data-block="2" data-floor="" />
        <path d="m 3884.6302,733.15568 -0.011,-33.02713 -569.4633,-31.56911 -89.1474,9.59336 0.01,36.31716 89.4686,-9.04621 z"
        id="" class="area" data-active="0" data-block="2" data-floor="" />
        <path d="m 3884.6623,698.69021 0.1617,-33.34085 -569.4215,-34.9011 -89.292,11.02366 -0.1482,35.16741 89.0404,-9.63692 z"
        id="" class="area" data-active="0" data-block="2" data-floor="" />
        <path d="m 3884.8201,663.89017 v -31.93768 l -569.8031,-38.58821 -88.8608,12.14542 0.016,34.38806 89.1845,-11.11405 z"
        id="" class="area" data-active="0" data-block="2" data-floor="" />
        <path d="m 3884.783,630.66477 -0.1703,-33.58362 -569.4554,-41.32419 -89.1221,12.33871 0.126,35.95613 89.2845,-12.36149 z"
        id="" class="area" data-active="0" data-block="2" data-floor="" />
        <path d="m 3884.6515,595.41445 -0.041,-32.452 -569.3625,-45.59552 -89.272,13.05724 0.06,36.01549 89.2156,-12.34546 z"
        id="" class="area" data-active="0" data-block="2" data-floor="" />
        <path d="m 3884.6362,561.53424 v -33.36328 l -569.2813,-49.40645 -89.2634,14.66723 -0.129,35.58742 89.501,-13.27748 z"
        id="" class="area" data-active="0" data-block="2" data-floor="" />
        <path d="m 3884.5961,526.70185 0.057,-32.36255 -569.3243,-52.83962 -89.3701,15.60959 0.1037,34.75313 89.281,-14.90069 z"
        id="" class="area" data-active="0" data-block="2" data-floor="" />
        <path d="M 3884.6438,492.78699 V 460.1192 l -569.2548,-56.57682 -149.2594,27.82965 v 16.17878 l 59.7592,5.49462 9e-4,2.62967 89.4677,-15.73079 z"
        id="" class="area" data-active="0" data-block="2" data-floor="" />
        <path d="m 3884.6175,458.61346 0.032,-33.61094 -569.1462,-59.47684 -148.9143,28.58618 -0.4278,35.69944 149.3369,-27.80344 z"
        id="" class="area" data-active="0" data-block="2" data-floor="" />
        <path d="m 3884.5974,423.43173 0.067,-32.41625 -569.477,-64.23407 -148.6032,30.77148 v 34.90914 l 148.8776,-28.48744 z"
        id="" class="area" data-active="0" data-block="2" data-floor="" />
        <path d="m 3884.6213,389.55832 0.093,-34.03955 -569.4796,-67.02199 -148.7689,32.41737 0.1202,35.15773 148.8153,-31.02096 z"
        id="" class="area" data-active="0" data-block="2" data-floor="" />
        <path d="m 3884.7391,354.09632 0.024,-32.63115 -568.971,-70.86286 -149.4823,33.34806 0.099,35.45059 149.0998,-32.50453 z"
        id="" class="area" data-active="0" data-block="2" data-floor="" />
        <path d="M 3884.7523,320.01022 V 287.6868 l -569.4519,-74.53649 -148.8811,36.58728 -0.1739,32.64619 149.5587,-33.42723 z"
        id="" class="area" data-active="0" data-block="2" data-floor="" />
        <path d="m 3884.805,286.28439 -0.1663,-36.17019 -569.343,-76.24391 -149.1657,38.88472 0.2627,35.33067 149.0317,-36.67241 z"
        id="" class="area" data-active="0" data-block="2" data-floor="" />
        <path d="m 3884.6003,248.57286 -405.3795,-54.52657 -0.4419,-34.59898 405.9335,59.7801 z"
        id="" class="area" data-active="0" data-block="2" data-floor="" />
        <path d="m 2527.5525,1634.0511 v -22.2782 l -118.9954,5.746 -66.3938,-32.411 v 20.4365 l 66.2387,35.5197 z"
        id="" class="area" data-active="0" data-block="3" data-floor="" />
        <path d="m 2527.4487,1610.0757 v -1.2167 l 102.5823,-17.7821 v -18.1453 l -221.4652,9.7445 -66.5021,-29.1574 0.1109,29.7841 66.5036,32.6845 z"
        id="" class="area" data-active="0" data-block="3" data-floor="" />
        <path d="m 2630.0082,1571.487 -0.1816,-31.2277 -221.2003,6.74 -66.4421,-25.9513 -0.1122,30.8295 66.5495,29.1785 z"
        id="" class="area" data-active="0" data-block="3" data-floor="" />
        <path d="m 2629.7701,1538.7111 0.2049,-34.9545 -221.2853,5.8459 -66.3806,-23.1332 -0.1675,33.0106 66.5586,26.0195 z"
        id="" class="area" data-active="0" data-block="3" data-floor="" />
        <path d="m 2629.9161,1502.1819 0.1395,-34.3426 -221.3498,5.2113 -66.6612,-21.1416 0.2584,33.0834 66.3721,23.0529 z"
        id="" class="area" data-active="0" data-block="3" data-floor="" />
        <path d="m 2630.0399,1466.2658 0.032,-33.137 -221.3214,4.4257 -66.5497,-18.7072 -0.055,31.6379 66.595,21.085 z"
        id="" class="area" data-active="0" data-block="3" data-floor="" />
        <path d="m 2629.9795,1431.5757 0.093,-34.4875 -221.3207,5.1996 -66.2301,-18.3458 -0.2387,33.4607 66.4617,18.6921 z"
        id="" class="area" data-active="0" data-block="3" data-floor="" />
        <path d="m 2630.0072,1395.5372 v -32.9317 l -221.2785,4.458 -66.7364,-17.0475 0.4881,32.3133 66.3252,18.4542 z"
        id="" class="area" data-active="0" data-block="3" data-floor="" />
        <path d="m 2630.0461,1361.2211 v -33.271 l -221.2029,2.4955 -66.7975,-14.3779 -0.082,32.3786 66.7356,17.2277 z"
        id="" class="area" data-active="0" data-block="3" data-floor="" />
        <path d="m 2630.0219,1326.385 0.01,-33.1599 -221.3661,1.6406 -66.7204,-12.6623 0.1108,32.537 66.698,14.3165 z"
        id="" class="area" data-active="0" data-block="3" data-floor="" />
        <path d="m 2629.9792,1291.7781 0.1627,-35.0553 -221.3904,3.0302 -66.5461,-11.794 -0.1803,32.7264 66.5216,12.659 z"
        id="" class="area" data-active="0" data-block="3" data-floor="" />
        <path d="m 2630.0575,1255.1881 v -32.9297 l -221.3263,1.8152 -66.7896,-10.2032 0.2807,32.5084 66.4633,12.0119 z"
        id="" class="area" data-active="0" data-block="3" data-floor="" />
        <path d="m 2630.0246,1220.7323 v -34.1798 l -221.3041,1.3057 -66.8802,-8.0524 -0.01,32.389 66.6941,10.3035 z"
        id="" class="area" data-active="0" data-block="3" data-floor="" />
        <path d="m 2630.0689,1185.0418 -0.046,-32.986 -221.3032,0.01 -66.7022,-6.1348 -0.1036,32.3698 66.741,8.18 z"
        id="" class="area" data-active="0" data-block="3" data-floor="" />
        <path d="m 2630.0622,1150.466 0.037,-33.9259 -221.4851,-0.2961 -66.7757,-4.2891 0.1868,32.4149 66.5987,6.2174 z"
        id="" class="area" data-active="0" data-block="3" data-floor="" />
        <path d="m 2630.11,1115.0983 -0.028,-33.7169 -221.4051,-1.3211 -66.7169,-2.1679 -0.06,32.5814 66.7341,4.3203 z"
        id="" class="area" data-active="0" data-block="3" data-floor="" />
        <path d="m 2630.099,1079.8694 -0.3354,-33.788 -221.138,-0.3913 -66.7859,-1.6121 0.103,32.2548 66.6798,2.2668 z"
        id="" class="area" data-active="0" data-block="3" data-floor="" />
        <path d="m 2629.7592,1044.6649 0.1221,-33.306 -221.1874,-1.5797 -66.7732,0.2828 -0.092,32.3559 66.7902,1.7738 z"
        id="" class="area" data-active="0" data-block="3" data-floor="" />
        <path d="m 2629.8593,1009.8633 0.16,-34.88406 -221.4246,-1.33935 -66.5636,2.28275 -0.1869,32.56476 66.8174,-0.373 z"
        id="" class="area" data-active="0" data-block="3" data-floor="" />
        <path d="m 2629.9863,973.46224 0.069,-33.27265 -221.5787,-2.08277 -66.5199,4.02515 0.072,32.14092 66.762,-2.19188 z"
        id="" class="area" data-active="0" data-block="3" data-floor="" />
        <path d="m 2630.1021,938.55874 -0.077,-33.16837 -221.3828,-2.76252 -66.6939,5.267 -0.01,32.65556 66.4589,-3.96404 z"
        id="" class="area" data-active="0" data-block="3" data-floor="" />
        <path d="m 2630.0512,903.82624 -0.169,-33.61301 -221.0705,-3.51217 -66.8576,7.37141 0.035,32.43293 66.6604,-5.42893 z"
        id="" class="area" data-active="0" data-block="3" data-floor="" />
        <path d="m 2629.8557,868.79386 0.1438,-33.70704 -221.2381,-4.40353 -66.9031,9.38427 0.093,32.56406 66.8869,-7.32407 z"
        id="" class="area" data-active="0" data-block="3" data-floor="" />
        <path d="m 2629.9678,833.51788 v -33.48695 l -221.4927,-5.28011 -66.6338,10.67478 -1e-4,33.21362 66.9637,-9.44624 z"
        id="" class="area" data-active="0" data-block="3" data-floor="" />
        <path d="m 2629.9167,798.5137 0.061,-34.25273 -221.3742,-5.20632 -66.7208,12.95205 -0.1392,31.90777 66.7175,-10.78736 z"
        id="" class="area" data-active="0" data-block="3" data-floor="" />
        <path d="m 2629.939,762.74741 -0.1257,-33.29767 -221.1647,-6.47153 -66.6777,15.10254 -0.1011,32.21752 66.8354,-12.88479 z"
        id="" class="area" data-active="0" data-block="3" data-floor="" />
        <path d="m 2629.7194,727.8301 0.044,-32.48565 -221.2269,-6.69821 -66.5511,15.3172 -0.08,32.63629 66.7016,-15.2403 z"
        id="" class="area" data-active="0" data-block="3" data-floor="" />
        <path d="m 2629.759,693.86656 v -34.85128 l -221.2335,-6.718 -66.6665,17.70099 0.095,32.47055 66.5429,-15.2924 z"
        id="" class="area" data-active="0" data-block="3" data-floor="" />
        <path d="m 2629.7756,657.33244 0.2838,-34.23956 -221.787,-6.85858 -66.2858,19.81431 -0.1272,32.46074 66.7875,-17.7931 z"
        id="" class="area" data-active="0" data-block="3" data-floor="" />
        <path d="m 2630.0024,621.58209 0.074,-32.81784 -221.2897,-8.82291 -66.9607,22.01412 0.116,32.54444 66.3644,-20.06299 z"
        id="" class="area" data-active="0" data-block="3" data-floor="" />
        <path d="m 2630.09,587.20503 -0.1493,-34.9478 -221.4593,-6.95924 -66.4807,22.74206 -0.1855,32.37717 67.0718,-22.14703 z"
        id="" class="area" data-active="0" data-block="3" data-floor="" />
        <path d="m 2629.9276,550.72343 v -32.7747 l -221.2122,-8.67334 -66.8541,24.93273 0.1386,32.31717 66.5963,-22.91238 z"
        id="" class="area" data-active="0" data-block="3" data-floor="" />
        <path d="m 2629.912,516.45193 0.1312,-33.04294 -221.6963,-10.33839 -66.3693,26.8432 -0.1867,32.66355 66.8106,-24.91197 z"
        id="" class="area" data-active="0" data-block="3" data-floor="" />
        <path d="m 2342.1906,466.0696 -0.1621,32.2388 66.2428,-27.00423 227.6643,10.99093 134.5485,-25.83472 -361.7843,-19.34852 z"
        id="" class="area" data-active="0" data-block="3" data-floor="" />
        <path d="m 2342.1758,432.3358 -0.077,32.184 66.5027,-29.14253 368.5279,19.57516 13.5761,-2.4168 17.3716,0.85427 121.16,-22.36525 23.9888,-1.47638 22.8444,0.17498 89.344,4.49991 76.5075,7.38899 v -8.35652 l -733.2752,-31.95549 z"
        id="" class="area" data-active="0" data-block="3" data-floor="" />
        <path d="m 2342.0446,398.33419 0.062,32.10303 66.3745,-31.0583 733.3266,32.23315 v -31.95951 l -733.0915,-31.59097 z"
        id="" class="area" data-active="0" data-block="3" data-floor="" />
        <path d="m 2342.1574,364.76928 -0.1692,31.9238 66.3645,-30.32982 580.123,24.82936 v -32.08575 l -580.2178,-27.02142 z"
        id="" class="area" data-active="0" data-block="3" data-floor="" />
    </g>
    <style>
        .area {
            fill: #E0B5B500;
            transition: .25s
        }
        .area:hover {
            fill: #0c66ccaa;
        }
    </style>
</svg>
