<?xml version="1.0" encoding="UTF-8" standalone="no"?>
<!-- Created with Inkscape (http://www.inkscape.org/) -->

<svg
   width="23"
   height="23"
   viewBox="0 0 18 42"
   version="1.1"
   id="svg534"
   xmlns="http://www.w3.org/2000/svg"
   xmlns:svg="http://www.w3.org/2000/svg">
  <defs
     id="defs531" />
  <g
     id="layer1"
     transform="translate(-174.24605,22.415607)">
    <g
       id="g126"
       transform="matrix(0.35277777,0,0,-0.35277777,184.34701,5.9870603)">
      <path
         d="m 0,0 v -25.284 c 0,-2.373 1.377,-3.614 9.203,-4.212 3.909,-0.311 4.992,-3.057 5.231,-3.893 0.358,-1.242 0.135,-2.54 -0.613,-3.55 -0.797,-1.051 -2.062,-1.665 -3.4,-1.665 h -30.738 c -1.337,0 -2.603,0.614 -3.391,1.648 -0.764,1.027 -0.987,2.325 -0.613,3.583 0.231,0.82 1.313,3.566 5.222,3.877 7.826,0.598 9.203,1.839 9.203,4.212 V 0 c 0,4.268 -2.149,5.493 -4.88,7.046 -5.867,3.344 -12.077,8.049 -13.613,17.57 -1.473,9.131 4.187,27.02 4.84,29.027 l 0.112,0.349 h 2.5 l -0.343,-1.074 c -0.255,-0.788 -6.154,-19.194 -4.753,-27.92 1.378,-8.526 7.062,-12.81 12.435,-15.882 C -10.739,7.5 -7.507,5.66 -7.507,0 v -25.284 c 0,-5.286 -5.167,-6.114 -11.409,-6.592 -2.221,-0.176 -2.905,-1.434 -3.112,-2.174 -0.168,-0.533 -0.08,-1.051 0.231,-1.465 0.334,-0.437 0.883,-0.7 1.48,-0.7 h 30.738 c 0.598,0 1.155,0.263 1.489,0.7 0.295,0.407 0.382,0.932 0.223,1.465 -0.207,0.74 -0.892,1.998 -3.113,2.174 -6.241,0.478 -11.408,1.306 -11.408,6.592 V 0 c 0,5.66 3.24,7.5 6.09,9.124 5.382,3.064 11.058,7.355 12.436,15.874 1.401,8.726 -4.499,27.132 -4.753,27.912 l -0.359,1.082 h 2.516 L 13.653,53.65 C 14.306,51.636 19.967,33.747 18.494,24.616 16.965,15.11 10.756,10.397 4.888,7.046 2.158,5.493 0,4.268 0,0"
         id="path128" />
    </g>
    <g
       id="g130"
       transform="matrix(0.35277777,0,0,-0.35277777,185.34696,-4.3540909)">
      <path
         d="m 0,0 c 0.729,10.396 2.821,41.592 2.821,41.592 0.047,0.684 0.722,1.154 1.38,0.955 8.233,-2.497 10.982,-10.06 11.012,-10.143 h 2.162 C 16.349,38.086 11.514,47.768 1.083,51.198 L -1.947,6.647 c -1.827,2.49 -4.765,4.116 -8.083,4.116 -5.531,0 -10.031,-4.5 -10.031,-10.031 0,-5.531 4.5,-10.03 10.031,-10.03 5.284,0 9.665,4.107 10.03,9.298"
         id="path132" />
    </g>
  </g>
  <style>
    path{
        fill:#000000;
        fill-opacity:1;
        fill-rule:nonzero;
        stroke:none
    }
  </style>
</svg>
