<?xml version="1.0" ?><svg style="enable-background:new 0 0 64 64;" version="1.1" viewBox="0 0 64 64" xml:space="preserve" xmlns="http://www.w3.org/2000/svg" xmlns:xlink="http://www.w3.org/1999/xlink"><g id="Layer_2"/><g id="Layer_3"/><g id="Layer_4"/><g id="Layer_5"/><g id="Layer_6"/><g id="Layer_7"/><g id="Layer_8"/><g id="Layer_9"/><g id="Layer_10"/><g id="Layer_11"/><g id="Layer_12"/><g id="Layer_13"/><g id="Layer_15"/><g id="Layer_16"/><g id="Layer_17"/><g id="Layer_18"/><g id="Layer_19"><g><path d="M63.9,58.3L45.9,27.3c-0.2-0.3-0.6-0.6-1-0.6c-0.4,0-0.8,0.2-1,0.6l-8,13.9l-4.8-8.3c0-0.1-0.1-0.1-0.1-0.2L24,20.4    c-0.4-0.7-1.5-0.7-1.9,0l-7,12.2c-0.1,0.1-0.2,0.3-0.3,0.4L0.1,58.3c-0.2,0.3-0.2,0.8,0,1.1s0.6,0.6,1,0.6H45h17.9    c0.4,0,0.8-0.2,1-0.6C64,59.1,64,58.7,63.9,58.3z M45,30.1l3.7,6.4l-1.2,1.2l-1.9-1.9c-0.4-0.4-1.1-0.4-1.6,0l-1.8,1.8l-1-1    L45,30.1z M23,23.1l5.8,10l-2.2,2.2l-3.1-3.1c-0.4-0.4-1.1-0.4-1.6,0l-2.8,2.8l-1.9-1.9L23,23.1z M16.1,35.1l2.3,2.3    c0.4,0.4,1.1,0.4,1.6,0l2.8-2.8l3.1,3.1c0.2,0.2,0.5,0.3,0.8,0.3s0.6-0.1,0.8-0.3l2.6-2.6l12.9,22.4l0.2,0.3H3L16.1,35.1z     M45.6,57.8l-8.3-14.4l2.8-4.9l1.4,1.4c0.4,0.4,1.1,0.4,1.6,0l1.8-1.8l1.9,1.9c0.2,0.2,0.5,0.3,0.8,0.3s0.6-0.1,0.8-0.3l1.5-1.5    L61,57.8H45.6z"/><path d="M39.1,16.6c2,0,3.6-1.6,3.6-3.6s-1.6-3.6-3.6-3.6S35.5,11,35.5,13S37.1,16.6,39.1,16.6z M39.1,11.6c0.8,0,1.4,0.6,1.4,1.4    s-0.6,1.4-1.4,1.4s-1.4-0.6-1.4-1.4S38.4,11.6,39.1,11.6z"/><path d="M39.1,8.1c0.6,0,1.1-0.5,1.1-1.1V5.1c0-0.6-0.5-1.1-1.1-1.1S38,4.5,38,5.1V7C38,7.6,38.5,8.1,39.1,8.1z"/><path d="M38,19v1.9c0,0.6,0.5,1.1,1.1,1.1s1.1-0.5,1.1-1.1V19c0-0.6-0.5-1.1-1.1-1.1S38,18.4,38,19z"/><path d="M44,13c0,0.6,0.5,1.1,1.1,1.1H47c0.6,0,1.1-0.5,1.1-1.1c0-0.6-0.5-1.1-1.1-1.1h-1.9C44.5,11.9,44,12.4,44,13z"/><path d="M31.2,14.1h1.9c0.6,0,1.1-0.5,1.1-1.1c0-0.6-0.5-1.1-1.1-1.1h-1.9c-0.6,0-1.1,0.5-1.1,1.1C30.1,13.6,30.6,14.1,31.2,14.1z    "/><path d="M43.4,9.9c0.3,0,0.6-0.1,0.8-0.3l1.4-1.4c0.4-0.4,0.4-1.1,0-1.6c-0.4-0.4-1.1-0.4-1.6,0L42.6,8c-0.4,0.4-0.4,1.1,0,1.6    C42.8,9.8,43.1,9.9,43.4,9.9z"/><path d="M34.1,16.5l-1.4,1.4c-0.4,0.4-0.4,1.1,0,1.6c0.2,0.2,0.5,0.3,0.8,0.3c0.3,0,0.6-0.1,0.8-0.3l1.4-1.4    c0.4-0.4,0.4-1.1,0-1.6C35.2,16,34.5,16,34.1,16.5z"/><path d="M42.6,16.5c-0.4,0.4-0.4,1.1,0,1.6l1.4,1.4c0.2,0.2,0.5,0.3,0.8,0.3c0.3,0,0.6-0.1,0.8-0.3c0.4-0.4,0.4-1.1,0-1.6    l-1.4-1.4C43.7,16,43,16,42.6,16.5z"/><path d="M34.1,9.6c0.2,0.2,0.5,0.3,0.8,0.3c0.3,0,0.6-0.1,0.8-0.3c0.4-0.4,0.4-1.1,0-1.6l-1.4-1.4c-0.4-0.4-1.1-0.4-1.6,0    c-0.4,0.4-0.4,1.1,0,1.6L34.1,9.6z"/></g></g><g id="Layer_20"/><g id="Layer_21"/><g id="Layer_22"/><g id="Layer_23"/><g id="Layer_24"/><g id="Layer_25"/><g id="Layer_26"/><g id="Layer_27"/></svg>