<?xml version="1.0" encoding="UTF-8" standalone="no"?>
<!-- Created with Inkscape (http://www.inkscape.org/) -->

<svg
   width="23"
   height="18"
   viewBox="0 0 45 36"
   version="1.1"
   id="svg1026"
   xmlns="http://www.w3.org/2000/svg"
   xmlns:svg="http://www.w3.org/2000/svg">
  <defs
     id="defs1023" />
  <g
     id="layer1"
     transform="translate(-4.1719746,-3.6668717)">
    <g
       id="g236"
       transform="matrix(0.35277777,0,0,-0.35277777,38.584459,10.968666)">
      <path
         d="m 0,0 h 14.409 c 4.828,0 8.757,3.928 8.757,8.757 0,4.829 -3.929,8.758 -8.757,8.758 H 0 Z m 0,-18.894 h -3.184 v 39.592 h 17.593 c 6.584,0 11.941,-5.356 11.941,-11.941 0,-6.585 -5.357,-11.942 -11.941,-11.942 L 0,-3.185 Z"
         id="path238" />
    </g>
    <path
       d="M 48.602219,39.629676 H 4.7191378 v -0.84244 H 48.602219 Z"
       style="stroke-width:0.352778"
       id="path240" />
    <g
       id="g242"
       transform="matrix(0.35277777,0,0,-0.35277777,18.765868,32.265226)">
      <path
         d="M 0,0 C -0.008,-1.099 -0.144,-2.166 -0.406,-3.185 H 47.011 C 46.748,-2.166 46.612,-1.099 46.604,0 Z m 85.94,4.633 -1.6,5.811 c -2.284,8.145 -7.579,10.493 -15.381,11.648 l -16.83,2.5 c -3.614,0.533 -7.021,2.253 -9.608,4.832 l -9.816,9.824 -2.254,-2.253 9.824,-9.824 c 1.059,-1.059 2.246,-1.99 3.511,-2.786 l -57.384,1.131 c -1.743,0 -3.232,0.182 -4.562,0.556 l -0.453,0.136 c -0.772,0.223 -1.505,0.43 -2.341,0.565 -1.791,0.287 -3.375,0.167 -5.302,-0.398 -1.751,-0.51 -4.251,-1.616 -5.573,-2.349 -4.275,-2.372 -7.149,-6.13 -8.319,-10.875 -0.82,-3.319 -1.258,-6.599 -1.218,-9.004 0.087,-4.315 3.272,-7.332 7.754,-7.332 h 7.364 c -0.263,1.019 -0.398,2.086 -0.406,3.185 h -6.958 c -3.312,0 -4.53,2.269 -4.57,4.211 -0.04,2.101 0.382,5.167 1.131,8.176 0.947,3.869 3.288,6.926 6.767,8.853 1.178,0.653 3.431,1.64 4.928,2.086 0.955,0.278 1.767,0.414 2.587,0.414 0.43,0 0.86,-0.04 1.306,-0.112 0.652,-0.103 1.266,-0.278 1.974,-0.485 l 0.462,-0.135 c 1.608,-0.454 3.383,-0.677 5.39,-0.677 h 0.008 c 0,0 37.727,-0.78 50.306,-0.995 15.214,-0.263 22.681,-1.035 31.821,-2.389 6.87,-1.018 10.939,-2.818 12.77,-9.354 L 82.875,3.781 C 83.146,2.794 82.899,1.751 82.199,0.971 81.61,0.326 80.742,0 79.866,0 H 73.258 C 73.25,-1.099 73.115,-2.166 72.853,-3.185 h 7.141 c 1.942,0 3.734,0.892 4.912,2.436 1.178,1.545 1.552,3.511 1.034,5.382"
         id="path244" />
    </g>
    <g
       id="g246"
       transform="matrix(0.35277777,0,0,-0.35277777,14.064498,28.913836)">
      <path
         d="m 0,0 c -5.196,0 -9.423,-4.227 -9.423,-9.423 0,-5.197 4.227,-9.425 9.423,-9.425 5.197,0 9.424,4.228 9.424,9.425 C 9.424,-4.227 5.197,0 0,0"
         id="path248" />
    </g>
    <g
       id="g250"
       transform="matrix(0.35277777,0,0,-0.35277777,39.907909,28.913836)">
      <path
         d="m 0,0 c -5.197,0 -9.424,-4.227 -9.424,-9.423 0,-5.197 4.227,-9.425 9.424,-9.425 5.196,0 9.423,4.228 9.423,9.425 C 9.423,-4.227 5.196,0 0,0"
         id="path252" />
    </g>
    <g
       id="g254"
       transform="matrix(0.35277777,0,0,-0.35277777,14.216088,21.195446)">
      <path
         d="m 0,0 c -0.912,0.054 -1.868,-0.364 -2.407,-1.128 -1.672,-2.364 -0.422,-6.355 -0.367,-6.523 l 8.525,0.456 c 0,0 -1.501,3.034 -2.654,4.858 C 2.117,-0.788 1.237,-0.052 0,0"
         id="path256" />
    </g>
    <g
       id="g258"
       transform="matrix(0.35277777,0,0,-0.35277777,22.128788,21.195446)">
      <path
         d="m 0,0 c -0.912,0.054 -1.868,-0.364 -2.407,-1.128 -1.672,-2.364 -0.422,-6.355 -0.367,-6.523 l 8.525,0.456 c 0,0 -1.501,3.034 -2.654,4.858 C 2.117,-0.788 1.237,-0.052 0,0"
         id="path260" />
    </g>
  </g>
  <style>
    path{
        fill:#000000;
        fill-opacity:1;
        fill-rule:nonzero;
        stroke:none
    }
  </style>
</svg>
