<?xml version="1.0" encoding="UTF-8" standalone="no"?>
<!-- Created with Inkscape (http://www.inkscape.org/) -->

<svg
   width="23"
   height="23"
   viewBox="0 0 44 32"
   version="1.1"
   id="svg2252"
   xmlns="http://www.w3.org/2000/svg"
   xmlns:svg="http://www.w3.org/2000/svg">
  <defs
     id="defs2249" />
  <g
     id="layer1"
     transform="translate(204.26774,-106.30391)">
    <g
       id="g534"
       transform="matrix(0.35277777,0,0,-0.35277777,-171.72752,136.93137)">
      <path
         d="m 0,0 c -14.648,0 -26.564,11.945 -26.564,26.629 v 3.838 c 0,8.264 -6.237,15.101 -14.249,16.053 v 0.577 9.868 C -27.057,55.978 -16.166,44.47 -16.166,30.467 V 26.629 C -16.166,17.716 -8.913,10.463 0,10.463 H 10.235 V 0 Z M -27.508,0 V 13.747 C -24.785,7.933 -20.305,3.109 -14.729,0 Z m -23.028,0 v 20.234 h 9.723 9.47 V 0 Z m -23.027,0 v 20.234 h 5.887 13.305 V 0 Z m 9.721,43.262 h 19.194 V 42.798 24.069 h -5.888 -3.835 -9.471 z m 0.006,22.968 h 19.182 V 47.099 h -3.961 v 8.827 c 0,3.109 -2.521,5.629 -5.63,5.629 -3.109,0 -5.628,-2.52 -5.628,-5.629 v -8.827 h -3.963 z m 33.565,-42.161 h -10.542 v 18.565 c 5.89,-0.926 10.414,-6.022 10.414,-12.167 v -3.838 c 0,-0.864 0.058,-1.714 0.128,-2.56 M 14.07,0 V 14.298 H 0 c -6.8,0 -12.331,5.531 -12.331,12.331 v 3.838 c 0,16.117 -12.618,29.309 -28.49,30.303 v 10.197 l -2.528,2.996 -10.896,12.855 -10.897,-12.855 -2.527,-2.996 v -23.87 h -0.007 V 24.069 h -9.722 V 0 H -92.24 v -3.835 h 14.842 23.027 3.835 23.028 H 0 14.07 31.493 V 0 Z"
         id="path536" />
    </g>
  </g>
  <style>
    path{
        fill:#000000;
        fill-opacity:1;
        fill-rule:nonzero;
        stroke:none
    }
  </style>
</svg>
