<?xml version="1.0" encoding="UTF-8" standalone="no"?>
<!-- Created with Inkscape (http://www.inkscape.org/) -->

<svg
   width="23"
   height="17"
   viewBox="0 0 41 29"
   version="1.1"
   id="svg956"
   xmlns="http://www.w3.org/2000/svg"
   xmlns:svg="http://www.w3.org/2000/svg">
  <defs
     id="defs953" />
  <g
     id="layer1"
     transform="translate(-24.132893,-168.89179)">
    <g
       id="g262"
       transform="matrix(0.35277777,0,0,-0.35277777,62.426775,183.45058)">
      <path
         d="m 0,0 -9.063,-21.086 c -3.872,-9.011 -12.711,-14.833 -22.52,-14.833 h -54.551 c -9.96,0 -18.063,8.104 -18.063,18.064 0,9.959 8.103,18.063 18.063,18.063 h 15.701 37.798 c 6.347,0 11.511,-5.164 11.511,-11.512 0,-6.347 -5.164,-11.511 -11.511,-11.511 h -53.499 c -2.734,0 -4.959,2.225 -4.959,4.96 0,2.734 2.225,4.959 4.959,4.959 h 53.499 v 3.185 h -53.499 c -4.491,0 -8.143,-3.654 -8.143,-8.144 0,-4.492 3.652,-8.145 8.143,-8.145 h 53.499 c 8.103,0 14.696,6.593 14.696,14.696 0,8.104 -6.593,14.697 -14.696,14.697 h -37.798 -4.559 c -0.671,0 -0.995,0.455 -1.104,0.65 -0.108,0.195 -0.322,0.713 0.036,1.282 l 19.16,30.529 c 0.876,1.397 2.383,2.231 4.031,2.231 h 6.543 20.578 C -10.389,38.085 2.105,25.589 2.105,10.23 2.105,6.693 1.397,3.251 0,0 m -101.652,3.393 c -1.375,0 -2.589,0.72 -3.247,1.928 -0.659,1.208 -0.606,2.62 0.14,3.776 l 16.06,24.888 c 1.657,2.567 4.47,4.1 7.523,4.1 h 9.998 2.772 c 0.675,0 0.998,-0.458 1.106,-0.656 0.108,-0.197 0.321,-0.717 -0.043,-1.285 L -86.84,5.593 c -0.88,-1.378 -2.38,-2.2 -4.014,-2.2 h -4.851 z m 75.205,37.876 h -19.879 -24.852 -9.998 c -4.14,0 -7.953,-2.078 -10.199,-5.557 l -16.06,-24.889 c -1.367,-2.119 -1.482,-4.699 -0.315,-6.925 1.221,-2.328 3.732,-3.69 6.361,-3.69 h 3.346 c 0.217,0 0.296,-0.276 0.117,-0.396 -5.961,-3.993 -9.799,-10.917 -9.431,-18.693 0.539,-11.407 10.281,-20.223 21.701,-20.223 h 54.074 c 11.069,0 21.075,6.59 25.445,16.76 L 2.926,-1.257 C 5.04,3.662 5.75,8.974 5,14.408 2.862,29.924 -10.785,41.269 -26.447,41.269"
         id="path264" />
    </g>
  </g>
  <style>
    path{
        fill:#000000;
        fill-opacity:1;
        fill-rule:nonzero;
        stroke:none
    }
  </style>
</svg>
