<?xml version="1.0" encoding="UTF-8" standalone="no"?>
<!-- Created with Inkscape (http://www.inkscape.org/) -->

<svg
   width="23"
   height="16"
   viewBox="0 0 45 32"
   version="1.1"
   id="svg724"
   xmlns="http://www.w3.org/2000/svg"
   xmlns:svg="http://www.w3.org/2000/svg">
  <defs
     id="defs721" />
  <g
     id="layer1"
     transform="translate(152.71883,-41.812905)">
    <g
       id="g310"
       transform="matrix(0.35277777,0,0,-0.35277777,-119.59424,56.213012)">
      <path
         d="m 0,0 c -7.843,0 -14.225,-6.382 -14.225,-14.226 0,-7.843 6.382,-14.224 14.225,-14.224 7.844,0 14.225,6.381 14.225,14.224 C 14.225,-6.382 7.844,0 0,0"
         id="path312" />
    </g>
    <g
       id="g314"
       transform="matrix(0.35277777,0,0,-0.35277777,-112.24704,71.448602)">
      <path
         d="m 0,0 c -3.24,-1.369 -6.305,-2.659 -10.318,-2.659 -3.828,0 -8.926,0.923 -21.113,12.874 -3.452,3.386 -7.658,7.714 -13.271,12.873 -13.064,12.021 -28.931,19.894 -56.237,-3.727 l -0.319,-0.278 6.87,-6.87 0.279,0.223 c 4.976,3.949 14.553,10.397 22.753,9.235 3.359,-0.486 6.162,-2.222 8.335,-5.183 -4.334,-5.868 -18.738,-19.147 -30.817,-19.147 -4.005,0 -7.07,1.29 -10.318,2.659 -3.177,1.346 -6.464,2.739 -10.564,2.739 V 0.12 c 7.73,0 12.419,-5.397 20.882,-5.397 8.47,0 13.16,5.397 20.882,5.397 7.73,0 12.419,-5.397 20.882,-5.397 8.47,0 13.152,5.397 20.882,5.397 7.731,0 12.412,-5.397 20.882,-5.397 8.463,0 13.152,5.397 20.874,5.397 V 2.739 C 6.472,2.739 3.185,1.346 0,0"
         id="path316" />
    </g>
    <g
       id="g318"
       transform="matrix(0.35277777,0,0,-0.35277777,-144.24822,47.794217)">
      <path
         d="m 0,0 c 0,-3.896 -3.159,-7.056 -7.056,-7.056 -3.897,0 -7.056,3.16 -7.056,7.056 0,3.896 3.159,7.056 7.056,7.056 C -3.159,7.056 0,3.896 0,0"
         id="path320" />
    </g>
    <path
       d="m -140.75614,48.215469 h -2.07292 v -0.842433 h 2.07292 z"
       style="fill:#ffffff;fill-opacity:1;fill-rule:nonzero;stroke:none;stroke-width:0.352778"
       id="path322" />
    <g
       id="g324"
       transform="matrix(0.35277777,0,0,-0.35277777,-143.67597,45.328548)">
      <path
         d="M 0,0 -1.688,1.689 2.467,5.844 4.156,4.155 Z"
         id="path326" />
    </g>
    <path
       d="m -146.31627,43.88618 h -0.84243 v -2.073275 h 0.84243 z"
       style="fill:#ffffff;fill-opacity:1;fill-rule:nonzero;stroke:none;stroke-width:0.352778"
       id="path328" />
    <g
       id="g330"
       transform="matrix(0.35277777,0,0,-0.35277777,-149.79875,45.328548)">
      <path
         d="M 0,0 -4.155,4.155 -2.467,5.844 1.689,1.689 Z"
         id="path332" />
    </g>
    <path
       d="m -150.64591,48.215469 h -2.07292 v -0.842433 h 2.07292 z"
       style="fill:#ffffff;fill-opacity:1;fill-rule:nonzero;stroke:none;stroke-width:0.352778"
       id="path334" />
    <g
       id="g336"
       transform="matrix(0.35277777,0,0,-0.35277777,-150.66898,52.321414)">
      <path
         d="M 0,0 -1.688,1.688 2.467,5.844 4.156,4.154 Z"
         id="path338" />
    </g>
    <path
       d="m -146.31627,53.7756 h -0.84243 v -2.073275 h 0.84243 z"
       style="fill:#ffffff;fill-opacity:1;fill-rule:nonzero;stroke:none;stroke-width:0.352778"
       id="path340" />
    <g
       id="g342"
       transform="matrix(0.35277777,0,0,-0.35277777,-142.80574,52.321414)">
      <path
         d="m 0,0 -4.155,4.154 1.688,1.69 4.156,-4.156 z"
         id="path344" />
    </g>
  </g>
  <style>
    path{
        fill:#000000;
        fill-opacity:1;
        fill-rule:nonzero;
        stroke:none
    }
  </style>
</svg>
