<?xml version="1.0" encoding="UTF-8" standalone="no"?>
<!-- Created with Inkscape (http://www.inkscape.org/) -->

<svg
   width="23"
   height="23"
   viewBox="0 0 49 29"
   version="1.1"
   id="svg1941"
   inkscape:version="1.1.1 (3bf5ae0d25, 2021-09-20)"
   sodipodi:docname="terraces.svg"
   xmlns:inkscape="http://www.inkscape.org/namespaces/inkscape"
   xmlns:sodipodi="http://sodipodi.sourceforge.net/DTD/sodipodi-0.dtd"
   xmlns="http://www.w3.org/2000/svg"
   xmlns:svg="http://www.w3.org/2000/svg">
  <sodipodi:namedview
     id="namedview1943"
     pagecolor="#ffffff"
     bordercolor="#666666"
     borderopacity="1.0"
     inkscape:pageshadow="2"
     inkscape:pageopacity="0.0"
     inkscape:pagecheckerboard="0"
     inkscape:document-units="mm"
     showgrid="false"
     fit-margin-top="0"
     fit-margin-left="0"
     fit-margin-right="0"
     fit-margin-bottom="0"
     inkscape:zoom="1.0618967"
     inkscape:cx="-9.887967"
     inkscape:cy="63.094647"
     inkscape:window-width="1600"
     inkscape:window-height="831"
     inkscape:window-x="0"
     inkscape:window-y="0"
     inkscape:window-maximized="1"
     inkscape:current-layer="layer1" />
  <defs
     id="defs1938" />
  <g
     inkscape:label="Слой 1"
     inkscape:groupmode="layer"
     id="layer1"
     transform="translate(335.63482,-190.67125)">
    <g
       id="g674"
       transform="matrix(0.35277777,0,0,-0.35277777,-301.45778,203.21481)">
      <path
         d="m 0,0 h -3.833 c 0,11.976 -9.744,21.719 -21.72,21.719 -11.975,0 -21.719,-9.743 -21.719,-21.719 h -3.833 c 0,14.09 11.462,25.552 25.552,25.552 C -11.463,25.552 0,14.09 0,0"
         style="fill:#000000;fill-opacity:1;fill-rule:nonzero;stroke:none"
         id="path676" />
    </g>
    <path
       d="m -319.41988,218.15396 h -12.18565 v -6.67985 h 12.18565 z"
       style="fill:none;stroke:#000000;stroke-width:1.3522;stroke-linecap:butt;stroke-linejoin:miter;stroke-miterlimit:10;stroke-dasharray:none;stroke-opacity:1"
       id="path678" />
    <g
       id="g680"
       transform="matrix(0.35277777,0,0,-0.35277777,-318.92335,203.53072)">
      <path
         d="m 0,0 c 0,-15.545 -8.362,-22.517 -18.678,-22.517 -10.316,0 -18.678,6.972 -18.678,22.517 0,15.544 18.678,33.774 18.678,33.774 C -18.678,33.774 0,15.544 0,0 Z"
         style="fill:none;stroke:#000000;stroke-width:3.833;stroke-linecap:butt;stroke-linejoin:miter;stroke-miterlimit:10;stroke-dasharray:none;stroke-opacity:1"
         id="path682" />
    </g>
    <g
       id="g684"
       transform="matrix(0.35277777,0,0,-0.35277777,-325.51246,197.48323)">
      <path
         d="M 0,0 V -38.38"
         style="fill:none;stroke:#000000;stroke-width:3.226;stroke-linecap:butt;stroke-linejoin:miter;stroke-miterlimit:10;stroke-dasharray:none;stroke-opacity:1"
         id="path686" />
    </g>
    <g
       id="g688"
       transform="matrix(0.35277777,0,0,-0.35277777,-322.26302,202.62811)">
      <path
         d="M 0,0 -9.467,-12.026"
         style="fill:none;stroke:#000000;stroke-width:3.226;stroke-linecap:butt;stroke-linejoin:miter;stroke-miterlimit:10;stroke-dasharray:none;stroke-opacity:1"
         id="path690" />
    </g>
    <g
       id="g692"
       transform="matrix(0.35277777,0,0,-0.35277777,-328.62682,200.77775)">
      <path
         d="M 0,0 8.956,-8.955"
         style="fill:none;stroke:#000000;stroke-width:3.226;stroke-linecap:butt;stroke-linejoin:miter;stroke-miterlimit:10;stroke-dasharray:none;stroke-opacity:1"
         id="path694" />
    </g>
    <g
       id="g696"
       transform="matrix(0.35277777,0,0,-0.35277777,-318.92335,203.53072)">
      <path
         d="M 0,0 H 90.321"
         style="fill:none;stroke:#000000;stroke-width:3.833;stroke-linecap:butt;stroke-linejoin:miter;stroke-miterlimit:10;stroke-dasharray:none;stroke-opacity:1"
         id="path698" />
    </g>
    <g
       id="g700"
       transform="matrix(0.35277777,0,0,-0.35277777,-335.63482,203.53072)">
      <path
         d="M 0,0 H 10.271"
         style="fill:none;stroke:#000000;stroke-width:3.833;stroke-linecap:butt;stroke-linejoin:miter;stroke-miterlimit:10;stroke-dasharray:none;stroke-opacity:1"
         id="path702" />
    </g>
    <g
       id="g704"
       transform="matrix(0.35277777,0,0,-0.35277777,-313.84599,207.5701)">
      <path
         d="M 0,0 V -30.769"
         style="fill:none;stroke:#000000;stroke-width:3.833;stroke-linecap:butt;stroke-linejoin:miter;stroke-miterlimit:10;stroke-dasharray:none;stroke-opacity:1"
         id="path706" />
    </g>
    <g
       id="g708"
       transform="matrix(0.35277777,0,0,-0.35277777,-313.66544,212.73776)">
      <path
         d="M 0,0 H 9.969 C 12.3,0 14.19,-1.891 14.19,-4.222 v -10.363"
         style="fill:none;stroke:#000000;stroke-width:3.833;stroke-linecap:butt;stroke-linejoin:miter;stroke-miterlimit:10;stroke-dasharray:none;stroke-opacity:1"
         id="path710" />
    </g>
    <g
       id="g712"
       transform="matrix(0.35277777,0,0,-0.35277777,-292.72409,207.5701)">
      <path
         d="M 0,0 V -30.769"
         style="fill:none;stroke:#000000;stroke-width:3.833;stroke-linecap:butt;stroke-linejoin:miter;stroke-miterlimit:10;stroke-dasharray:none;stroke-opacity:1"
         id="path714" />
    </g>
    <g
       id="g716"
       transform="matrix(0.35277777,0,0,-0.35277777,-292.90461,212.73776)">
      <path
         d="m 0,0 h -9.968 c -2.332,0 -4.221,-1.891 -4.221,-4.222 v -10.363"
         style="fill:none;stroke:#000000;stroke-width:3.833;stroke-linecap:butt;stroke-linejoin:miter;stroke-miterlimit:10;stroke-dasharray:none;stroke-opacity:1"
         id="path718" />
    </g>
    <g
       id="g720"
       transform="matrix(0.35277777,0,0,-0.35277777,-308.65938,209.21754)">
      <path
         d="M 0,0 H 30.47"
         style="fill:none;stroke:#000000;stroke-width:3.833;stroke-linecap:butt;stroke-linejoin:miter;stroke-miterlimit:10;stroke-dasharray:none;stroke-opacity:1"
         id="path722" />
    </g>
    <g
       id="g724"
       transform="matrix(0.35277777,0,0,-0.35277777,-303.12691,209.48833)">
      <path
         d="M 0,0 V -23.796"
         style="fill:none;stroke:#000000;stroke-width:3.833;stroke-linecap:butt;stroke-linejoin:miter;stroke-miterlimit:10;stroke-dasharray:none;stroke-opacity:1"
         id="path726" />
    </g>
    <g
       id="g728"
       transform="matrix(0.35277777,0,0,-0.35277777,-295.85397,203.89246)">
      <path
         d="m 0,0 -2.884,2.525 c 2.674,3.054 4.147,6.973 4.147,11.038 0,9.243 -7.52,16.761 -16.762,16.761 -3.823,0 -7.48,-1.286 -10.439,-3.646 -0.363,-0.289 -3.686,1.873 -3.686,1.873 3.835,3.616 8.852,5.606 14.125,5.606 11.355,0 20.595,-9.238 20.595,-20.594 C 5.096,8.569 3.286,3.753 0,0"
         style="fill:#000000;fill-opacity:1;fill-rule:nonzero;stroke:none"
         id="path730" />
    </g>
    <g
       id="g732"
       transform="matrix(0.35277777,0,0,-0.35277777,-293.66703,195.66318)">
      <path
         d="m 0,0 -0.104,-0.377 c 0.382,-1.189 0.717,-2.573 0.83,-3.96 4.573,-2.018 7.642,-6.584 7.642,-11.696 0,-1.692 -0.324,-3.335 -0.965,-4.885 l 3.544,-1.463 c 0.833,2.016 1.255,4.152 1.255,6.348 C 12.202,-8.573 7.185,-1.979 0,0"
         style="fill:#000000;fill-opacity:1;fill-rule:nonzero;stroke:none"
         id="path734" />
    </g>
  </g>
</svg>
