<?xml version="1.0" encoding="UTF-8" standalone="no"?>
<!-- Created with Inkscape (http://www.inkscape.org/) -->

<svg
   width="23"
   height="18"
   viewBox="0 0 44 34"
   version="1.1"
   id="svg191"
   inkscape:version="1.1.1 (3bf5ae0d25, 2021-09-20)"
   sodipodi:docname="work.svg"
   xmlns:inkscape="http://www.inkscape.org/namespaces/inkscape"
   xmlns:sodipodi="http://sodipodi.sourceforge.net/DTD/sodipodi-0.dtd"
   xmlns="http://www.w3.org/2000/svg"
   xmlns:svg="http://www.w3.org/2000/svg">
  <defs
     id="defs188" />
  <g
     id="layer1"
     transform="translate(-62.023907,-27.518414)">
    <g
       id="g178"
       transform="matrix(0.35277777,0,0,-0.35277777,80.893814,48.729177)">
      <path
         d="m 0,0 c -0.717,-4.442 -3.527,-6.074 -7.802,-6.074 h -21.416 c -0.844,0 -1.528,-0.685 -1.528,-1.529 v -26.168 h -3.185 v 26.168 c 0,2.595 2.11,4.713 4.713,4.713 h 14.315 c 4.378,0 6.87,3.073 6.87,6.87 0,3.791 -2.492,6.863 -6.87,6.863 h -15.843 v 3.184 h 11.615 c 3.026,0 4.196,0.924 5.127,3.296 1.465,3.742 4.673,11.926 6.926,17.674 l 3.91,1.528 C 0.883,23.374 1.019,6.345 0,0"
         id="path180" />
    </g>
    <g
       id="g182"
       transform="matrix(0.35277777,0,0,-0.35277777,80.437355,31.061361)">
      <path
         d="m 0,0 c 0,-5.539 -4.509,-10.047 -10.047,-10.047 -5.538,0 -10.043,4.508 -10.043,10.047 0,5.538 4.505,10.043 10.043,10.043 C -4.509,10.043 0,5.538 0,0"
         id="path184" />
    </g>
    <g
       id="g186"
       transform="matrix(0.35277777,0,0,-0.35277777,66.871074,47.747679)">
      <path
         d="m 0,0 c -1.627,0 -3.121,0.889 -3.899,2.318 l -9.841,18.117 2.099,1.139 L -1.8,3.459 C -1.441,2.799 -0.751,2.388 0,2.388 L 20.616,2.389 V 0 Z"
         id="path188" />
    </g>
    <g
       id="g190"
       transform="matrix(0.35277777,0,0,-0.35277777,86.264221,48.729177)">
      <path
         d="m 0,0 c 0.716,-4.442 3.526,-6.074 7.802,-6.074 h 21.415 c 0.844,0 1.529,-0.685 1.529,-1.529 v -26.168 h 3.184 v 26.168 c 0,2.595 -2.11,4.713 -4.713,4.713 H 14.903 c -4.379,0 -6.87,3.073 -6.87,6.87 0,3.791 2.491,6.863 6.87,6.863 h 15.843 v 3.184 H 19.13 c -3.025,0 -4.195,0.924 -5.127,3.296 C 12.539,21.065 9.33,29.249 7.077,34.997 L 3.168,36.525 C -0.884,23.374 -1.02,6.345 0,0"
         id="path192" />
    </g>
    <g
       id="g194"
       transform="matrix(0.35277777,0,0,-0.35277777,86.720503,31.061361)">
      <path
         d="m 0,0 c 0,-5.539 4.509,-10.047 10.047,-10.047 5.538,0 10.043,4.508 10.043,10.047 0,5.538 -4.505,10.043 -10.043,10.043 C 4.509,10.043 0,5.538 0,0"
         id="path196" />
    </g>
    <g
       id="g198"
       transform="matrix(0.35277777,0,0,-0.35277777,100.28678,47.747679)">
      <path
         d="M 0,0 C 1.627,0 3.122,0.889 3.899,2.318 L 13.74,20.435 11.641,21.574 1.8,3.459 C 1.441,2.799 0.751,2.388 0,2.388 L -20.616,2.389 V 0 Z"
         id="path200" />
    </g>
  </g>
  <style>
    path{
        fill:#000000;
        fill-opacity:1;
        fill-rule:nonzero;
        stroke:none
    }
  </style>
</svg>
