<svg width="32" height="32" viewBox="0 0 32 32" fill="none" xmlns="http://www.w3.org/2000/svg">
<circle cx="16" cy="16" r="15.5" stroke="white"/>
<g clip-path="url(#clip0)">
<path d="M20.064 17.9033C20.4991 17.1752 20.7878 16.2544 20.8438 15.3432C20.8793 14.7584 20.749 14.1445 20.4668 13.5672C20.0242 12.6604 19.2638 12.151 18.5292 11.6588C17.981 11.2915 17.463 10.9447 17.0968 10.4493L17.0311 10.3609C16.8146 10.0702 16.5702 9.74058 16.5314 9.46379C16.4926 9.18377 16.2384 8.98452 15.9606 9.00067C15.6784 9.02006 15.4597 9.25377 15.4597 9.53703V19.1333C15.0085 18.8597 14.4527 18.6917 13.8442 18.6917C12.3601 18.6917 11.1517 19.6578 11.1517 20.8457C11.1517 22.0337 12.3601 22.9998 13.8442 22.9998C15.3284 22.9998 16.5368 22.0337 16.5368 20.8457V14.5689C17.3456 14.878 18.6693 15.6653 19.0333 17.5037C18.9654 17.6039 18.9008 17.7116 18.8254 17.7978C18.6283 18.0207 18.6499 18.361 18.8739 18.5571C19.0958 18.7552 19.4361 18.7315 19.6332 18.5086C19.7775 18.3449 19.9057 18.1532 20.0285 17.9529C20.0414 17.9378 20.0533 17.9216 20.064 17.9033Z" fill="white"/>
<line x1="8.76471" y1="19.5588" x2="23.7647" y2="11.5588" stroke="white"/>
</g>
<defs>
<clipPath id="clip0">
<rect width="14" height="14" fill="white" transform="translate(9 9)"/>
</clipPath>
</defs>
</svg>
