<svg width="36" height="34" viewBox="0 0 36 34" fill="none" xmlns="http://www.w3.org/2000/svg">
<path d="M31.1764 13.6651C30.6677 13.3808 30.0249 13.558 29.7386 14.0626C29.4513 14.5694 29.6294 15.2131 30.1362 15.5005C32.5123 16.8467 33.8907 18.5028 33.8907 20.1641C33.8907 23.0512 29.922 25.7795 24.1191 26.9547C23.5475 27.0711 23.1788 27.6273 23.2941 28.1979C23.4115 28.7741 23.9753 29.1386 24.5373 29.0229C31.4576 27.6211 36.0001 24.144 36.0001 20.1641C36.0001 17.7097 34.2417 15.4016 31.1764 13.6651V13.6651Z" fill="white"/>
<path d="M12.7266 29.2426V32.8204C12.7266 33.2097 12.9408 33.5671 13.2838 33.7505C13.622 33.9319 14.0393 33.9159 14.3663 33.698L20.6944 29.4792C20.988 29.2835 21.1641 28.9539 21.1641 28.6017C21.1641 28.2495 20.988 27.9199 20.6944 27.7242L14.3663 23.5055C14.0419 23.2912 13.6247 23.2686 13.2838 23.453C12.9408 23.6362 12.7266 23.9936 12.7266 24.3829V27.0842C6.56002 26.0278 2.10938 23.2219 2.10938 20.1642C2.10938 18.5028 3.48778 16.8466 5.86385 15.5005C6.37059 15.2131 6.54877 14.5694 6.2614 14.0626C5.97509 13.5579 5.33341 13.3808 4.82358 13.6651C1.75845 15.4016 0 17.7098 0 20.1642C0 24.4608 5.12114 28.0438 12.7266 29.2426V29.2426Z" fill="white"/>
<path d="M26.4375 4.21914L18.4717 0.236217C18.1751 0.0879277 17.8249 0.0879277 17.5283 0.236217L9.56216 4.21935L18 8.43789L26.4375 4.21914Z" fill="white"/>
<path d="M27.4922 15.9454V6.05054L19.0547 10.2693C19.0547 10.4858 19.0547 21.0327 19.0547 20.8162L26.9092 16.8889C27.2666 16.7096 27.4922 16.3451 27.4922 15.9454V15.9454Z" fill="white"/>
<path d="M8.50781 15.9453C8.50781 16.345 8.73338 16.7095 9.09077 16.8887L16.9453 20.8161C16.9453 20.0757 16.9453 10.0525 16.9453 10.2692L8.50781 6.05078V15.9453Z" fill="white"/>
</svg>
