<svg width="53" height="108" viewBox="0 0 53 108" fill="none" xmlns="http://www.w3.org/2000/svg">
<path d="M0 0H53V108L27 96L0 108V0Z" fill="#0B2867"/>
<path d="M41.5052 36.2779C42.7657 35.0102 44.129 35.3207 43.9747 32.8628C43.9747 32.8628 43.3058 30.9956 40.8107 30.5861C34.6628 29.5771 27.7432 35.6311 21.4924 46.4197C15.2416 57.2084 13.9555 73.0679 23.6274 75.06C31.365 76.6537 39.6274 67.6175 42.7914 62.9002L44.6692 63.7022C44.5148 64.6422 42.8377 67.7693 37.3637 72.7574C30.5213 78.9925 22.8043 81.8643 14.4185 78.708C6.0327 75.5516 3.12596 64.7888 9.32529 50.5593C15.5246 36.3297 29.9812 28.3094 35.1001 27.3521C40.2191 26.3948 43.9747 27.4815 45.9554 29.4995C47.9361 31.5175 48.5534 34.9843 47.473 38.891C46.3927 42.7977 43.383 43.134 41.7367 41.7628C40.0904 40.3916 40.2448 37.5457 41.5052 36.2779Z" fill="white"/>
</svg>
