<svg width="19" height="19" viewBox="0 0 19 19" fill="none" xmlns="http://www.w3.org/2000/svg">
<g clip-path="url(#clip0)">
<path d="M9.49963 3.93359C6.4305 3.93359 3.93323 6.43087 3.93323 9.5C3.93323 12.5691 6.4305 15.0664 9.49963 15.0664C12.5688 15.0664 15.066 12.5691 15.066 9.5C15.066 6.43087 12.5688 3.93359 9.49963 3.93359Z" fill="white"/>
<path d="M15.2778 12.8398C14.6989 13.8529 13.8417 14.699 12.8286 15.2891L16.1796 16.1908L15.2778 12.8398Z" fill="white"/>
<path d="M9.49957 0L7.78516 3.05406C8.33066 2.89824 8.9095 2.82031 9.49957 2.82031C10.0896 2.82031 10.6685 2.89824 11.214 3.05406L9.49957 0Z" fill="white"/>
<path d="M2.81995 2.82031L3.7217 6.16016C4.30065 5.14703 5.13561 4.31207 6.14866 3.72207L2.81995 2.82031Z" fill="white"/>
<path d="M3.05371 7.77441L0.0107422 9.5L3.05371 11.2256C2.89785 10.6801 2.81989 10.1012 2.81989 9.5C2.81989 8.89879 2.89781 8.31992 3.05371 7.77441Z" fill="white"/>
<path d="M3.7217 12.8398L2.81995 16.1908L6.17092 15.2891C5.15784 14.699 4.30065 13.8529 3.7217 12.8398Z" fill="white"/>
<path d="M9.49991 16.1797C8.89877 16.1797 8.31983 16.1018 7.76318 15.9459L9.49991 19.0001L11.2366 15.9459C10.68 16.1018 10.101 16.1797 9.49991 16.1797Z" fill="white"/>
<path d="M12.8466 3.72779C13.8537 4.31393 14.693 5.1539 15.2777 6.16202L16.1842 2.82202L12.8466 3.72779Z" fill="white"/>
<path d="M18.989 9.50532L15.9479 7.78381C16.0941 8.33251 16.1796 8.90574 16.1796 9.4999C16.1796 10.0987 16.093 10.6764 15.9445 11.2289L18.989 9.50532Z" fill="white"/>
</g>
<defs>
<clipPath id="clip0">
<rect width="19" height="19" fill="white"/>
</clipPath>
</defs>
</svg>
