<svg width="16" height="16" viewBox="0 0 16 16" fill="none" xmlns="http://www.w3.org/2000/svg">
<path d="M15.7235 4.21778C15.5276 3.36687 14.8316 2.73909 13.9938 2.64545C12.0097 2.42396 10.0015 2.42281 8.00256 2.42396C6.00328 2.42281 3.99476 2.42396 2.01067 2.64545C1.17331 2.73909 0.477812 3.36687 0.28193 4.21778C0.00313807 5.42957 0 6.75235 0 7.99998C0 9.2476 0 10.5702 0.278792 11.7818C0.474343 12.6326 1.17 13.2604 2.00787 13.3542C3.99178 13.5758 6.00014 13.577 7.99942 13.5758C9.99903 13.577 12.0069 13.5758 13.9906 13.3542C14.828 13.2605 15.5242 12.6327 15.7201 11.7818C15.999 10.5701 16 9.24744 16 7.99998C16 6.75235 16.0023 5.42957 15.7235 4.21778ZM5.93524 10.4833C5.93524 8.71347 5.93524 6.9621 5.93524 5.19207C7.63095 6.07684 9.31543 6.95566 11.0219 7.84588C9.32071 8.72817 7.63541 9.60171 5.93524 10.4833Z" fill="white" fill-opacity="0.6"/>
</svg>
