<?xml version="1.0" encoding="UTF-8" standalone="no"?>
<!-- Created with Inkscape (http://www.inkscape.org/) -->

<svg
    version="1.1"
    id="svg2"
    width="1680"
    height="3066.6667"
    viewBox="0 0 1680 3066.6667"
    sodipodi:docname="a.svg"
    inkscape:version="1.1.1 (3bf5ae0d25, 2021-09-20)"
    xmlns:inkscape="http://www.inkscape.org/namespaces/inkscape"
    xmlns:sodipodi="http://sodipodi.sourceforge.net/DTD/sodipodi-0.dtd"
    xmlns="http://www.w3.org/2000/svg"
    xmlns:svg="http://www.w3.org/2000/svg"
    preserveAspectRatio="xMidYMid slice">
    <g>
        <path d="m 327.30502,2450.2635 0.0622,0.1461 235.97304,89.5631 812.05204,-136.5433 v -24.4515 l -17.2911,-7.0617 v -29.7487 l -794.69878,124.6622 -235.97291,-84.032 z"
            id="path45" class="ar" data-floor="" data-i="" />
        <path d="m 1358.0682,2340.688 v -64.4337 l -794.72207,116.958 -236.06558,-78.1943 v 66.1635 l 236.11324,84.1175 z"
            id="path47" class="ar" data-floor="" data-i="" />
        <path d="M 1358.0246,2274.7908 V 2210.949 L 563.31002,2320.7284 327.02811,2247.087 v 66.3707 l 236.38373,78.2991 z"
            id="path49" class="ar" data-floor="" data-i="" />
        <path d="m 1357.998,2209.3682 v -63.4477 l -794.63668,101.2501 -236.25663,-68.0403 v 66.2993 l 236.35045,73.8008 z"
            id="path51" class="ar" data-floor="" data-i="" />
        <path d="m 1358.0176,2144.4399 v -64.1157 L 563.34566,2173.894 327.1594,2111.155 v 66.4337 l 236.26143,68.1164 z"
            id="path53" class="ar" data-floor="" data-i="" />
        <path d="m 1358.0667,2078.8678 v -63.605 l -794.78126,84.9568 -236.08191,-57.0762 0.003,66.3693 236.15734,62.84 z"
            id="path55" class="ar" data-floor="" data-i="" />
        <path d="m 1358.0961,2013.8554 v -64.4716 l -794.68473,77.2947 -236.22193,-51.9169 -2.4e-4,66.8407 236.18323,57.0805 z"
            id="path57" class="ar" data-floor="" data-i="" />
        <path d="m 1358.1035,1947.9004 v -63.3278 l -794.74496,67.7344 -236.20108,-46.5598 0.0714,67.4247 236.25,52.0517 z"
            id="path59" class="area" data-floor="11" data-i="1" />
        <path d="m 1358.077,1883.1166 v -64.1526 l -794.73683,60.1728 -236.2551,-41.2413 0.0606,66.3564 236.27799,46.5654 z"
            id="path61" class="area" data-floor="12" data-i="2" />
        <path d="m 1358.0741,1817.3723 v -63.7356 l -794.75168,52.0439 -236.14935,-35.9771 -0.0449,66.7687 236.28623,41.2066 z"
            id="path63" class="area" data-floor="13" data-i="3" />
        <path d="m 1358.0238,1752.1921 v -64.1398 l -794.77579,44.3916 -236.13585,-30.6781 0.1092,66.5135 236.15573,35.9665 z"
            id="path65" class="area" data-floor="14" data-i="4" />
        <path d="m 1358.045,1686.5221 v -63.3686 l -794.79938,35.7227 -236.05575,-25.0916 0.0449,66.4911 236.10012,30.7358 z"
            id="path67" class="area" data-floor="15" data-i="5" />
        <path d="m 1357.9981,1621.6719 v -63.9988 l -794.7039,28.2913 -236.19175,-20.1283 0.0787,66.527 236.20298,24.9776 z"
            id="path69" class="area" data-floor="16" data-i="6" />
        <path d="m 1358.0007,1556.0964 v -63.5783 l -794.73376,19.7881 -236.04719,-14.3872 v 66.3256 l 236.11264,20.2824 z"
            id="path71" class="area" data-floor="17" data-i="7" />
        <path d="m 1358.0131,1490.8912 v -63.9203 l -794.71934,12.2214 -236.1625,-9.4153 v 66.6696 l 236.25609,14.3872 z"
            id="path73" class="area" data-floor="18" data-i="8" />
        <path d="m 1357.953,1425.3933 v -63.6003 l -794.71831,3.8786 -236.00831,-3.7981 v 66.3962 l 236.22543,9.4737 z"
            id="path75" class="area" data-floor="19" data-i="9" />
        <path d="m 1357.9628,1360.1528 v -63.6451 l -794.69508,-3.8796 -236.07019,1.0356 v 66.654 l 236.25655,3.8669 z"
            id="path77" class="area" data-floor="20" data-i="10" />
        <path d="m 1357.945,1294.9907 v -63.724 l -794.68122,-12.2597 -236.14024,6.6026 0.0966,66.627 236.24019,-1.1241 z"
            id="path79" class="area" data-floor="21" data-i="11" />
        <path d="m 1357.9505,1229.5923 v -63.9453 l -794.66457,-21.1716 -236.1444,13.4395 -10e-4,66.1972 236.22008,-6.5802 z"
            id="path81" class="area" data-floor="22" data-i="12" />
        <path d="m 1357.9923,1164.1449 v -63.7721 l -794.65407,-29.6778 -236.19759,19.0259 -0.0622,66.7553 236.3275,-13.5668 z"
            id="path83" class="area" data-floor="23" data-i="13" />
        <path d="m 1358.0022,1098.8323 v -63.8048 l -794.75547,-38.47242 -236.11409,25.21412 0.0366,66.3177 236.2122,-18.9468 z"
            id="path85" class="area" data-floor="24" data-i="14" />
        <path d="M 1358.0084,1033.5406 V 969.74865 L 563.25011,923.11103 327.10461,953.45515 V 1020.211 L 563.32352,994.91498 Z"
            id="path87" class="area" data-floor="25" data-i="15" />
        <path d="M 1358.0234,968.19223 V 904.14721 L 563.37287,849.85352 327.08218,884.42413 v 67.46844 l 236.22446,-30.28678 z"
            id="path89" class="area" data-floor="26" data-i="16" />
        <path d="M 1358.0679,902.71141 V 839.1563 L 563.36426,776.56768 327.26122,816.46104 v 66.32222 L 563.2918,848.27351 Z"
            id="path91" class="area" data-floor="27" data-i="17" />
        <path d="m 1358.0534,837.70553 v -64.00727 l -794.71384,-70.5974 -236.1997,45.3716 v 66.44648 l 236.37224,-39.915 z"
            id="path93" class="area" data-floor="28" data-i="18" />
        <path d="m 1358.0452,772.12905 -0.049,-63.92324 -794.66193,-78.52267 -236.17958,50.68434 v 66.51414 l 236.22913,-45.27399 z"
            id="path95" class="area" data-floor="29" data-i="19" />
        <path d="m 1357.9968,706.69242 v -63.95158 l -794.65415,-86.40252 -236.15314,55.97271 -0.064,66.58986 236.20849,-50.72157 z"
            id="path97" class="area" data-floor="30" data-i="20" />
        <path d="m 1358.0177,641.25496 v -64.19333 l -794.66162,-93.96629 -236.10132,61.2893 v 66.21741 l 236.13556,-55.77423 z"
            id="path99" class="area" data-floor="31" data-i="21" />
        <path d="M 1358.0439,575.43137 V 511.8609 l -794.60603,-102.09759 -236.31415,66.48152 -0.051,66.64433 236.25692,-61.33801 z"
            id="path101" class="area" data-floor="32" data-i="22" />
        <path d="M 1358.0675,510.33585 V 446.51477 L 563.45496,336.42698 327.24274,408.56549 v 66.12457 l 236.14821,-66.41531 z"
            id="path103" class="area" data-floor="33" data-i="23" />
        <path d="M 1358.0473,444.97284 V 381.20669 L 563.36143,262.32056 327.198,338.64819 v 68.41705 l 236.16906,-72.1173 z"
            id="path105" class="area" data-floor="34" data-i="24" />
        <path d="m 749.25283,256.57066 v 32.18561 l 614.23587,91.81754 V 307.35442 L 910.99121,236.93433 829.00635,232.0686 Z"
            id="path107" class="area" data-floor="35" data-i="25" />
    </g>
    <style>
        .area, .ar {
            fill: #E0B5B500;
            transition: .25s
        }
        .area:hover {
            fill: #0b286799;
        }
    </style>
</svg>
