<?xml version="1.0" encoding="UTF-8" standalone="no"?>
<!-- Created with Inkscape (http://www.inkscape.org/) -->

<svg
    version="1.1"
    id="svg2"
    width="1680"
    height="3066.6667"
    viewBox="0 0 1680 3066.6667"
    sodipodi:docname="b.svg"
    inkscape:version="1.1.1 (3bf5ae0d25, 2021-09-20)"
    xmlns:inkscape="http://www.inkscape.org/namespaces/inkscape"
    xmlns:sodipodi="http://sodipodi.sourceforge.net/DTD/sodipodi-0.dtd"
    xmlns="http://www.w3.org/2000/svg"
    xmlns:svg="http://www.w3.org/2000/svg"
    preserveAspectRatio="xMidYMid slice">
    <g>
        <path d="m 498.03351,2755.4806 944.32179,-164.6453 v 53.5053 l -944.34248,174.6289 -236.02233,-48.4929 v -58.9595 z"
            id="path361" class="area" data-floor="2" data-i="1" />
        <path d="m 498.01016,2692.6971 944.37344,-156.5444 v 53.2922 l -944.33868,164.5946 -236.19858,-44.1947 v -58.7914 z"
            id="path359" class="area" data-floor="3" data-i="2" />
        <path d="m 497.93433,2628.5031 72.10205,-6.5658 825.44582,-130.3858 24.27,-6.5559 v 24.4257 l 20.6758,4.2014 v 8.6776 l 6.5787,1.7776 v 9.8574 l -948.97807,157.0662 -236.0448,-41.4945 v -67.711 z"
            id="path357" class="area" data-floor="4" data-i="3" />
        <path d="M 497.94284,2562.7663 261.95195,2518.862 v 61.4019 l 236.08993,46.6221 71.86111,-6.4063 825.46601,-130.3314 31.8424,-8.5321 v -24.717 l -7.7809,-2.0988 v -25.3918 l -24.0378,6.4409 -825.44757,121.224 z"
            id="path47" class="area" data-floor="5" data-i="4" />
        <path d="m 498.05404,2561.2435 71.75487,-5.6223 825.05219,-121.2229 32.5989,-8.579 v -23.584 h -7.8447 v -27.9432 l -24.089,5.7551 -825.51577,113.518 -72.02883,4.8384 -235.99497,-44.1536 v 63.0879 z"
            id="path49" class="area" data-floor="6" data-i="5" />
        <path d="m 498.06377,2496.8963 71.87194,-4.8008 825.17479,-113.4765 32.2213,-7.6312 v -23.8959 l -8.777,-1.7837 v -25.1554 l -23.1811,4.6435 -825.50936,104.9983 -71.93342,4.5726 -236.02639,-40.7884 v 59.1164 z"
            id="path51" class="area" data-floor="7" data-i="6" />
        <path d="m 498.10473,2432.822 71.7739,-4.5867 825.29267,-104.9145 32.1031,-6.3438 v -24.6843 l -7.5587,-1.0268 v -26.2871 l -24.3281,4.6058 -825.36592,96.9032 -72.05658,3.8903 -236.02061,-37.3055 v 59.0019 z"
            id="path53" class="area" data-floor="8" data-i="7" />
        <path d="m 498.06148,2368.8545 71.70629,-3.7805 825.43583,-96.9219 32.1018,-6.0663 v -24.5178 l -7.6424,-1.2924 v -25.9981 l -24.1167,4.1559 -825.67772,87.9604 -71.94881,4.1354 -235.97993,-33.6834 -0.004,58.6726 z"
            id="path55" class="area" data-floor="9" data-i="8" />
        <path d="m 498.01183,2305.0119 71.97044,-4.0641 825.35533,-88.0267 32.0068,-5.4579 v -24.7482 l -8.3528,-1.4724 v -26.2285 l -23.5282,3.5818 -825.506,80.1056 -71.9747,3.8344 -236.03154,-30.7478 v 59.634 z"
            id="path57" class="area" data-floor="10" data-i="9" />
        <path d="m 498.05954,2241.032 71.98491,-3.8406 825.16615,-80.0368 32.0512,-4.8514 v -24.0256 l -7.6484,-1.6002 v -27.1206 l -24.0593,3.8171 -825.57516,71.9231 -71.89782,3.317 -236.05239,-27.4973 v 59.0408 z"
            id="path59" class="area" data-floor="11" data-i="10" />
        <path d="m 498.09093,2177.1034 71.7298,-3.1635 825.54427,-72.0031 32.086,-4.9715 v -23.8796 l -7.7587,-0.6675 v -27.1153 l -24.4383,3.0957 -825.30157,63.4457 -71.84375,2.6685 -236.1292,-23.9248 v 59.0732 z"
            id="path287" class="area" data-floor="12" data-i="11" />
        <path d="m 498.07762,2113.0643 71.82593,-2.892 825.18975,-63.2632 32.1914,-4.0163 v -24.6421 l -7.5287,-0.4471 v -27.6574 l -24.4994,2.5836 -825.32427,55.071 -72.02813,2.9798 -235.93529,-20.7398 v 59.0322 z"
            id="path289" class="area" data-floor="13" data-i="12" />
        <path d="m 498.1013,2049.1633 71.84485,-2.9069 825.32545,-54.96 32.0789,-3.3909 v -24.6909 l -8.0659,-0.3189 v -27.5878 l -24.0125,2.3117 -825.27273,46.5164 -72.04853,2.4428 -236.04797,-17.3786 0.1283,59.2582 z"
            id="path291" class="area" data-floor="14" data-i="13" />
        <path d="m 497.96358,1985.0733 72.13677,-2.4379 825.25045,-46.5738 31.9672,-2.9794 v -24.6881 h -7.6236 v -28.1118 l -24.4057,1.8779 -825.31254,38.7397 -71.96298,1.6672 -236.01766,-13.9016 v 58.9659 z"
            id="path293" class="area" data-floor="15" data-i="14" />
        <path d="m 498.01488,1920.9491 71.91619,-1.6316 825.43473,-38.7862 31.9727,-2.2938 v -24.6229 h -7.6619 v -28.2023 l -24.3516,1.0552 -825.32597,30.6772 -72.0144,1.237 -235.99103,-10.3998 v 59.137 z"
            id="path295" class="area" data-floor="16" data-i="15" />
        <path d="m 498.07692,1856.8337 71.86998,-1.2216 825.29,-30.7815 32.1852,-1.331 v -24.2627 l -9.0693,-0.5465 v -27.864 l -920.38364,23.9959 -235.9789,-6.7971 0.0573,58.5612 z"
            id="path297" class="area" data-floor="17" data-i="16" />
        <path d="m 498.11072,1793.2786 929.29628,-24.204 v -24.6111 l -7.607,-0.225 v -27.9896 l -921.86515,14.4305 -235.93888,-3.9605 v 59.7714 z"
            id="path299" class="area" data-floor="18" data-i="17" />
        <path d="m 497.98408,1729.1496 929.28462,-14.4894 -0.1846,-24.9776 -7.4261,-0.214 v -28.3448 l -921.77201,5.1168 -235.90484,-0.3781 v 59.4026 z"
            id="path301" class="area" data-floor="19" data-i="18" />
        <path d="m 498.00818,1664.6577 929.35012,-5.0186 v -24.7276 l -7.5517,-0.085 v -28.0818 l -921.91295,-4.3805 -235.93693,2.886 v 59.0611 z"
            id="path303" class="area" data-floor="20" data-i="19" />
        <path d="m 497.98368,1600.758 929.20742,4.4985 v -25.2773 l -7.048,0.1342 v -28.1866 l -850.10332,-13.7389 -72.12114,0.3161 -235.88802,5.7328 v 59.4283 z"
            id="path305" class="area" data-floor="21" data-i="20" />
        <path d="m 497.95245,1536.9464 72.11848,-0.1859 824.79987,13.2375 32.4493,0.532 v -25.0735 l -13.8416,-0.8762 v -28.7558 l -18.2592,-1.5255 -825.15609,-19.9616 -72.03199,0.2743 -236.04551,9.1515 v 58.981 z"
            id="path307" class="area" data-floor="22" data-i="21" />
        <path d="m 497.91326,1473.0897 72.08235,-0.2905 825.32139,20.0306 31.9177,2.539 v -24.4762 l -7.3432,-0.6172 v -27.8674 l -24.7593,-3.4088 -825.13659,-27.9713 -72.07864,-0.8032 -235.94004,13.0518 v 59.0651 z"
            id="path309" class="area" data-floor="23" data-i="22" />
        <path d="m 497.95134,1408.5771 72.14973,0.9837 825.15473,27.8935 32.0812,3.9638 v -25.1017 l -7.7683,-1.1746 v -28.8861 l -24.3687,-2.8811 -825.25134,-36.0324 -71.89055,-1.2978 -236.07696,16.4067 v 59.357 z"
            id="path311" class="area" data-floor="24" data-i="23" />
        <path d="m 498.02107,1344.4439 72.0255,1.4301 825.40963,36.0504 31.7829,3.7943 v -25.1679 l -7.5762,-0.3406 v -29.0684 l -24.6599,-3.7032 -825.06803,-43.9776 -71.91674,-1.0361 -235.99319,19.4642 v 59.1301 z"
            id="path315" class="area" data-floor="25" data-i="24" />
        <path d="m 497.88915,1280.8889 72.09284,1.1285 825.17581,43.896 32.2091,4.94 v -24.8697 l -14.1707,-0.8183 v -30.0649 l -17.8705,-2.2924 -825.22018,-52.7813 -72.10362,-1.7126 -236.00928,22.7742 v 59.2951 z"
            id="path317" class="area" data-floor="26" data-i="25" />
        <path d="m 497.95944,1216.7554 72.09835,1.7032 825.29511,52.8779 31.9532,4.2805 v -24.2563 l -7.6351,-0.3161 v -29.911 l -24.3901,-4.0148 -825.27775,-60.4712 -71.96393,-2.2293 -236.15601,26.2781 v 58.9776 z"
            id="path319" class="area" data-floor="27" data-i="26" />
        <path d="m 497.93964,1152.7524 72.14603,2.378 825.32183,60.4934 31.8613,5.3678 v -24.7793 l -7.4899,-0.096 v -29.6645 l -24.6284,-4.3329 -825.18378,-69.3862 -71.94347,-2.6403 -236.39552,29.9723 v 58.9707 z"
            id="path321" class="area" data-floor="28" data-i="27" />
        <path d="m 498.00624,1088.6233 72.09417,2.6083 825.30539,69.4686 31.811,5.7348 v -24.3148 l -7.4189,-1.6157 v -28.7699 l -24.5352,-4.6699 -825.2148,-77.3668 -71.87155,-4.0225 -236.89305,33.338 v 59.4446 z"
            id="path323" class="area" data-floor="29" data-i="28" />
        <path d="m 498.09834,1024.1494 71.94278,4.0089 825.29538,77.4468 32.0266,6.0304 v -24.4204 l -7.4755,-1.5769 v -28.8751 l -24.4742,-4.9362 -825.42336,-85.54173 -72.05031,-3.82567 -236.76357,36.21436 v 58.81404 z"
            id="path325" class="area" data-floor="30" data-i="29" />
        <path d="m 497.97271,960.86078 72.08004,3.82176 825.69595,85.71476 31.4739,6.4322 v -23.7462 l -13.935,-3.4049 v -29.3953 l -18.095,-3.23571 -825.2115,-94.50276 -71.95306,-3.79639 -237.05138,39.26083 v 59.12797 z"
            id="path327" class="area" data-floor="31" data-i="30" />
        <path d="m 498.04988,897.24488 72.13675,3.80285 825.36027,94.41813 31.6984,6.08074 v -23.0919 l -7.674,-2.3668 v -29.05023 l -24.0639,-5.1553 -825.52184,-103.32348 -72.03407,-3.97079 -236.91853,42.83721 v 59.02895 z"
            id="path329" class="area" data-floor="32" data-i="31" />
        <path d="m 570.03236,836.9259 -72.0358,-3.8275 -237.02438,42.82343 v -59.72346 l 237.00997,-45.74626 72.05735,5.35999 824.7062,111.85724 24.7867,4.72414 v 28.92009 l 7.766,2.15983 v 23.70373 l -31.4601,-6.72554 z"
            id="path331" class="area" data-floor="33" data-i="32" />
        <path d="m 498.0169,768.82438 72.18211,5.39577 824.87339,112.06147 32.1713,6.09564 v -17.28974 l -7.4332,-1.96575 V 837.5392 l -24.6986,-6.58475 -825.16133,-118.9691 -71.96698,-5.32108 -236.97835,49.51931 v 58.38808 z"
            id="path333" class="area" data-floor="34" data-i="33" />
        <path d="m 498.04901,705.06925 72.05338,5.34845 825.35441,119.03064 31.8915,8.64681 v -25.00549 l -7.5663,-1.44144 v -29.5249 l -24.8145,-6.59741 -825.0241,-127.64357 -71.97952,-5.3032 -237.10223,52.34241 v 59.73177 z"
            id="path335" class="area" data-floor="35" data-i="34" />
        <path d="m 498.01297,640.93859 72.0599,5.44651 825.04883,127.65111 32.2981,8.74087 v -23.98553 l -7.705,-3.10028 v -28.36782 l -24.2987,-8.11546 -825.42017,-135.31844 -72.01778,-5.20171 -236.96082,55.92128 v 58.6723 z"
            id="path337" class="area" data-floor="36" data-i="35" />
        <path d="m 498.05648,577.11975 71.95033,5.1795 825.83019,135.41911 31.4167,10.62416 v -24.59056 l -7.5539,-2.60641 v -28.73733 l -24.4751,-8.1153 -825.27935,-142.96096 -71.90918,-7.26656 -236.98469,60.02073 v 58.87913 z"
            id="path339" class="area" data-floor="37" data-i="36" />
        <path d="m 497.92912,512.40342 -236.96604,60.12741 v -59.64605 l 236.95633,-63.56422 72.08407,8.02009 824.32462,150.3276 24.2888,8.81899 v 29.59541 l 8.7137,3.06586 v 24.27223 L 1395.6677,662.68621 570.11523,519.81795 Z"
            id="path341" class="area" data-floor="38" data-i="37" />
        <path d="m 497.89504,447.61687 -236.94743,63.67332 v -59.48286 l 236.9657,-66.67355 72.1338,7.985 823.95939,154.16685 33.295,16.56212 v 54.3789 L 1394.7858,606.29663 570.22024,455.6974 Z"
            id="path343" class="area" data-floor="39" data-i="38" />
        <path d="m 497.87955,383.41059 -236.89549,66.80524 v -59.72622 l 237.01363,-70.68814 72.06519,9.23479 823.74192,165.15588 33.4442,15.34486 v 52.56209 L 1394.5847,545.76545 570.21522,391.60983 Z"
            id="path345" class="area" data-floor="40" data-i="39" />
        <path d="m 497.94429,318.24005 -236.88761,70.71996 v -59.6677 l 236.96511,-73.22694 72.03404,8.98956 823.39477,174.20087 33.8843,15.33376 v 53.39774 l -32.983,-15.34406 -824.19187,-165.31879 z"
            id="path347" class="area" data-floor="41" data-i="40" />
        <path d="m 497.95184,254.48347 -237.08303,73.12867 v -59.30195 l 237.11312,-76.57139 72.04053,9.59264 823.68644,182.67912 33.6881,16.11447 v 52.70248 L 1394.0508,437.91916 570.05348,263.60205 Z"
            id="path349" class="area" data-floor="42" data-i="41" />
        <path d="m 497.87639,190.17633 -236.95053,76.5046 v -57.42565 l 229.93546,-81.53664 904.00058,204.29372 32.545,13.53451 V 398.4396 L 1394.2551,382.70325 570.13366,199.9583 Z"
            id="path351" class="area" data-floor="43" data-i="42" />
        <path d="M 713.67445,143.72705 V 168.323 l 681.25525,158.84106 32.2285,13.36719 v -49.76367 l -33.127,-15.66211 -592.50044,-147.8916 -10.04492,-1.07276 -12.23828,0.12305 -9.15479,1.10059 -7.17187,1.13232 -2.10401,1.22021 z"
            id="path355" class="area" data-floor="44" data-i="43" />
        <path d="m 1427.1137,288.92822 v -62.06157 l -251.2918,-71.02556 -17.4954,-3.29385 h -18.7618 l -66.2222,19.25485 v 21.80704 l 321.3055,80.05176 z"
            id="path83" class="area" data-floor="45" data-i="44" />
        <path d="m 1427.0761,225.23664 v -49.14357 l -116.9799,-31.4414 -22.2358,7.40302 v 33.97998 z"
            id="path134" class="area" data-floor="46" data-i="45" />
    </g>
    <style>
        .area, .ar {
            fill: #E0B5B500;
            transition: .25s
        }
        .area:hover {
            fill: #0b286799;
        }
    </style>
</svg>
