<?xml version="1.0" encoding="UTF-8" standalone="no"?>
<!-- Created with Inkscape (http://www.inkscape.org/) -->

<svg
    version="1.1"
    id="svg2"
    width="1680"
    height="3066.6667"
    viewBox="0 0 1680 3066.6667"
    xmlns="http://www.w3.org/2000/svg"
    xmlns:svg="http://www.w3.org/2000/svg"
    preserveAspectRatio="xMidYMid slice">
    <g>
        <path d="M 1508.3617,2206.5483 V 2151.1 l -23.8829,3.3391 -1247.85271,49.4958 -64.01774,-37.6678 v 57.4204 l 64.10967,41.7505 1248.00668,-54.9022 z"
        id="path250" class="area" data-floor="11" data-i="1" />
        <path d="m 1484.6456,2152.8306 -1247.94408,49.6192 -64.0427,-37.9393 v -55.3016 l 64.01033,33.7534 1247.91115,-43.8035 23.9837,-3.1118 -0.1977,53.4564 z"
        id="path252" class="area" data-floor="12" data-i="2" />
        <path d="m 1508.5415,2094.4445 -23.9267,3.0947 -1247.87606,43.9474 -64.05012,-34.0465 v -53.6725 l 64.0014,27.8131 1248.04208,-37.485 23.8685,-2.9903 z"
        id="path254" class="area" data-floor="13" data-i="3" />
        <path d="m 1508.5792,2039.6138 -23.8947,3.129 -1247.96921,37.4831 -64.01616,-28.1067 v -56.3104 l 63.96838,24.2519 1248.02509,-32.5254 23.8868,-1.5329 z"
        id="path256" class="area" data-floor="14" data-i="4" />
        <path d="m 1508.5758,1984.45 -23.9132,1.5458 -1247.9705,32.5347 -64.02354,-24.4074 -0.10271,-55.4716 64.07941,20.1594 1247.98314,-25.8552 23.9809,-2.4264 z"
        id="path258" class="area" data-floor="15" data-i="5" />
        <path d="m 1508.5529,1928.9298 -23.8891,2.4591 -1247.93803,26.0092 -64.03386,-20.3055 v -54.8283 l 63.98785,15.1326 1247.98614,-20.0539 24.029,-1.9636 z"
        id="path260" class="area" data-floor="16" data-i="6" />
        <path d="m 1508.6415,1873.9254 -23.9903,1.9578 -1247.96847,19.8704 -64.04327,-14.9054 0.0105,-55.8476 64.00218,10.9666 1248.01716,-14.5382 23.9833,-1.2004 z"
        id="path262" class="area" data-floor="17" data-i="7" />
        <path d="m 1508.6346,1818.6961 -23.9702,1.2531 -1248.0578,14.5087 -63.91028,-11.0089 v -55.2221 l 63.97807,6.6212 1248.06261,-8.579 23.8771,-1.299 z"
        id="path264" class="area" data-floor="18" data-i="8" />
        <path d="m 1508.5374,1763.4196 -23.936,1.2835 -1247.93741,8.6734 -63.98315,-6.539 v -54.7903 l 63.98871,1.4028 1248.00345,-3.0307 23.8286,0.016 z"
        id="path266" class="area" data-floor="19" data-i="9" />
        <path d="m 1508.4409,1709.0728 -23.8622,-0.095 -1247.92163,2.9873 -63.98058,-1.5875 v -55.5809 l 64.01675,-1.413 1247.98056,1.2514 23.7886,0.1023 z"
        id="path270" class="area" data-floor="20" data-i="10" />
        <path d="m 1508.4119,1653.356 -23.7179,-0.2237 -1248.06401,-1.3064 -63.99879,1.4982 v -56.1224 l 64.10278,-5.248 1247.89062,8.1387 23.9953,-0.2304 z"
        id="path272" class="area" data-floor="21" data-i="11" />
        <path d="m 1508.5829,1598.4592 -23.9367,0.098 -1247.94136,-8.061 -64.02676,5.3432 v -54.7651 l 63.97709,-10.7063 1248.01133,13.1221 24.0889,0.6603 z"
        id="path274" class="area" data-floor="22" data-i="12" />
        <path d="m 1508.652,1542.82 -23.9948,-0.727 -1247.95206,-13.2889 -64.02766,10.7521 v -55.8272 l 64.03479,-14.7318 1247.96143,18.855 24.0162,1.5611 z"
        id="path276" class="area" data-floor="23" data-i="13" />
        <path d="m 1508.6301,1488.0006 -23.9845,-1.7033 -1247.91338,-18.8981 -64.03848,14.7364 -0.10684,-55.4254 64.0347,-18.7637 1248.0102,25.0279 23.9574,1.2552 z"
        id="path280" class="area" data-floor="24" data-i="14" />
        <path d="m 1508.5795,1432.8379 -23.9263,-1.4797 -1248.0072,-25.0483 -63.99531,18.8718 v -54.5626 l 64.12808,-24.1489 1247.93363,30.5504 23.9434,2.6545 z"
        id="path282" class="area" data-floor="25" data-i="15" />
        <path d="m 1508.6202,1378.1846 -23.9625,-2.6248 -1247.9327,-30.4846 -64.04094,24.0397 v -55.9118 l 63.99198,-28.091 1248.05136,36.2084 24.0787,3.2559 z"
        id="path284" class="area" data-floor="26" data-i="16" />
        <path d="m 1508.7144,1323.0198 -24.207,-3.3871 -1247.85187,-36.3937 -64.09639,28.1726 v -55.4119 l 64.09702,-32.0896 1248.12624,41.8185 23.8971,3.9556 z"
        id="path286" class="area" data-floor="27" data-i="17" />
        <path d="m 1508.6864,1268.2897 -24.013,-4.1277 -1248.00707,-41.8366 -63.9768,31.9524 -0.075,-54.3725 64.16243,-37.1592 1247.91694,47.9005 24.1281,2.3666 z"
        id="path288" class="area" data-floor="28" data-i="18" />
        <path d="m 1508.7402,1211.5722 -24.0487,-2.5568 -1248.01194,-47.7435 -63.95778,36.8812 v -55.6946 l 64.02618,-41.2233 1247.99024,53.6928 23.8827,3.9872 z"
        id="path290" class="area" data-floor="29" data-i="19" />
        <path d="m 1508.7002,1157.5546 -23.9531,-4.0932 -1248.10138,-53.6775 -63.96615,41.0254 -0.0529,-55.4168 64.08376,-45.3972 1247.97417,59.3009 23.9896,4.4374 z"
        id="path292" class="area" data-floor="30" data-i="20" />
        <path d="m 1508.6492,1102.4711 -24.017,-4.5755 -1247.92221,-59.2154 -64.07388,45.0013 v -54.1762 l 64.03547,-50.68468 1247.91352,65.17048 24.0729,5.1939 z"
        id="path294" class="area" data-floor="31" data-i="21" />
        <path d="m 1508.6157,1047.8119 -23.8947,-5.3795 -1248.39001,-64.98781 -63.80331,50.61961 v -55.90788 l 64.20482,-54.93366 1247.9218,70.61587 24.1791,5.41596 z"
        id="path296" class="area" data-floor="32" data-i="22" />
        <path d="m 1508.7972,991.86244 -24.128,-5.61073 -1248.32196,-70.60008 -63.70931,54.57969 v -55.7759 l 64.10677,-58.00114 1247.9077,75.92577 24.0289,5.51957 z"
        id="path298" class="area" data-floor="33" data-i="23" />
        <path d="m 1508.6783,936.42275 -24.0628,-5.46503 -1248.28538,-76.05942 -63.73066,57.72999 v -55.15024 l 64.17735,-63.03944 1247.91239,82.77102 24.0976,6.09284 z"
        id="path300" class="area" data-floor="34" data-i="24" />
        <path d="M 1508.8006,881.85306 1484.7073,875.55284 236.28876,792.8144 172.61102,855.59904 V 800.0119 l 64.38254,-66.99174 1247.54514,89.44509 24.2795,6.01684 z"
        id="path302" class="area" data-floor="35" data-i="25" />
        <path d="m 1508.7635,827.07294 -24.1277,-6.17601 -1248.0411,-89.44244 -63.9119,66.71429 v -55.31469 l 64.01339,-70.85313 1248.10051,94.67505 23.8609,6.18711 z"
        id="path304" class="area" data-floor="36" data-i="26" />
        <path d="m 1508.7092,771.49873 -24.0266,-6.51141 -1248.35094,-94.84252 -63.747,70.55838 v -55.40964 l 64.36095,-74.78651 1247.68569,100.83572 24.1136,6.8747 z"
        id="path306" class="area" data-floor="37" data-i="27" />
        <path d="m 1508.7582,716.84892 -24.1229,-6.98493 -1248.17504,-100.98817 -63.67483,73.77123 v -54.52188 l 64.31339,-78.74981 1247.20458,105.73256 24.6001,7.69022 z"
        id="path308" class="area" data-floor="38" data-i="28" />
        <path d="M 1508.8505,661.35234 1484.582,653.50901 236.54176,547.92039 172.82525,626.08268 172.63713,570.50624 236.96359,487.86117 1508.7349,601.63171 Z"
        id="path310" class="area" data-floor="39" data-i="29" />
        <path d="M 1251.4625,577.14723 236.43062,486.46093 172.62325,568.47032 V 513.52178 L 236.76012,426.73215 1251.4137,520.4101 Z"
        id="path312" class="area" data-floor="40" data-i="30" />
        <path d="m 172.59391,511.33114 v -57.58075 l 64.11826,-91.13973 188.67388,18.75926 v 61.4398 l -189.18712,-18.0781 z"
        id="path204" class="area" data-floor="41" data-i="31" />
    </g>
    <style>
        .area, .ar {
            fill: #E0B5B500;
            transition: .25s
        }
        .area:hover {
            fill: #0b286799;
        }
    </style>
</svg>
